# Blender v2.93.2 OBJ File: ''
# www.blender.org
mtllib bedside.mtl
o cube
v -0.250000 -0.875000 -0.023438
v -0.515625 -0.875000 -0.023438
v -0.515625 -0.796875 -0.023438
v -0.250000 -0.796875 -0.023438
v -0.250000 -0.875000 0.242187
v -0.250000 -0.796875 0.242187
v -0.515625 -0.875000 0.242187
v -0.515625 -0.796875 0.242187
vt 0.000000 0.000000
vt 1.000000 0.000000
vt 1.000000 1.000000
vt 0.000000 1.000000
vt 0.000000 0.000000
vt 1.000000 0.000000
vt 1.000000 1.000000
vt 0.000000 1.000000
vt 0.000000 0.000000
vt 1.000000 0.000000
vt 1.000000 1.000000
vt 0.000000 1.000000
vt 0.000000 0.000000
vt 1.000000 0.000000
vt 1.000000 1.000000
vt 0.000000 1.000000
vt 0.000000 0.000000
vt 1.000000 0.000000
vt 1.000000 1.000000
vt 0.000000 1.000000
vn 0.0000 0.0000 -1.0000
vn 1.0000 0.0000 0.0000
vn 0.0000 -0.0000 1.0000
vn -1.0000 0.0000 0.0000
vn 0.0000 1.0000 0.0000
vn 0.0000 -1.0000 -0.0000
usemtl m_1
s 1
f 1/1/1 2/2/1 3/3/1 4/4/1
f 5/5/2 1/6/2 4/7/2 6/8/2
f 7/9/3 5/10/3 6/11/3 8/12/3
f 2/13/4 7/14/4 8/15/4 3/16/4
f 8/17/5 6/18/5 4/7/5 3/16/5
f 2/13/6 1/6/6 5/19/6 7/20/6
o cube.000
v -0.304688 -0.718750 0.031250
v -0.460938 -0.718750 0.031250
v -0.460938 -0.562500 0.031250
v -0.304688 -0.562500 0.031250
v -0.304688 -0.718750 0.187500
v -0.304688 -0.562500 0.187500
v -0.460938 -0.718750 0.187500
v -0.460938 -0.562500 0.187500
vt 0.000000 0.000000
vt 1.000000 0.000000
vt 1.000000 1.000000
vt 0.000000 1.000000
vt 0.000000 0.000000
vt 1.000000 0.000000
vt 1.000000 1.000000
vt 0.000000 1.000000
vt 0.000000 0.000000
vt 1.000000 0.000000
vt 1.000000 1.000000
vt 0.000000 1.000000
vt 0.000000 0.000000
vt 1.000000 0.000000
vt 1.000000 1.000000
vt 0.000000 1.000000
vt 0.000000 0.000000
vt 1.000000 0.000000
vt 1.000000 1.000000
vt 0.000000 1.000000
vn 0.0000 0.0000 -1.0000
vn 1.0000 0.0000 0.0000
vn 0.0000 -0.0000 1.0000
vn -1.0000 0.0000 0.0000
vn 0.0000 1.0000 0.0000
vn 0.0000 -1.0000 -0.0000
usemtl m_1
s 1
f 9/21/7 10/22/7 11/23/7 12/24/7
f 13/25/8 9/26/8 12/27/8 14/28/8
f 15/29/9 13/30/9 14/31/9 16/32/9
f 10/33/10 15/34/10 16/35/10 11/36/10
f 16/37/11 14/38/11 12/27/11 11/36/11
f 10/33/12 9/26/12 13/39/12 15/40/12
o cube.001
v -0.351562 -0.796875 0.078125
v -0.414062 -0.796875 0.078125
v -0.414062 -0.718750 0.078125
v -0.351562 -0.718750 0.078125
v -0.351562 -0.796875 0.140625
v -0.351562 -0.718750 0.140625
v -0.414062 -0.796875 0.140625
v -0.414062 -0.718750 0.140625
vt 0.000000 0.000000
vt 1.000000 0.000000
vt 1.000000 1.000000
vt 0.000000 1.000000
vt 0.000000 0.000000
vt 1.000000 0.000000
vt 1.000000 1.000000
vt 0.000000 1.000000
vt 0.000000 0.000000
vt 1.000000 0.000000
vt 1.000000 1.000000
vt 0.000000 1.000000
vt 0.000000 0.000000
vt 1.000000 0.000000
vt 1.000000 1.000000
vt 0.000000 1.000000
vt 0.000000 0.000000
vt 1.000000 0.000000
vt 1.000000 1.000000
vt 0.000000 1.000000
vn 0.0000 0.0000 -1.0000
vn 1.0000 -0.0000 0.0000
vn 0.0000 -0.0000 1.0000
vn -1.0000 -0.0000 0.0000
vn 0.0000 1.0000 0.0000
vn 0.0000 -1.0000 0.0000
usemtl m_1
s 1
f 17/41/13 18/42/13 19/43/13 20/44/13
f 21/45/14 17/46/14 20/47/14 22/48/14
f 23/49/15 21/50/15 22/51/15 24/52/15
f 18/53/16 23/54/16 24/55/16 19/56/16
f 24/57/17 22/58/17 20/47/17 19/56/17
f 18/53/18 17/46/18 21/59/18 23/60/18
o cube.002
v -0.351562 -0.562500 0.078125
v -0.414062 -0.562500 0.078125
v -0.414062 -0.484375 0.078125
v -0.351562 -0.484375 0.078125
v -0.351562 -0.562500 0.140625
v -0.351562 -0.484375 0.140625
v -0.414062 -0.562500 0.140625
v -0.414062 -0.484375 0.140625
vt 0.000000 0.000000
vt 1.000000 0.000000
vt 1.000000 1.000000
vt 0.000000 1.000000
vt 0.000000 0.000000
vt 1.000000 0.000000
vt 1.000000 1.000000
vt 0.000000 1.000000
vt 0.000000 0.000000
vt 1.000000 0.000000
vt 1.000000 1.000000
vt 0.000000 1.000000
vt 0.000000 0.000000
vt 1.000000 0.000000
vt 1.000000 1.000000
vt 0.000000 1.000000
vt 0.000000 0.000000
vt 1.000000 0.000000
vt 1.000000 1.000000
vt 0.000000 1.000000
vn 0.0000 0.0000 -1.0000
vn 1.0000 -0.0000 0.0000
vn 0.0000 -0.0000 1.0000
vn -1.0000 -0.0000 0.0000
vn 0.0000 1.0000 0.0000
vn 0.0000 -1.0000 0.0000
usemtl m_1
s 1
f 25/61/19 26/62/19 27/63/19 28/64/19
f 29/65/20 25/66/20 28/67/20 30/68/20
f 31/69/21 29/70/21 30/71/21 32/72/21
f 26/73/22 31/74/22 32/75/22 27/76/22
f 32/77/23 30/78/23 28/67/23 27/76/23
f 26/73/24 25/66/24 29/79/24 31/80/24
o cube.003
v -0.304688 -0.484375 0.031250
v -0.460938 -0.484375 0.031250
v -0.460938 -0.328125 0.031250
v -0.304688 -0.328125 0.031250
v -0.304688 -0.484375 0.187500
v -0.304688 -0.328125 0.187500
v -0.460938 -0.484375 0.187500
v -0.460938 -0.328125 0.187500
vt 0.000000 0.000000
vt 1.000000 0.000000
vt 1.000000 1.000000
vt 0.000000 1.000000
vt 0.000000 0.000000
vt 1.000000 0.000000
vt 1.000000 1.000000
vt 0.000000 1.000000
vt 0.000000 0.000000
vt 1.000000 0.000000
vt 1.000000 1.000000
vt 0.000000 1.000000
vt 0.000000 0.000000
vt 1.000000 0.000000
vt 1.000000 1.000000
vt 0.000000 1.000000
vt 0.000000 0.000000
vt 1.000000 0.000000
vt 1.000000 1.000000
vt 0.000000 1.000000
vn 0.0000 0.0000 -1.0000
vn 1.0000 0.0000 0.0000
vn 0.0000 -0.0000 1.0000
vn -1.0000 0.0000 0.0000
vn 0.0000 1.0000 0.0000
vn 0.0000 -1.0000 -0.0000
usemtl m_1
s 1
f 33/81/25 34/82/25 35/83/25 36/84/25
f 37/85/26 33/86/26 36/87/26 38/88/26
f 39/89/27 37/90/27 38/91/27 40/92/27
f 34/93/28 39/94/28 40/95/28 35/96/28
f 40/97/29 38/98/29 36/87/29 35/96/29
f 34/93/30 33/86/30 37/99/30 39/100/30
o cube.004
v -0.351562 -0.328125 0.078125
v -0.414062 -0.328125 0.078125
v -0.414062 -0.250000 0.078125
v -0.351562 -0.250000 0.078125
v -0.351562 -0.328125 0.140625
v -0.351562 -0.250000 0.140625
v -0.414062 -0.328125 0.140625
v -0.414062 -0.250000 0.140625
vt 0.000000 0.000000
vt 1.000000 0.000000
vt 1.000000 1.000000
vt 0.000000 1.000000
vt 0.000000 0.000000
vt 1.000000 0.000000
vt 1.000000 1.000000
vt 0.000000 1.000000
vt 0.000000 0.000000
vt 1.000000 0.000000
vt 1.000000 1.000000
vt 0.000000 1.000000
vt 0.000000 0.000000
vt 1.000000 0.000000
vt 1.000000 1.000000
vt 0.000000 1.000000
vt 0.000000 0.000000
vt 1.000000 0.000000
vt 1.000000 1.000000
vt 0.000000 1.000000
vn 0.0000 0.0000 -1.0000
vn 1.0000 0.0000 0.0000
vn 0.0000 -0.0000 1.0000
vn -1.0000 0.0000 0.0000
vn 0.0000 1.0000 0.0000
vn 0.0000 -1.0000 -0.0000
usemtl m_1
s 1
f 41/101/31 42/102/31 43/103/31 44/104/31
f 45/105/32 41/106/32 44/107/32 46/108/32
f 47/109/33 45/110/33 46/111/33 48/112/33
f 42/113/34 47/114/34 48/115/34 43/116/34
f 48/117/35 46/118/35 44/107/35 43/116/35
f 42/113/36 41/106/36 45/119/36 47/120/36
o cube.005
v -0.351562 -0.093750 0.078125
v -0.414062 -0.093750 0.078125
v -0.414062 -0.015625 0.078125
v -0.351562 -0.015625 0.078125
v -0.351562 -0.093750 0.140625
v -0.351562 -0.015625 0.140625
v -0.414062 -0.093750 0.140625
v -0.414062 -0.015625 0.140625
vt 0.000000 0.000000
vt 1.000000 0.000000
vt 1.000000 1.000000
vt 0.000000 1.000000
vt 0.000000 0.000000
vt 1.000000 0.000000
vt 1.000000 1.000000
vt 0.000000 1.000000
vt 0.000000 0.000000
vt 1.000000 0.000000
vt 1.000000 1.000000
vt 0.000000 1.000000
vt 0.000000 0.000000
vt 1.000000 0.000000
vt 1.000000 1.000000
vt 0.000000 1.000000
vt 0.000000 0.000000
vt 1.000000 0.000000
vt 1.000000 1.000000
vt 0.000000 1.000000
vn 0.0000 0.0000 -1.0000
vn 1.0000 0.0000 0.0000
vn 0.0000 -0.0000 1.0000
vn -1.0000 0.0000 0.0000
vn 0.0000 1.0000 0.0000
vn 0.0000 -1.0000 -0.0000
usemtl m_1
s 1
f 49/121/37 50/122/37 51/123/37 52/124/37
f 53/125/38 49/126/38 52/127/38 54/128/38
f 55/129/39 53/130/39 54/131/39 56/132/39
f 50/133/40 55/134/40 56/135/40 51/136/40
f 56/137/41 54/138/41 52/127/41 51/136/41
f 50/133/42 49/126/42 53/139/42 55/140/42
o cube.006
v -0.367188 -0.015625 0.093750
v -0.398438 -0.015625 0.093750
v -0.398438 0.140625 0.093750
v -0.367188 0.140625 0.093750
v -0.367188 -0.015625 0.125000
v -0.367188 0.140625 0.125000
v -0.398438 -0.015625 0.125000
v -0.398438 0.140625 0.125000
vt 0.634896 0.106073
vt 0.635665 0.106073
vt 0.635665 0.119907
vt 0.634896 0.119907
vt 0.634896 0.106073
vt 0.635665 0.106073
vt 0.635665 0.119907
vt 0.634896 0.119907
vt 0.634896 0.106073
vt 0.635665 0.106073
vt 0.635665 0.119907
vt 0.634896 0.119907
vt 0.634896 0.106073
vt 0.635665 0.106073
vt 0.635665 0.119907
vt 0.634896 0.119907
vt 0.634896 0.106073
vt 0.635665 0.106073
vt 0.635665 0.119907
vt 0.634896 0.119907
vn 0.0000 0.0000 -1.0000
vn 1.0000 0.0000 0.0000
vn 0.0000 -0.0000 1.0000
vn -1.0000 0.0000 0.0000
vn 0.0000 1.0000 0.0000
vn 0.0000 -1.0000 -0.0000
usemtl m_2
s 1
f 57/141/43 58/142/43 59/143/43 60/144/43
f 61/145/44 57/146/44 60/147/44 62/148/44
f 63/149/45 61/150/45 62/151/45 64/152/45
f 58/153/46 63/154/46 64/155/46 59/156/46
f 64/157/47 62/158/47 60/147/47 59/156/47
f 58/153/48 57/146/48 61/159/48 63/160/48
o cube.007
v -0.304688 -0.250000 0.031250
v -0.460938 -0.250000 0.031250
v -0.460938 -0.093750 0.031250
v -0.304688 -0.093750 0.031250
v -0.304688 -0.250000 0.187500
v -0.304688 -0.093750 0.187500
v -0.460938 -0.250000 0.187500
v -0.460938 -0.093750 0.187500
vt 0.000000 0.000000
vt 1.000000 0.000000
vt 1.000000 1.000000
vt 0.000000 1.000000
vt 0.000000 0.000000
vt 1.000000 0.000000
vt 1.000000 1.000000
vt 0.000000 1.000000
vt 0.000000 0.000000
vt 1.000000 0.000000
vt 1.000000 1.000000
vt 0.000000 1.000000
vt 0.000000 0.000000
vt 1.000000 0.000000
vt 1.000000 1.000000
vt 0.000000 1.000000
vt 0.000000 0.000000
vt 1.000000 0.000000
vt 1.000000 1.000000
vt 0.000000 1.000000
vn 0.0000 0.0000 -1.0000
vn 1.0000 0.0000 0.0000
vn 0.0000 -0.0000 1.0000
vn -1.0000 0.0000 0.0000
vn 0.0000 1.0000 0.0000
vn 0.0000 -1.0000 -0.0000
usemtl m_1
s 1
f 65/161/49 66/162/49 67/163/49 68/164/49
f 69/165/50 65/166/50 68/167/50 70/168/50
f 71/169/51 69/170/51 70/171/51 72/172/51
f 66/173/52 71/174/52 72/175/52 67/176/52
f 72/177/53 70/178/53 68/167/53 67/176/53
f 66/173/54 65/166/54 69/179/54 71/180/54
o cube.008
v -0.164062 -0.015625 0.390625
v -0.601562 -0.015625 0.390625
v -0.601562 0.390625 0.390625
v -0.164062 0.390625 0.390625
v -0.164062 -0.015625 0.406250
v -0.164062 0.390625 0.406250
v -0.601562 -0.015625 0.406250
v -0.601562 0.390625 0.406250
vt 1.000000 0.000000
vt 1.000000 1.000000
vt 0.000000 1.000000
vt 0.000000 0.000000
vt 0.000000 0.000000
vt 1.000000 1.000000
vt 0.000000 1.000000
vt 1.000000 0.000000
vt 1.000000 1.000000
vt 0.000000 0.000000
vt 0.000000 0.000000
vt 1.000000 1.000000
vt 1.000000 0.000000
vt 0.000000 1.000000
vn 0.0000 0.0000 -1.0000
vn 1.0000 0.0000 0.0000
vn 0.0000 -0.0000 1.0000
vn -1.0000 0.0000 0.0000
vn 0.0000 1.0000 0.0000
vn 0.0000 -1.0000 -0.0000
usemtl m_3
s 1
f 73/181/55 74/182/55 75/183/55 76/184/55
f 77/185/56 73/181/56 76/186/56 78/187/56
f 79/188/57 77/189/57 78/187/57 80/190/57
f 74/191/58 79/188/58 80/192/58 75/183/58
f 80/190/59 78/193/59 76/186/59 75/183/59
f 74/191/60 73/181/60 77/189/60 79/194/60
o cube.009
v -0.164062 -0.015625 -0.187500
v -0.601562 -0.015625 -0.187500
v -0.601562 0.390625 -0.187500
v -0.164062 0.390625 -0.187500
v -0.164062 -0.015625 -0.171875
v -0.164062 0.390625 -0.171875
v -0.601562 -0.015625 -0.171875
v -0.601562 0.390625 -0.171875
vt 1.000000 0.000000
vt 1.000000 1.000000
vt 0.000000 1.000000
vt 0.000000 0.000000
vt 0.000000 0.000000
vt 1.000000 1.000000
vt 0.000000 1.000000
vt 1.000000 0.000000
vt 1.000000 1.000000
vt 0.000000 0.000000
vt 0.000000 0.000000
vt 1.000000 1.000000
vt 1.000000 0.000000
vt 0.000000 1.000000
vn 0.0000 0.0000 -1.0000
vn 1.0000 0.0000 0.0000
vn 0.0000 -0.0000 1.0000
vn -1.0000 0.0000 0.0000
vn 0.0000 1.0000 0.0000
vn 0.0000 -1.0000 -0.0000
usemtl m_3
s 1
f 81/195/61 82/196/61 83/197/61 84/198/61
f 85/199/62 81/195/62 84/200/62 86/201/62
f 87/202/63 85/203/63 86/201/63 88/204/63
f 82/205/64 87/202/64 88/206/64 83/197/64
f 88/204/65 86/207/65 84/200/65 83/197/65
f 82/205/66 81/195/66 85/203/66 87/208/66
o cube.010
v -0.601562 -0.015625 -0.187500
v -0.617188 -0.015625 -0.187500
v -0.617188 0.390625 -0.187500
v -0.601562 0.390625 -0.187500
v -0.601562 -0.015625 0.406250
v -0.601562 0.390625 0.406250
v -0.617188 -0.015625 0.406250
v -0.617188 0.390625 0.406250
vt 0.000000 0.000000
vt 1.000000 0.000000
vt 1.000000 1.000000
vt 0.000000 1.000000
vt 1.000000 0.000000
vt 1.000000 1.000000
vt 0.000000 0.000000
vt 0.000000 0.000000
vt 1.000000 1.000000
vt 0.000000 1.000000
vt 1.000000 1.000000
vt 0.000000 0.000000
vt 0.000000 0.000000
vt 1.000000 0.000000
vt 1.000000 1.000000
vt 0.000000 1.000000
vt 0.000000 0.000000
vt 1.000000 0.000000
vt 1.000000 1.000000
vt 0.000000 1.000000
vn 0.0000 0.0000 -1.0000
vn 1.0000 0.0000 0.0000
vn 0.0000 -0.0000 1.0000
vn -1.0000 0.0000 0.0000
vn 0.0000 1.0000 0.0000
vn 0.0000 -1.0000 -0.0000
usemtl m_3
s 1
f 89/209/67 90/210/67 91/211/67 92/212/67
f 93/213/68 89/214/68 92/212/68 94/215/68
f 95/216/69 93/213/69 94/217/69 96/218/69
f 90/210/70 95/219/70 96/218/70 91/220/70
f 96/221/71 94/222/71 92/223/71 91/224/71
f 90/225/72 89/226/72 93/227/72 95/228/72
o cube.011
v -0.164062 0.375000 -0.171875
v -0.601562 0.375000 -0.171875
v -0.601562 0.390625 -0.171875
v -0.164062 0.390625 -0.171875
v -0.164062 0.375000 0.390625
v -0.164062 0.390625 0.390625
v -0.601562 0.375000 0.390625
v -0.601562 0.390625 0.390625
vt 0.000000 0.000000
vt 1.000000 0.000000
vt 1.000000 1.000000
vt 0.000000 1.000000
vt 0.000000 0.000000
vt 1.000000 0.000000
vt 1.000000 1.000000
vt 0.000000 1.000000
vt 0.000000 0.000000
vt 1.000000 0.000000
vt 1.000000 1.000000
vt 0.000000 1.000000
vt 0.000000 0.000000
vt 1.000000 0.000000
vt 1.000000 1.000000
vt 0.000000 1.000000
vt 0.000000 0.000000
vt 1.000000 0.000000
vt 1.000000 1.000000
vt 0.000000 1.000000
vn 0.0000 0.0000 -1.0000
vn 1.0000 0.0000 0.0000
vn 0.0000 0.0000 1.0000
vn -1.0000 0.0000 0.0000
vn 0.0000 1.0000 0.0000
vn 0.0000 -1.0000 -0.0000
usemtl m_3
s 1
f 97/229/73 98/230/73 99/231/73 100/232/73
f 101/233/74 97/234/74 100/235/74 102/236/74
f 103/237/75 101/238/75 102/239/75 104/240/75
f 98/241/76 103/242/76 104/243/76 99/244/76
f 104/245/77 102/246/77 100/235/77 99/244/77
f 98/241/78 97/234/78 101/247/78 103/248/78
o cube.012
v -0.148438 -0.015625 -0.187500
v -0.164062 -0.015625 -0.187500
v -0.164062 0.390625 -0.187500
v -0.148438 0.390625 -0.187500
v -0.148438 -0.015625 0.406250
v -0.148438 0.390625 0.406250
v -0.164062 -0.015625 0.406250
v -0.164062 0.390625 0.406250
vt 1.000000 0.000000
vt 1.000000 1.000000
vt 0.000000 1.000000
vt 0.000000 0.000000
vt 1.000000 0.000000
vt 1.000000 1.000000
vt 0.000000 1.000000
vt 0.000000 0.000000
vt 1.000000 0.000000
vt 1.000000 1.000000
vt 0.000000 1.000000
vt 0.000000 0.000000
vt 1.000000 0.000000
vt 1.000000 1.000000
vt 0.000000 1.000000
vt 0.000000 0.000000
vt 1.000000 0.000000
vt 1.000000 1.000000
vt 0.000000 1.000000
vt 0.000000 0.000000
vn 0.0000 0.0000 -1.0000
vn 1.0000 0.0000 0.0000
vn 0.0000 -0.0000 1.0000
vn -1.0000 0.0000 0.0000
vn 0.0000 1.0000 0.0000
vn 0.0000 -1.0000 -0.0000
usemtl m_3
s 1
f 105/249/79 106/250/79 107/251/79 108/252/79
f 109/253/80 105/254/80 108/255/80 110/256/80
f 111/257/81 109/258/81 110/259/81 112/260/81
f 106/261/82 111/262/82 112/263/82 107/264/82
f 112/265/83 110/266/83 108/255/83 107/264/83
f 106/261/84 105/254/84 109/267/84 111/268/84
o cube.013
v 0.062500 -1.500000 -0.554688
v -0.828125 -1.500000 -0.554688
v -0.828125 -0.875000 -0.554688
v 0.062500 -0.875000 -0.554688
v 0.062500 -1.500000 -0.492188
v 0.062500 -0.875000 -0.492188
v -0.828125 -1.500000 -0.492188
v -0.828125 -0.875000 -0.492188
vt 0.000977 0.990234
vt 0.001953 0.990234
vt 0.001953 1.000000
vt 0.000977 1.000000
vt 0.000977 0.990234
vt 0.001953 0.990234
vt 0.001953 1.000000
vt 0.000977 1.000000
vt 0.000977 0.990234
vt 0.001953 0.990234
vt 0.001953 1.000000
vt 0.000977 1.000000
vt 0.000977 0.990234
vt 0.001953 0.990234
vt 0.001953 1.000000
vt 0.000977 1.000000
vt 0.000977 0.990234
vt 0.001953 0.990234
vt 0.001953 1.000000
vt 0.000977 1.000000
vn 0.0000 0.0000 -1.0000
vn 1.0000 0.0000 0.0000
vn 0.0000 -0.0000 1.0000
vn -1.0000 0.0000 0.0000
vn 0.0000 1.0000 0.0000
vn 0.0000 -1.0000 0.0000
usemtl m_0
s 1
f 113/269/85 114/270/85 115/271/85 116/272/85
f 117/273/86 113/274/86 116/275/86 118/276/86
f 119/277/87 117/278/87 118/279/87 120/280/87
f 114/281/88 119/282/88 120/283/88 115/284/88
f 120/285/89 118/286/89 116/275/89 115/284/89
f 114/281/90 113/274/90 117/287/90 119/288/90
o cube.014
v 0.031250 -1.437500 -0.492188
v -0.828125 -1.437500 -0.492188
v -0.828125 -0.875000 -0.492188
v 0.031250 -0.875000 -0.492188
v 0.031250 -1.437500 0.695312
v 0.031250 -0.875000 0.695312
v -0.828125 -1.437500 0.695312
v -0.828125 -0.875000 0.695312
vt 0.000000 0.000000
vt 1.000000 0.000000
vt 1.000000 1.000000
vt 0.000000 1.000000
vt 0.000000 0.000000
vt 1.000000 0.000000
vt 1.000000 1.000000
vt 0.000000 1.000000
vt 0.000000 0.000000
vt 1.000000 0.000000
vt 1.000000 1.000000
vt 0.000000 1.000000
vt 0.000000 0.000000
vt 1.000000 0.000000
vt 1.000000 1.000000
vt 0.000000 1.000000
vt 0.000000 0.000000
vt 1.000000 0.000000
vt 1.000000 1.000000
vt 0.000000 1.000000
vn 0.0000 0.0000 -1.0000
vn 1.0000 0.0000 0.0000
vn 0.0000 -0.0000 1.0000
vn -1.0000 0.0000 0.0000
vn 0.0000 1.0000 0.0000
vn 0.0000 -1.0000 -0.0000
usemtl m_0
s 1
f 121/289/91 122/290/91 123/291/91 124/292/91
f 125/293/92 121/294/92 124/295/92 126/296/92
f 127/297/93 125/298/93 126/299/93 128/300/93
f 122/301/94 127/302/94 128/303/94 123/304/94
f 128/305/95 126/306/95 124/295/95 123/304/95
f 122/301/96 121/294/96 125/307/96 127/308/96
o cube.015
v 0.062500 -0.937500 -0.492188
v 0.031250 -0.937500 -0.492188
v 0.031250 -0.875000 -0.492188
v 0.062500 -0.875000 -0.492188
v 0.062500 -0.937500 0.695312
v 0.062500 -0.875000 0.695312
v 0.031250 -0.937500 0.695312
v 0.031250 -0.875000 0.695312
vt 0.000000 0.999023
vt 0.018555 0.999023
vt 0.018555 1.000000
vt 0.000000 1.000000
vt 0.000000 0.999023
vt 0.018555 0.999023
vt 0.018555 1.000000
vt 0.000000 1.000000
vt 0.000000 0.999023
vt 0.018555 0.999023
vt 0.018555 1.000000
vt 0.000000 1.000000
vt 0.000000 0.999023
vt 0.018555 0.999023
vt 0.018555 1.000000
vt 0.000000 1.000000
vt 0.000000 0.999023
vt 0.018555 0.999023
vt 0.018555 1.000000
vt 0.000000 1.000000
vn 0.0000 0.0000 -1.0000
vn 1.0000 0.0000 0.0000
vn 0.0000 -0.0000 1.0000
vn -1.0000 0.0000 0.0000
vn 0.0000 1.0000 0.0000
vn 0.0000 -1.0000 -0.0000
usemtl m_0
s 1
f 129/309/97 130/310/97 131/311/97 132/312/97
f 133/313/98 129/314/98 132/315/98 134/316/98
f 135/317/99 133/318/99 134/319/99 136/320/99
f 130/321/100 135/322/100 136/323/100 131/324/100
f 136/325/101 134/326/101 132/315/101 131/324/101
f 130/321/102 129/314/102 133/327/102 135/328/102
o cube.016
v 0.062500 -1.171875 -0.476563
v 0.031250 -1.171875 -0.476563
v 0.031250 -0.953125 -0.476563
v 0.062500 -0.953125 -0.476563
v 0.062500 -1.171875 0.679687
v 0.062500 -0.953125 0.679687
v 0.031250 -1.171875 0.679687
v 0.031250 -0.953125 0.679687
vt 0.000000 0.996582
vt 0.018066 0.996582
vt 0.018066 1.000000
vt 0.000000 1.000000
vt 0.000000 0.996582
vt 0.018066 0.996582
vt 0.018066 1.000000
vt 0.000000 1.000000
vt 0.000000 0.996582
vt 0.018066 0.996582
vt 0.018066 1.000000
vt 0.000000 1.000000
vt 0.000000 0.996582
vt 0.018066 0.996582
vt 0.018066 1.000000
vt 0.000000 1.000000
vt 0.000000 0.996582
vt 0.018066 0.996582
vt 0.018066 1.000000
vt 0.000000 1.000000
vn 0.0000 0.0000 -1.0000
vn 1.0000 0.0000 0.0000
vn 0.0000 0.0000 1.0000
vn -1.0000 0.0000 0.0000
vn 0.0000 1.0000 0.0000
vn 0.0000 -1.0000 -0.0000
usemtl m_0
s 1
f 137/329/103 138/330/103 139/331/103 140/332/103
f 141/333/104 137/334/104 140/335/104 142/336/104
f 143/337/105 141/338/105 142/339/105 144/340/105
f 138/341/106 143/342/106 144/343/106 139/344/106
f 144/345/107 142/346/107 140/335/107 139/344/107
f 138/341/108 137/334/108 141/347/108 143/348/108
o cube.017
v 0.062500 -1.421875 -0.476563
v 0.031250 -1.421875 -0.476563
v 0.031250 -1.203125 -0.476563
v 0.062500 -1.203125 -0.476563
v 0.062500 -1.421875 0.679687
v 0.062500 -1.203125 0.679687
v 0.031250 -1.421875 0.679687
v 0.031250 -1.203125 0.679687
vt 0.000000 0.996582
vt 0.018066 0.996582
vt 0.018066 1.000000
vt 0.000000 1.000000
vt 0.000000 0.996582
vt 0.018066 0.996582
vt 0.018066 1.000000
vt 0.000000 1.000000
vt 0.000000 0.996582
vt 0.018066 0.996582
vt 0.018066 1.000000
vt 0.000000 1.000000
vt 0.000000 0.996582
vt 0.018066 0.996582
vt 0.018066 1.000000
vt 0.000000 1.000000
vt 0.000000 0.996582
vt 0.018066 0.996582
vt 0.018066 1.000000
vt 0.000000 1.000000
vn 0.0000 0.0000 -1.0000
vn 1.0000 0.0000 0.0000
vn 0.0000 -0.0000 1.0000
vn -1.0000 0.0000 0.0000
vn 0.0000 1.0000 0.0000
vn 0.0000 -1.0000 -0.0000
usemtl m_0
s 1
f 145/349/109 146/350/109 147/351/109 148/352/109
f 149/353/110 145/354/110 148/355/110 150/356/110
f 151/357/111 149/358/111 150/359/111 152/360/111
f 146/361/112 151/362/112 152/363/112 147/364/112
f 152/365/113 150/366/113 148/355/113 147/364/113
f 146/361/114 145/354/114 149/367/114 151/368/114
o cube.018
v 0.062500 -1.500000 0.695312
v -0.828125 -1.500000 0.695312
v -0.828125 -0.875000 0.695312
v 0.062500 -0.875000 0.695312
v 0.062500 -1.500000 0.757812
v 0.062500 -0.875000 0.757812
v -0.828125 -1.500000 0.757812
v -0.828125 -0.875000 0.757812
vt 0.000000 0.990234
vt 0.000977 0.990234
vt 0.000977 1.000000
vt 0.000000 1.000000
vt 0.000000 0.990234
vt 0.000977 0.990234
vt 0.000977 1.000000
vt 0.000000 1.000000
vt 0.000000 0.990234
vt 0.000977 0.990234
vt 0.000977 1.000000
vt 0.000000 1.000000
vt 0.000000 0.990234
vt 0.000977 0.990234
vt 0.000977 1.000000
vt 0.000000 1.000000
vt 0.000000 0.990234
vt 0.000977 0.990234
vt 0.000977 1.000000
vt 0.000000 1.000000
vn 0.0000 0.0000 -1.0000
vn 1.0000 0.0000 0.0000
vn 0.0000 -0.0000 1.0000
vn -1.0000 0.0000 0.0000
vn 0.0000 1.0000 0.0000
vn 0.0000 -1.0000 0.0000
usemtl m_0
s 1
f 153/369/115 154/370/115 155/371/115 156/372/115
f 157/373/116 153/374/116 156/375/116 158/376/116
f 159/377/117 157/378/117 158/379/117 160/380/117
f 154/381/118 159/382/118 160/383/118 155/384/118
f 160/385/119 158/386/119 156/375/119 155/384/119
f 154/381/120 153/374/120 157/387/120 159/388/120
