# Blender v2.93.2 OBJ File: ''
# www.blender.org
mtllib black_bed.mtl
o cube
v 1.500000 -0.953125 1.109375
v -1.500000 -0.953125 1.109375
v -1.500000 -0.875000 1.109375
v 1.500000 -0.875000 1.109375
v 1.500000 -0.953125 1.500000
v 1.500000 -0.875000 1.500000
v -1.500000 -0.953125 1.500000
v -1.500000 -0.875000 1.500000
vt 1.000000 0.000000
vt 0.000000 0.000000
vt 0.000000 1.000000
vt 1.000000 1.000000
vt 1.000000 0.000000
vt 0.000000 0.000000
vt 0.000000 1.000000
vt 1.000000 1.000000
vt 1.000000 0.000000
vt 0.000000 0.000000
vt 0.000000 1.000000
vt 1.000000 1.000000
vt 1.000000 0.000000
vt 0.000000 0.000000
vt 0.000000 1.000000
vt 1.000000 1.000000
vt 1.000000 0.000000
vt 0.000000 0.000000
vt 0.000000 1.000000
vt 1.000000 1.000000
vn 0.0000 0.0000 -1.0000
vn 1.0000 0.0000 0.0000
vn 0.0000 0.0000 1.0000
vn -1.0000 0.0000 0.0000
vn 0.0000 1.0000 0.0000
vn 0.0000 -1.0000 -0.0000
usemtl m_0
s 1
f 1/1/1 2/2/1 3/3/1 4/4/1
f 5/5/2 1/6/2 4/7/2 6/8/2
f 7/9/3 5/10/3 6/11/3 8/12/3
f 2/13/4 7/14/4 8/15/4 3/16/4
f 8/15/5 6/8/5 4/17/5 3/18/5
f 2/19/6 1/20/6 5/5/6 7/14/6
o cube.000
v 1.500000 -0.812500 -1.500000
v -1.343750 -0.812500 -1.500000
v -1.343750 -0.437500 -1.500000
v 1.500000 -0.437500 -1.500000
v 1.500000 -0.812500 -1.421875
v 1.500000 -0.437500 -1.421875
v -1.343750 -0.812500 -1.421875
v -1.343750 -0.437500 -1.421875
vt 0.000000 0.000000
vt 1.000000 0.000000
vt 1.000000 1.000000
vt 0.000000 1.000000
vt 0.000000 0.000000
vt 1.000000 0.000000
vt 1.000000 1.000000
vt 0.000000 1.000000
vt 0.000000 0.000000
vt 1.000000 0.000000
vt 1.000000 1.000000
vt 0.000000 1.000000
vt 0.000000 0.000000
vt 1.000000 0.000000
vt 1.000000 1.000000
vt 0.000000 1.000000
vt 0.000000 0.000000
vt 1.000000 0.000000
vt 1.000000 1.000000
vt 0.000000 1.000000
vn 0.0000 0.0000 -1.0000
vn 1.0000 0.0000 0.0000
vn 0.0000 0.0000 1.0000
vn -1.0000 0.0000 0.0000
vn 0.0000 1.0000 0.0000
vn 0.0000 -1.0000 0.0000
usemtl m_0
s 1
f 9/21/7 10/22/7 11/23/7 12/24/7
f 13/25/8 9/26/8 12/27/8 14/28/8
f 15/29/9 13/30/9 14/31/9 16/32/9
f 10/33/10 15/34/10 16/35/10 11/36/10
f 16/37/11 14/38/11 12/27/11 11/36/11
f 10/33/12 9/26/12 13/39/12 15/40/12
o cube.001
v 1.500000 -0.812500 1.421875
v -1.343750 -0.812500 1.421875
v -1.343750 -0.437500 1.421875
v 1.500000 -0.437500 1.421875
v 1.500000 -0.812500 1.500000
v 1.500000 -0.437500 1.500000
v -1.343750 -0.812500 1.500000
v -1.343750 -0.437500 1.500000
vt 0.000000 0.000000
vt 1.000000 0.000000
vt 1.000000 1.000000
vt 0.000000 1.000000
vt 0.000000 0.000000
vt 1.000000 0.000000
vt 1.000000 1.000000
vt 0.000000 1.000000
vt 0.000000 0.000000
vt 1.000000 0.000000
vt 1.000000 1.000000
vt 0.000000 1.000000
vt 0.000000 0.000000
vt 1.000000 0.000000
vt 1.000000 1.000000
vt 0.000000 1.000000
vt 0.000000 0.000000
vt 1.000000 0.000000
vt 1.000000 1.000000
vt 0.000000 1.000000
vn 0.0000 0.0000 -1.0000
vn 1.0000 0.0000 0.0000
vn 0.0000 0.0000 1.0000
vn -1.0000 0.0000 0.0000
vn 0.0000 1.0000 0.0000
vn 0.0000 -1.0000 0.0000
usemtl m_0
s 1
f 17/41/13 18/42/13 19/43/13 20/44/13
f 21/45/14 17/46/14 20/47/14 22/48/14
f 23/49/15 21/50/15 22/51/15 24/52/15
f 18/53/16 23/54/16 24/55/16 19/56/16
f 24/57/17 22/58/17 20/47/17 19/56/17
f 18/53/18 17/46/18 21/59/18 23/60/18
o cube.002
v 1.500000 -0.875000 -1.500000
v -1.500000 -0.875000 -1.500000
v -1.500000 -0.812500 -1.500000
v 1.500000 -0.812500 -1.500000
v 1.500000 -0.875000 1.500000
v 1.500000 -0.812500 1.500000
v -1.500000 -0.875000 1.500000
v -1.500000 -0.812500 1.500000
vt 0.000000 0.000000
vt 1.000000 0.000000
vt 1.000000 1.000000
vt 0.000000 1.000000
vt 0.000000 0.000000
vt 1.000000 0.000000
vt 1.000000 1.000000
vt 0.000000 1.000000
vt 0.000000 0.000000
vt 1.000000 0.000000
vt 1.000000 1.000000
vt 0.000000 1.000000
vt 0.000000 0.000000
vt 1.000000 0.000000
vt 1.000000 1.000000
vt 0.000000 1.000000
vt 0.000000 0.000000
vt 1.000000 0.000000
vt 1.000000 1.000000
vt 0.000000 1.000000
vn 0.0000 0.0000 -1.0000
vn 1.0000 0.0000 0.0000
vn 0.0000 0.0000 1.0000
vn -1.0000 0.0000 0.0000
vn 0.0000 1.0000 0.0000
vn 0.0000 -1.0000 -0.0000
usemtl m_0
s 1
f 25/61/19 26/62/19 27/63/19 28/64/19
f 29/65/20 25/66/20 28/67/20 30/68/20
f 31/69/21 29/70/21 30/71/21 32/72/21
f 26/73/22 31/74/22 32/75/22 27/76/22
f 32/77/23 30/78/23 28/67/23 27/76/23
f 26/73/24 25/66/24 29/79/24 31/80/24
o cube.003
v -0.656250 -0.812500 -1.390625
v -1.312500 -0.812500 -1.390625
v -1.312500 -0.250000 -1.390625
v -0.656250 -0.250000 -1.390625
v -0.656250 -0.812500 1.390625
v -0.656250 -0.250000 1.390625
v -1.312500 -0.812500 1.390625
v -1.312500 -0.250000 1.390625
vt 0.504883 0.763672
vt 0.504883 1.000000
vt 0.000000 1.000000
vt 0.000000 0.763672
vt 0.000000 1.000000
vt 0.000000 0.763672
vt 0.504883 0.763672
vt 0.504883 1.000000
vt 0.000000 1.000000
vt 0.000000 0.763672
vt 1.000000 0.763672
vt 1.000000 1.000000
vt 0.000000 0.000000
vt 1.000000 0.000000
vt 1.000000 1.000000
vt 0.000000 1.000000
vt 0.000000 0.000000
vt 1.000000 0.000000
vt 1.000000 1.000000
vt 1.000000 1.000000
vn 0.0000 0.0000 -1.0000
vn 0.0000 -0.0000 1.0000
vn 0.0000 1.0000 0.0000
vn 1.0000 0.0000 0.0000
vn -1.0000 0.0000 0.0000
vn 0.0000 -1.0000 -0.0000
usemtl m_3
s 1
f 33/81/25 34/82/25 35/83/25 36/84/25
f 39/85/26 37/86/26 38/87/26 40/88/26
f 40/89/27 38/90/27 36/91/27 35/92/27
usemtl m_1
f 37/93/28 33/94/28 36/95/28 38/96/28
f 34/97/29 39/98/29 40/99/29 35/83/29
f 34/97/30 33/94/30 37/100/30 39/85/30
o cube.004
v -0.656250 -0.250000 0.078125
v -1.312500 -0.250000 0.078125
v -1.312500 -0.000000 0.078125
v -0.656250 -0.000000 0.078125
v -0.656250 -0.250000 1.296875
v -0.656250 -0.000000 1.296875
v -1.312500 -0.250000 1.296875
v -1.312500 -0.000000 1.296875
vt 0.209961 0.416016
vt 0.209961 0.646484
vt 0.000000 0.646484
vt 0.000000 0.416016
vt 0.000000 0.416016
vt 0.485352 0.416016
vt 0.485352 0.646484
vt 0.000000 0.646484
vt 0.209961 0.416016
vt 0.209961 0.646484
vt 0.000000 0.416016
vt 0.000000 0.646484
vt 0.000000 0.416016
vt 0.485352 0.416016
vt 0.485352 0.646484
vt 0.485352 0.416016
vt 0.485352 0.646484
vt 0.000000 0.646484
vt 0.000000 0.416016
vt 0.000000 0.000000
vt 1.000000 0.000000
vt 1.000000 1.000000
vt 0.000000 1.000000
vn 0.0000 0.0000 -1.0000
vn 1.0000 0.0000 0.0000
vn 0.0000 0.0000 1.0000
vn 0.0000 1.0000 0.0000
vn 0.0000 -1.0000 -0.0000
vn -1.0000 0.0000 0.0000
usemtl m_3
s 1
f 41/101/31 42/102/31 43/103/31 44/104/31
f 45/105/32 41/106/32 44/107/32 46/108/32
f 47/109/33 45/110/33 46/108/33 48/111/33
f 48/112/34 46/113/34 44/114/34 43/115/34
f 42/116/35 41/117/35 45/118/35 47/119/35
usemtl m_1
f 42/120/36 47/121/36 48/122/36 43/123/36
o cube.005
v -0.656250 -0.250000 -1.234375
v -1.312500 -0.250000 -1.234375
v -1.312500 0.000000 -1.234375
v -0.656250 0.000000 -1.234375
v -0.656250 -0.250000 -0.015625
v -0.656250 0.000000 -0.015625
v -1.312500 -0.250000 -0.015625
v -1.312500 0.000000 -0.015625
vt 0.209961 0.416016
vt 0.209961 0.646484
vt 0.000000 0.646484
vt 0.000000 0.416016
vt 0.000000 0.416016
vt 0.485352 0.416016
vt 0.485352 0.646484
vt 0.000000 0.646484
vt 0.209961 0.416016
vt 0.209961 0.646484
vt 0.000000 0.416016
vt 0.000000 0.646484
vt 0.000000 0.416016
vt 0.485352 0.416016
vt 0.485352 0.646484
vt 0.485352 0.416016
vt 0.485352 0.646484
vt 0.000000 0.646484
vt 0.000000 0.416016
vt 0.000000 0.000000
vt 1.000000 0.000000
vt 1.000000 1.000000
vt 0.000000 1.000000
vn 0.0000 0.0000 -1.0000
vn 1.0000 0.0000 0.0000
vn 0.0000 -0.0000 1.0000
vn 0.0000 1.0000 0.0000
vn 0.0000 -1.0000 -0.0000
vn -1.0000 0.0000 0.0000
usemtl m_3
s 1
f 49/124/37 50/125/37 51/126/37 52/127/37
f 53/128/38 49/129/38 52/130/38 54/131/38
f 55/132/39 53/133/39 54/131/39 56/134/39
f 56/135/40 54/136/40 52/137/40 51/138/40
f 50/139/41 49/140/41 53/141/41 55/142/41
usemtl m_1
f 50/143/42 55/144/42 56/145/42 51/146/42
o cube.006
v 1.390625 -0.812500 -1.390625
v -0.656250 -0.812500 -1.390625
v -0.656250 -0.250000 -1.390625
v 1.390625 -0.250000 -1.390625
v 1.390625 -0.812500 1.390625
v 1.390625 -0.250000 1.390625
v -0.656250 -0.812500 1.390625
v -0.656250 -0.250000 1.390625
vt 0.250361 0.000000
vt 0.250361 1.000000
vt 0.000000 1.000000
vt 0.000000 0.000000
vt 0.000000 0.000000
vt 1.000000 0.000000
vt 1.000000 1.000000
vt 0.000000 1.000000
vt 0.250361 0.000000
vt 0.250361 1.000000
vt 0.000000 0.000000
vt 0.000000 0.000000
vt 1.000000 0.000000
vt 1.000000 1.000000
vt 1.000000 0.000000
vt 1.000000 1.000000
vt 0.000000 1.000000
vt 0.000000 0.000000
vt 1.000000 1.000000
vt 0.000000 1.000000
vn 0.0000 0.0000 -1.0000
vn 1.0000 0.0000 0.0000
vn 0.0000 -0.0000 1.0000
vn -1.0000 0.0000 0.0000
vn 0.0000 1.0000 0.0000
vn 0.0000 -1.0000 -0.0000
usemtl m_1
s 1
f 57/147/43 58/148/43 59/149/43 60/150/43
f 61/151/44 57/152/44 60/153/44 62/154/44
f 63/155/45 61/156/45 62/154/45 64/157/45
f 58/158/46 63/159/46 64/160/46 59/149/46
f 64/161/47 62/162/47 60/163/47 59/164/47
f 58/158/48 57/152/48 61/165/48 63/166/48
o cube.007
v 1.500000 -0.812500 -1.421875
v 1.421875 -0.812500 -1.421875
v 1.421875 -0.437500 -1.421875
v 1.500000 -0.437500 -1.421875
v 1.500000 -0.812500 1.421875
v 1.500000 -0.437500 1.421875
v 1.421875 -0.812500 1.421875
v 1.421875 -0.437500 1.421875
vt 0.000000 0.000000
vt 1.000000 0.000000
vt 1.000000 1.000000
vt 0.000000 1.000000
vt 0.000000 0.000000
vt 1.000000 0.000000
vt 1.000000 1.000000
vt 0.000000 1.000000
vt 0.000000 0.000000
vt 1.000000 0.000000
vt 1.000000 1.000000
vt 0.000000 1.000000
vt 0.000000 0.000000
vt 1.000000 0.000000
vt 1.000000 1.000000
vt 0.000000 1.000000
vt 0.000000 0.000000
vt 1.000000 0.000000
vt 1.000000 1.000000
vt 0.000000 1.000000
vn 0.0000 0.0000 -1.0000
vn 1.0000 0.0000 0.0000
vn 0.0000 0.0000 1.0000
vn -1.0000 0.0000 0.0000
vn 0.0000 1.0000 0.0000
vn 0.0000 -1.0000 -0.0000
usemtl m_0
s 1
f 65/167/49 66/168/49 67/169/49 68/170/49
f 69/171/50 65/172/50 68/173/50 70/174/50
f 71/175/51 69/176/51 70/177/51 72/178/51
f 66/179/52 71/180/52 72/181/52 67/182/52
f 72/183/53 70/184/53 68/173/53 67/182/53
f 66/179/54 65/172/54 69/185/54 71/186/54
o cube.008
v -1.343750 -0.812500 -1.500000
v -1.500000 -0.812500 -1.500000
v -1.500000 0.328125 -1.500000
v -1.343750 0.328125 -1.500000
v -1.343750 -0.812500 1.500000
v -1.343750 0.328125 1.500000
v -1.500000 -0.812500 1.500000
v -1.500000 0.328125 1.500000
vt 0.000000 0.000000
vt 1.000000 0.000000
vt 1.000000 1.000000
vt 0.000000 1.000000
vt 0.000000 0.000000
vt 1.000000 0.000000
vt 1.000000 1.000000
vt 0.000000 1.000000
vt 0.000000 0.000000
vt 1.000000 0.000000
vt 1.000000 1.000000
vt 0.000000 1.000000
vt 0.000000 0.000000
vt 1.000000 0.000000
vt 1.000000 1.000000
vt 0.000000 1.000000
vt 0.000000 0.000000
vt 1.000000 0.000000
vt 1.000000 1.000000
vt 0.000000 1.000000
vn 0.0000 0.0000 -1.0000
vn 1.0000 0.0000 0.0000
vn 0.0000 -0.0000 1.0000
vn -1.0000 0.0000 0.0000
vn 0.0000 1.0000 0.0000
vn 0.0000 -1.0000 -0.0000
usemtl m_0
s 1
f 73/187/55 74/188/55 75/189/55 76/190/55
f 77/191/56 73/192/56 76/193/56 78/194/56
f 79/195/57 77/196/57 78/197/57 80/198/57
f 74/199/58 79/200/58 80/201/58 75/202/58
f 80/203/59 78/204/59 76/193/59 75/202/59
f 74/199/60 73/192/60 77/205/60 79/206/60
o cube.009
v 1.500000 -0.953125 -1.500000
v -1.500000 -0.953125 -1.500000
v -1.500000 -0.875000 -1.500000
v 1.500000 -0.875000 -1.500000
v 1.500000 -0.953125 -1.109375
v 1.500000 -0.875000 -1.109375
v -1.500000 -0.953125 -1.109375
v -1.500000 -0.875000 -1.109375
vt 0.000000 0.000000
vt 1.000000 0.000000
vt 1.000000 1.000000
vt 0.000000 1.000000
vt 0.000000 0.000000
vt 1.000000 0.000000
vt 1.000000 1.000000
vt 0.000000 1.000000
vt 0.000000 0.000000
vt 1.000000 0.000000
vt 1.000000 1.000000
vt 0.000000 1.000000
vt 0.000000 0.000000
vt 1.000000 0.000000
vt 1.000000 1.000000
vt 0.000000 1.000000
vt 0.000000 0.000000
vt 1.000000 0.000000
vt 1.000000 1.000000
vt 0.000000 1.000000
vn 0.0000 0.0000 -1.0000
vn 1.0000 0.0000 0.0000
vn 0.0000 0.0000 1.0000
vn -1.0000 0.0000 0.0000
vn 0.0000 1.0000 0.0000
vn 0.0000 -1.0000 -0.0000
usemtl m_0
s 1
f 81/207/61 82/208/61 83/209/61 84/210/61
f 85/211/62 81/212/62 84/213/62 86/214/62
f 87/215/63 85/216/63 86/217/63 88/218/63
f 82/219/64 87/220/64 88/221/64 83/222/64
f 88/223/65 86/224/65 84/213/65 83/222/65
f 82/219/66 81/212/66 85/225/66 87/226/66
