# Blender v2.93.2 OBJ File: ''
# www.blender.org
mtllib bookshelf3.mtl
o cube.015
v 0.500000 0.343750 -0.500000
v -0.500000 0.343750 -0.500000
v -0.500000 0.500000 -0.500000
v 0.500000 0.500000 -0.500000
v 0.500000 0.343750 0.500000
v 0.500000 0.500000 0.500000
v -0.500000 0.343750 0.500000
v -0.500000 0.500000 0.500000
vt 0.000000 0.000000
vt 1.000000 0.000000
vt 1.000000 1.000000
vt 0.000000 1.000000
vt 0.000000 0.000000
vt 1.000000 0.000000
vt 1.000000 1.000000
vt 0.000000 1.000000
vt 0.000000 0.000000
vt 1.000000 0.000000
vt 1.000000 1.000000
vt 0.000000 1.000000
vt 0.000000 0.000000
vt 1.000000 0.000000
vt 1.000000 1.000000
vt 0.000000 1.000000
vt 0.000000 0.000000
vt 1.000000 0.000000
vt 1.000000 1.000000
vt 0.000000 1.000000
vn 0.0000 0.0000 -1.0000
vn 1.0000 0.0000 0.0000
vn 0.0000 0.0000 1.0000
vn -1.0000 0.0000 0.0000
vn 0.0000 1.0000 0.0000
vn 0.0000 -1.0000 -0.0000
usemtl m_6.002
s 1
f 1/1/1 2/2/1 3/3/1 4/4/1
f 5/5/2 1/6/2 4/7/2 6/8/2
f 7/9/3 5/10/3 6/11/3 8/12/3
f 2/13/4 7/14/4 8/15/4 3/16/4
f 8/17/5 6/18/5 4/7/5 3/16/5
usemtl m_15.001
f 2/19/6 1/20/6 5/5/6 7/14/6
o cube.016
v 0.500000 -0.343750 0.257812
v -0.500000 -0.343750 0.257812
v -0.500000 0.343750 0.257813
v 0.500000 0.343750 0.257813
v 0.500000 -0.343750 0.500000
v 0.500000 0.343750 0.500000
v -0.500000 -0.343750 0.500000
v -0.500000 0.343750 0.500000
vt 0.000000 0.000000
vt 1.000000 0.000000
vt 1.000000 1.000000
vt 0.000000 1.000000
vt 0.000000 0.000000
vt 1.000000 0.000000
vt 1.000000 1.000000
vt 0.000000 1.000000
vt 0.000000 0.000000
vt 1.000000 0.000000
vt 1.000000 1.000000
vt 0.000000 1.000000
vt 0.000000 0.000000
vt 1.000000 0.000000
vt 1.000000 1.000000
vt 0.000000 1.000000
vt 0.000000 0.000000
vt 1.000000 0.000000
vt 1.000000 1.000000
vt 0.000000 1.000000
vn 0.0000 0.0000 -1.0000
vn 1.0000 0.0000 0.0000
vn 0.0000 -0.0000 1.0000
vn -1.0000 0.0000 0.0000
vn 0.0000 1.0000 0.0000
vn 0.0000 -1.0000 -0.0000
usemtl m_6.002
s 1
f 9/21/7 10/22/7 11/23/7 12/24/7
f 13/25/8 9/26/8 12/27/8 14/28/8
f 15/29/9 13/30/9 14/31/9 16/32/9
f 10/33/10 15/34/10 16/35/10 11/36/10
f 16/37/11 14/38/11 12/27/11 11/36/11
f 10/33/12 9/26/12 13/39/12 15/40/12
o cube.017
v 0.500000 -0.500000 -0.500000
v -0.500000 -0.500000 -0.500000
v -0.500000 -0.343750 -0.500000
v 0.500000 -0.343750 -0.500000
v 0.500000 -0.500000 0.500000
v 0.500000 -0.343750 0.500000
v -0.500000 -0.500000 0.500000
v -0.500000 -0.343750 0.500000
vt 0.000000 0.000000
vt 1.000000 0.000000
vt 1.000000 1.000000
vt 0.000000 1.000000
vt 0.000000 0.000000
vt 1.000000 0.000000
vt 1.000000 1.000000
vt 0.000000 1.000000
vt 0.000000 0.000000
vt 1.000000 0.000000
vt 1.000000 1.000000
vt 0.000000 1.000000
vt 0.000000 0.000000
vt 1.000000 0.000000
vt 1.000000 1.000000
vt 0.000000 1.000000
vt 1.000000 1.000000
vt 0.000000 1.000000
vt 0.000000 0.000000
vt 1.000000 0.000000
vn 0.0000 0.0000 -1.0000
vn 1.0000 0.0000 0.0000
vn 0.0000 -0.0000 1.0000
vn -1.0000 0.0000 0.0000
vn 0.0000 -1.0000 -0.0000
vn 0.0000 1.0000 0.0000
usemtl m_6.002
s 1
f 17/41/13 18/42/13 19/43/13 20/44/13
f 21/45/14 17/46/14 20/47/14 22/48/14
f 23/49/15 21/50/15 22/51/15 24/52/15
f 18/53/16 23/54/16 24/55/16 19/56/16
f 18/53/17 17/46/17 21/57/17 23/58/17
usemtl m_15.001
f 24/59/18 22/60/18 20/47/18 19/56/18
o cube.018
v 0.484375 -0.343750 -0.255859
v 0.406250 -0.343750 -0.255859
v 0.406250 0.312500 -0.255859
v 0.484375 0.312500 -0.255859
v 0.484375 -0.343750 0.181641
v 0.484375 0.312500 0.181641
v 0.406250 -0.343750 0.181641
v 0.406250 0.312500 0.181641
vt 0.462317 0.000000
vt 0.537661 0.000000
vt 0.537661 1.000000
vt 0.462317 1.000000
vt 0.554740 0.000000
vt 1.000000 0.000000
vt 1.000000 1.000000
vt 0.554740 1.000000
vt 0.000000 0.000000
vt 0.445260 0.000000
vt 0.445260 1.000000
vt 0.000000 1.000000
vt 1.000000 0.000000
vt 1.000000 1.000000
vt 0.000000 1.000000
vt 0.000000 0.000000
vt 1.000000 0.000000
vt 1.000000 1.000000
vt 0.000000 1.000000
vt 0.000000 0.000000
vt 1.000000 0.000000
vt 1.000000 1.000000
vt 0.000000 1.000000
vt 0.000000 0.000000
vn 0.0000 0.0000 -1.0000
vn 1.0000 -0.0000 0.0000
vn -1.0000 0.0000 0.0000
vn 0.0000 -0.0000 1.0000
vn 0.0000 1.0000 0.0000
vn 0.0000 -1.0000 -0.0000
usemtl m_16.001
s 1
f 25/61/19 26/62/19 27/63/19 28/64/19
f 29/65/20 25/66/20 28/67/20 30/68/20
f 26/69/21 31/70/21 32/71/21 27/72/21
usemtl m_17.001
f 31/73/22 29/74/22 30/75/22 32/76/22
f 32/77/23 30/78/23 28/79/23 27/80/23
f 26/81/24 25/82/24 29/83/24 31/84/24
o cube.019
v -0.242188 -0.343750 -0.240234
v -0.359375 -0.343750 -0.240234
v -0.359375 0.312500 -0.240234
v -0.242188 0.312500 -0.240234
v -0.242188 -0.343750 0.244141
v -0.242188 0.312500 0.244141
v -0.359375 -0.343750 0.244141
v -0.359375 0.312500 0.244141
vt 0.443408 0.002207
vt 0.555614 0.002207
vt 0.555614 1.000000
vt 0.443408 1.000000
vt 0.000000 0.000000
vt 0.436891 0.000000
vt 0.436891 1.000000
vt 0.000000 1.000000
vt 0.563109 0.000000
vt 1.000000 0.000000
vt 1.000000 1.000000
vt 0.563109 1.000000
vt 1.000000 1.000000
vt 0.000000 0.000000
vt 1.000000 0.000000
vt 1.000000 1.000000
vt 0.000000 1.000000
vt 0.000000 0.000000
vt 1.000000 0.000000
vt 1.000000 1.000000
vt 0.000000 1.000000
vt 0.000000 0.000000
vn 0.0000 0.0000 -1.0000
vn 1.0000 0.0000 0.0000
vn -1.0000 0.0000 0.0000
vn 0.0000 -0.0000 1.0000
vn 0.0000 1.0000 0.0000
vn 0.0000 -1.0000 -0.0000
usemtl m_7.002
s 1
f 33/85/25 34/86/25 35/87/25 36/88/25
f 37/89/26 33/90/26 36/91/26 38/92/26
f 34/93/27 39/94/27 40/95/27 35/96/27
usemtl m_18.002
f 39/94/28 37/97/28 38/92/28 40/98/28
f 40/99/29 38/100/29 36/101/29 35/102/29
f 34/103/30 33/104/30 37/105/30 39/106/30
o cube.020
v -0.414062 -0.343750 -0.287109
v -0.484375 -0.343750 -0.287109
v -0.484375 0.312500 -0.287109
v -0.414062 0.312500 -0.287109
v -0.414062 -0.343750 0.166016
v -0.414062 0.312500 0.166016
v -0.484375 -0.343750 0.166016
v -0.484375 0.312500 0.166016
vt 0.794648 0.000000
vt 0.902322 0.000000
vt 0.902322 1.000000
vt 0.794648 1.000000
vt 0.096557 0.000000
vt 0.796997 0.000000
vt 0.796997 1.000000
vt 0.096557 1.000000
vt 0.150391 0.000000
vt 0.850830 0.000000
vt 0.850830 1.000000
vt 0.150391 1.000000
vt 1.000000 0.000000
vt 1.000000 1.000000
vt 0.000000 1.000000
vt 0.000000 0.000000
vt 1.000000 0.000000
vt 1.000000 1.000000
vt 0.000000 1.000000
vt 0.000000 0.000000
vt 1.000000 0.000000
vt 1.000000 1.000000
vt 0.000000 1.000000
vt 0.000000 0.000000
vn 0.0000 0.0000 -1.0000
vn -1.0000 -0.0000 0.0000
vn 1.0000 0.0000 0.0000
vn 0.0000 -0.0000 1.0000
vn 0.0000 1.0000 0.0000
vn 0.0000 -1.0000 -0.0000
usemtl m_9.001
s 1
f 41/107/31 42/108/31 43/109/31 44/110/31
f 42/111/32 47/112/32 48/113/32 43/114/32
usemtl m_10.001
f 45/115/33 41/116/33 44/117/33 46/118/33
usemtl m_17.001
f 47/119/34 45/120/34 46/121/34 48/122/34
f 48/123/35 46/124/35 44/125/35 43/126/35
f 42/127/36 41/128/36 45/129/36 47/130/36
o cube.021
v 0.390625 -0.343750 -0.224609
v 0.312500 -0.343750 -0.224609
v 0.312500 0.218750 -0.224609
v 0.390625 0.218750 -0.224609
v 0.390625 -0.343750 0.134766
v 0.390625 0.218750 0.134766
v 0.312500 -0.343750 0.134766
v 0.312500 0.218750 0.134766
vt 0.449776 0.000000
vt 0.548149 0.000000
vt 0.548149 1.000000
vt 0.449776 1.000000
vt 0.538305 0.000000
vt 1.000000 0.000000
vt 1.000000 1.000000
vt 0.538305 1.000000
vt 0.000000 0.000000
vt 0.461695 0.000000
vt 0.461695 1.000000
vt 0.000000 1.000000
vt 1.000000 0.000000
vt 1.000000 1.000000
vt 0.000000 1.000000
vt 0.000000 0.000000
vt 1.000000 0.000000
vt 1.000000 1.000000
vt 0.000000 1.000000
vt 0.000000 0.000000
vt 0.000000 1.000000
vn 0.0000 0.0000 -1.0000
vn 1.0000 0.0000 0.0000
vn -1.0000 0.0000 0.0000
vn 0.0000 -0.0000 1.0000
vn 0.0000 1.0000 0.0000
vn 0.0000 -1.0000 -0.0000
usemtl m_19.002
s 1
f 49/131/37 50/132/37 51/133/37 52/134/37
f 53/135/38 49/136/38 52/137/38 54/138/38
f 50/139/39 55/140/39 56/141/39 51/142/39
usemtl m_18.002
f 55/143/40 53/144/40 54/145/40 56/146/40
f 56/147/41 54/148/41 52/149/41 51/150/41
f 50/139/42 49/136/42 53/144/42 55/151/42
o cube.022
v -0.132812 -0.343750 -0.224609
v -0.210938 -0.343750 -0.224609
v -0.210938 0.218750 -0.224609
v -0.132812 0.218750 -0.224609
v -0.132812 -0.343750 0.134766
v -0.132812 0.218750 0.134766
v -0.210938 -0.343750 0.134766
v -0.210938 0.218750 0.134766
vt 0.449776 0.000000
vt 0.548149 0.000000
vt 0.548149 1.000000
vt 0.449776 1.000000
vt 0.538305 0.000000
vt 1.000000 0.000000
vt 1.000000 1.000000
vt 0.538305 1.000000
vt 0.000000 0.000000
vt 0.461695 0.000000
vt 0.461695 1.000000
vt 0.000000 1.000000
vt 1.000000 0.000000
vt 1.000000 1.000000
vt 0.000000 1.000000
vt 0.000000 0.000000
vt 1.000000 0.000000
vt 1.000000 1.000000
vt 0.000000 1.000000
vt 0.000000 0.000000
vt 0.000000 1.000000
vn 0.0000 0.0000 -1.0000
vn 1.0000 0.0000 0.0000
vn -1.0000 0.0000 0.0000
vn 0.0000 -0.0000 1.0000
vn 0.0000 1.0000 0.0000
vn 0.0000 -1.0000 -0.0000
usemtl m_19.002
s 1
f 57/152/43 58/153/43 59/154/43 60/155/43
f 61/156/44 57/157/44 60/158/44 62/159/44
f 58/160/45 63/161/45 64/162/45 59/163/45
usemtl m_18.002
f 63/164/46 61/165/46 62/166/46 64/167/46
f 64/168/47 62/169/47 60/170/47 59/171/47
f 58/160/48 57/157/48 61/165/48 63/172/48
o cube.023
v 0.296875 -0.343750 -0.255859
v 0.164062 -0.343750 -0.255859
v 0.164062 0.281250 -0.255859
v 0.296875 0.281250 -0.255859
v 0.296875 -0.343750 0.166016
v 0.296875 0.281250 0.166016
v 0.164062 -0.343750 0.166016
v 0.164062 0.281250 0.166016
vt 0.435026 0.005714
vt 0.564989 0.005714
vt 0.564989 0.991429
vt 0.435026 0.991429
vt 0.000000 0.000000
vt 0.416667 0.000000
vt 0.416667 1.000000
vt 0.000000 1.000000
vt 0.583333 0.000000
vt 1.000000 0.000000
vt 1.000000 1.000000
vt 0.583333 1.000000
vt 1.000000 1.000000
vt 0.000000 0.000000
vt 1.000000 0.000000
vt 1.000000 1.000000
vt 0.000000 1.000000
vt 0.000000 0.000000
vt 1.000000 0.000000
vt 1.000000 1.000000
vt 0.000000 1.000000
vt 0.000000 0.000000
vn 0.0000 0.0000 -1.0000
vn 1.0000 0.0000 0.0000
vn -1.0000 0.0000 0.0000
vn 0.0000 -0.0000 1.0000
vn 0.0000 1.0000 0.0000
vn 0.0000 -1.0000 -0.0000
usemtl m_8.002
s 1
f 65/173/49 66/174/49 67/175/49 68/176/49
f 69/177/50 65/178/50 68/179/50 70/180/50
f 66/181/51 71/182/51 72/183/51 67/184/51
usemtl m_18.002
f 71/182/52 69/185/52 70/180/52 72/186/52
f 72/187/53 70/188/53 68/189/53 67/190/53
f 66/191/54 65/192/54 69/193/54 71/194/54
o cube.024
v 0.031250 -0.343750 -0.255859
v -0.101562 -0.343750 -0.255859
v -0.101562 0.281250 -0.255859
v 0.031250 0.281250 -0.255859
v 0.031250 -0.343750 0.166016
v 0.031250 0.281250 0.166016
v -0.101562 -0.343750 0.166016
v -0.101562 0.281250 0.166016
vt 0.435026 0.005714
vt 0.564989 0.005714
vt 0.564989 0.991429
vt 0.435026 0.991429
vt 0.000000 0.000000
vt 0.416667 0.000000
vt 0.416667 1.000000
vt 0.000000 1.000000
vt 0.583333 0.000000
vt 1.000000 0.000000
vt 1.000000 1.000000
vt 0.583333 1.000000
vt 1.000000 1.000000
vt 0.000000 0.000000
vt 1.000000 0.000000
vt 1.000000 1.000000
vt 0.000000 1.000000
vt 0.000000 0.000000
vt 1.000000 0.000000
vt 1.000000 1.000000
vt 0.000000 1.000000
vt 0.000000 0.000000
vn 0.0000 0.0000 -1.0000
vn 1.0000 0.0000 0.0000
vn -1.0000 0.0000 0.0000
vn 0.0000 -0.0000 1.0000
vn 0.0000 1.0000 0.0000
vn 0.0000 -1.0000 -0.0000
usemtl m_8.002
s 1
f 73/195/55 74/196/55 75/197/55 76/198/55
f 77/199/56 73/200/56 76/201/56 78/202/56
f 74/203/57 79/204/57 80/205/57 75/206/57
usemtl m_18.002
f 79/204/58 77/207/58 78/202/58 80/208/58
f 80/209/59 78/210/59 76/211/59 75/212/59
f 74/213/60 73/214/60 77/215/60 79/216/60
o cube.025
v 0.140625 -0.343750 -0.271484
v 0.046875 -0.343750 -0.271484
v 0.046875 0.343750 -0.271484
v 0.140625 0.343750 -0.271484
v 0.140625 -0.343750 0.173828
v 0.140625 0.343750 0.173828
v 0.046875 -0.343750 0.173828
v 0.046875 0.343750 0.173828
vt 0.450341 0.000000
vt 0.550341 0.000000
vt 0.550341 1.000000
vt 0.450341 1.000000
vt 0.000000 0.000000
vt 0.446914 0.000000
vt 0.446914 1.000000
vt 0.000000 1.000000
vt 0.553086 0.000000
vt 1.000000 0.000000
vt 1.000000 1.000000
vt 0.553086 1.000000
vt 1.000000 1.000000
vt 0.000000 0.000000
vt 1.000000 0.000000
vt 1.000000 1.000000
vt 0.000000 1.000000
vt 0.000000 0.000000
vt 1.000000 0.000000
vt 1.000000 1.000000
vt 0.000000 1.000000
vt 0.000000 0.000000
vn 0.0000 0.0000 -1.0000
vn 1.0000 0.0000 0.0000
vn -1.0000 0.0000 0.0000
vn 0.0000 -0.0000 1.0000
vn 0.0000 1.0000 0.0000
vn 0.0000 -1.0000 -0.0000
usemtl m_20.002
s 1
f 81/217/61 82/218/61 83/219/61 84/220/61
f 85/221/62 81/222/62 84/223/62 86/224/62
f 82/225/63 87/226/63 88/227/63 83/228/63
usemtl m_18.002
f 87/226/64 85/229/64 86/224/64 88/230/64
f 88/231/65 86/232/65 84/233/65 83/234/65
f 82/235/66 81/236/66 85/237/66 87/238/66
