# Blender v2.93.2 OBJ File: ''
# www.blender.org
mtllib bookshelf2.mtl
o cube.008
v 0.500000 0.343750 -0.500000
v -0.500000 0.343750 -0.500000
v -0.500000 0.500000 -0.500000
v 0.500000 0.500000 -0.500000
v 0.500000 0.343750 0.500000
v 0.500000 0.500000 0.500000
v -0.500000 0.343750 0.500000
v -0.500000 0.500000 0.500000
vt 0.000000 0.000000
vt 1.000000 0.000000
vt 1.000000 1.000000
vt 0.000000 1.000000
vt 0.000000 0.000000
vt 1.000000 0.000000
vt 1.000000 1.000000
vt 0.000000 1.000000
vt 0.000000 0.000000
vt 1.000000 0.000000
vt 1.000000 1.000000
vt 0.000000 1.000000
vt 0.000000 0.000000
vt 1.000000 0.000000
vt 1.000000 1.000000
vt 0.000000 1.000000
vt 0.000000 0.000000
vt 1.000000 0.000000
vt 1.000000 1.000000
vt 0.000000 1.000000
vn 0.0000 0.0000 -1.0000
vn 1.0000 0.0000 0.0000
vn 0.0000 0.0000 1.0000
vn -1.0000 0.0000 0.0000
vn 0.0000 1.0000 0.0000
vn 0.0000 -1.0000 -0.0000
usemtl m_6.001
s 1
f 1/1/1 2/2/1 3/3/1 4/4/1
f 5/5/2 1/6/2 4/7/2 6/8/2
f 7/9/3 5/10/3 6/11/3 8/12/3
f 2/13/4 7/14/4 8/15/4 3/16/4
f 8/17/5 6/18/5 4/7/5 3/16/5
usemtl m_12
f 2/19/6 1/20/6 5/5/6 7/14/6
o cube.009
v 0.500000 -0.500000 -0.500000
v -0.500000 -0.500000 -0.500000
v -0.500000 -0.343750 -0.500000
v 0.500000 -0.343750 -0.500000
v 0.500000 -0.500000 0.500000
v 0.500000 -0.343750 0.500000
v -0.500000 -0.500000 0.500000
v -0.500000 -0.343750 0.500000
vt 0.000000 0.000000
vt 1.000000 0.000000
vt 1.000000 1.000000
vt 0.000000 1.000000
vt 0.000000 0.000000
vt 1.000000 0.000000
vt 1.000000 1.000000
vt 0.000000 1.000000
vt 0.000000 0.000000
vt 1.000000 0.000000
vt 1.000000 1.000000
vt 0.000000 1.000000
vt 0.000000 0.000000
vt 1.000000 0.000000
vt 1.000000 1.000000
vt 0.000000 1.000000
vt 1.000000 1.000000
vt 0.000000 1.000000
vt 0.000000 0.000000
vt 1.000000 0.000000
vn 0.0000 0.0000 -1.0000
vn 1.0000 0.0000 0.0000
vn 0.0000 -0.0000 1.0000
vn -1.0000 0.0000 0.0000
vn 0.0000 -1.0000 -0.0000
vn 0.0000 1.0000 0.0000
usemtl m_6.001
s 1
f 9/21/7 10/22/7 11/23/7 12/24/7
f 13/25/8 9/26/8 12/27/8 14/28/8
f 15/29/9 13/30/9 14/31/9 16/32/9
f 10/33/10 15/34/10 16/35/10 11/36/10
f 10/33/11 9/26/11 13/37/11 15/38/11
usemtl m_12
f 16/39/12 14/40/12 12/27/12 11/36/12
o cube.010
v -0.242188 -0.343750 -0.240234
v -0.359375 -0.343750 -0.240234
v -0.359375 0.312500 -0.240234
v -0.242188 0.312500 -0.240234
v -0.242188 -0.343750 0.244141
v -0.242188 0.312500 0.244141
v -0.359375 -0.343750 0.244141
v -0.359375 0.312500 0.244141
vt 0.443408 0.002207
vt 0.555614 0.002207
vt 0.555614 1.000000
vt 0.443408 1.000000
vt 0.000000 0.000000
vt 0.436891 0.000000
vt 0.436891 1.000000
vt 0.000000 1.000000
vt 0.563109 0.000000
vt 1.000000 0.000000
vt 1.000000 1.000000
vt 0.563109 1.000000
vt 1.000000 1.000000
vt 0.000000 0.000000
vt 1.000000 0.000000
vt 1.000000 1.000000
vt 0.000000 1.000000
vt 0.000000 0.000000
vt 1.000000 0.000000
vt 1.000000 1.000000
vt 0.000000 1.000000
vt 0.000000 0.000000
vn 0.0000 0.0000 -1.0000
vn 1.0000 0.0000 0.0000
vn -1.0000 0.0000 0.0000
vn 0.0000 -0.0000 1.0000
vn 0.0000 1.0000 0.0000
vn 0.0000 -1.0000 -0.0000
usemtl m_7.001
s 1
f 17/41/13 18/42/13 19/43/13 20/44/13
f 21/45/14 17/46/14 20/47/14 22/48/14
f 18/49/15 23/50/15 24/51/15 19/52/15
usemtl m_18.001
f 23/50/16 21/53/16 22/48/16 24/54/16
f 24/55/17 22/56/17 20/57/17 19/58/17
f 18/59/18 17/60/18 21/61/18 23/62/18
o cube.011
v 0.335938 -0.343750 -0.224609
v -0.226562 -0.343750 -0.224609
v -0.226562 -0.265625 -0.224609
v 0.335938 -0.265625 -0.224609
v 0.335938 -0.343750 0.134766
v 0.335938 -0.265625 0.134766
v -0.226562 -0.343750 0.134766
v -0.226562 -0.265625 0.134766
vt 0.449776 1.000000
vt 0.449776 0.000000
vt 0.548149 0.000000
vt 0.548149 1.000000
vt 0.461695 0.000000
vt 0.461695 1.000000
vt 0.000000 1.000000
vt 0.000000 0.000000
vt 1.000000 0.000000
vt 1.000000 1.000000
vt 0.538305 1.000000
vt 0.538305 0.000000
vt 1.000000 1.000000
vt 0.000000 1.000000
vt 0.000000 0.000000
vt 1.000000 0.000000
vt 1.000000 1.000000
vt 0.000000 1.000000
vt 0.000000 0.000000
vt 1.000000 0.000000
vt 0.000000 1.000000
vn 0.0000 0.0000 -1.0000
vn 0.0000 1.0000 0.0000
vn 0.0000 -1.0000 -0.0000
vn 1.0000 0.0000 0.0000
vn 0.0000 -0.0000 1.0000
vn -1.0000 0.0000 0.0000
usemtl m_19.001
s 1
f 25/63/19 26/64/19 27/65/19 28/66/19
f 32/67/20 30/68/20 28/69/20 27/70/20
f 26/71/21 25/72/21 29/73/21 31/74/21
usemtl m_18.001
f 29/75/22 25/76/22 28/77/22 30/78/22
f 31/79/23 29/80/23 30/81/23 32/82/23
f 26/71/24 31/79/24 32/83/24 27/70/24
o cube.012
v 0.476562 -0.343750 -0.255859
v 0.343750 -0.343750 -0.255859
v 0.343750 0.281250 -0.255859
v 0.476562 0.281250 -0.255859
v 0.476562 -0.343750 0.166016
v 0.476562 0.281250 0.166016
v 0.343750 -0.343750 0.166016
v 0.343750 0.281250 0.166016
vt 0.435026 0.005714
vt 0.564989 0.005714
vt 0.564989 0.991429
vt 0.435026 0.991429
vt 0.000000 0.000000
vt 0.416667 0.000000
vt 0.416667 1.000000
vt 0.000000 1.000000
vt 0.583333 0.000000
vt 1.000000 0.000000
vt 1.000000 1.000000
vt 0.583333 1.000000
vt 1.000000 1.000000
vt 0.000000 0.000000
vt 1.000000 0.000000
vt 1.000000 1.000000
vt 0.000000 1.000000
vt 0.000000 0.000000
vt 1.000000 0.000000
vt 1.000000 1.000000
vt 0.000000 1.000000
vt 0.000000 0.000000
vn 0.0000 0.0000 -1.0000
vn 1.0000 -0.0000 0.0000
vn -1.0000 0.0000 0.0000
vn 0.0000 -0.0000 1.0000
vn 0.0000 1.0000 0.0000
vn 0.0000 -1.0000 -0.0000
usemtl m_8.001
s 1
f 33/84/25 34/85/25 35/86/25 36/87/25
f 37/88/26 33/89/26 36/90/26 38/91/26
f 34/92/27 39/93/27 40/94/27 35/95/27
usemtl m_18.001
f 39/93/28 37/96/28 38/91/28 40/97/28
f 40/98/29 38/99/29 36/100/29 35/101/29
f 34/102/30 33/103/30 37/104/30 39/105/30
o cube.013
v -0.390625 -0.343750 -0.271484
v -0.484375 -0.343750 -0.271484
v -0.484375 0.343750 -0.271484
v -0.390625 0.343750 -0.271484
v -0.390625 -0.343750 0.173828
v -0.390625 0.343750 0.173828
v -0.484375 -0.343750 0.173828
v -0.484375 0.343750 0.173828
vt 0.450341 0.000000
vt 0.550341 0.000000
vt 0.550341 1.000000
vt 0.450341 1.000000
vt 0.000000 0.000000
vt 0.446914 0.000000
vt 0.446914 1.000000
vt 0.000000 1.000000
vt 0.553086 0.000000
vt 1.000000 0.000000
vt 1.000000 1.000000
vt 0.553086 1.000000
vt 1.000000 1.000000
vt 0.000000 0.000000
vt 1.000000 0.000000
vt 1.000000 1.000000
vt 0.000000 1.000000
vt 0.000000 0.000000
vt 1.000000 0.000000
vt 1.000000 1.000000
vt 0.000000 1.000000
vt 0.000000 0.000000
vn 0.0000 0.0000 -1.0000
vn 1.0000 0.0000 0.0000
vn -1.0000 0.0000 0.0000
vn 0.0000 -0.0000 1.0000
vn 0.0000 1.0000 0.0000
vn 0.0000 -1.0000 -0.0000
usemtl m_20.001
s 1
f 41/106/31 42/107/31 43/108/31 44/109/31
f 45/110/32 41/111/32 44/112/32 46/113/32
f 42/114/33 47/115/33 48/116/33 43/117/33
usemtl m_18.001
f 47/115/34 45/118/34 46/113/34 48/119/34
f 48/120/35 46/121/35 44/122/35 43/123/35
f 42/124/36 41/125/36 45/126/36 47/127/36
o cube.014
v 0.500000 -0.343750 0.257812
v -0.500000 -0.343750 0.257812
v -0.500000 0.343750 0.257813
v 0.500000 0.343750 0.257813
v 0.500000 -0.343750 0.500000
v 0.500000 0.343750 0.500000
v -0.500000 -0.343750 0.500000
v -0.500000 0.343750 0.500000
vt 0.000000 0.000000
vt 1.000000 0.000000
vt 1.000000 1.000000
vt 0.000000 1.000000
vt 0.000000 0.000000
vt 1.000000 0.000000
vt 1.000000 1.000000
vt 0.000000 1.000000
vt 0.000000 0.000000
vt 1.000000 0.000000
vt 1.000000 1.000000
vt 0.000000 1.000000
vt 0.000000 0.000000
vt 1.000000 0.000000
vt 1.000000 1.000000
vt 0.000000 1.000000
vt 0.000000 0.000000
vt 1.000000 0.000000
vt 1.000000 1.000000
vt 0.000000 1.000000
vn 0.0000 0.0000 -1.0000
vn 1.0000 0.0000 0.0000
vn 0.0000 -0.0000 1.0000
vn -1.0000 0.0000 0.0000
vn 0.0000 1.0000 0.0000
vn 0.0000 -1.0000 -0.0000
usemtl m_6.001
s 1
f 49/128/37 50/129/37 51/130/37 52/131/37
f 53/132/38 49/133/38 52/134/38 54/135/38
f 55/136/39 53/137/39 54/138/39 56/139/39
f 50/140/40 55/141/40 56/142/40 51/143/40
f 56/144/41 54/145/41 52/134/41 51/143/41
f 50/140/42 49/133/42 53/146/42 55/147/42
