# Blender v2.93.2 OBJ File: ''
# www.blender.org
mtllib clu_back_door.mtl
o cube
v 0.967200 -1.488506 -1.874753
v -0.967200 -1.488506 -1.874753
v -0.967200 -0.759328 -1.874753
v 0.967200 -0.759328 -1.874753
v 0.967200 -1.488506 -0.000000
v 0.967200 -0.759328 -0.000000
v -0.967200 -1.488506 -0.000000
v -0.967200 -0.759328 -0.000000
vt 0.000000 0.000000
vt 1.000000 0.000000
vt 1.000000 1.000000
vt 0.000000 1.000000
vt 0.000000 0.000000
vt 1.000000 0.000000
vt 1.000000 1.000000
vt 0.000000 1.000000
vt 0.000000 0.000000
vt 1.000000 0.000000
vt 1.000000 1.000000
vt 0.000000 1.000000
vt 0.000000 0.000000
vt 1.000000 0.000000
vt 1.000000 1.000000
vt 0.000000 1.000000
vt 0.000000 0.000000
vt 1.000000 0.000000
vt 1.000000 1.000000
vt 0.000000 1.000000
vn 0.0000 0.0000 -1.0000
vn 1.0000 0.0000 0.0000
vn 0.0000 -0.0000 1.0000
vn -1.0000 0.0000 0.0000
vn 0.0000 1.0000 0.0000
vn 0.0000 -1.0000 -0.0000
usemtl m_1
s 1
f 1/1/1 2/2/1 3/3/1 4/4/1
f 5/5/2 1/6/2 4/7/2 6/8/2
f 7/9/3 5/10/3 6/11/3 8/12/3
f 2/13/4 7/14/4 8/15/4 3/16/4
f 8/17/5 6/18/5 4/7/5 3/16/5
f 2/13/6 1/6/6 5/19/6 7/20/6
o cube.000
v 0.967200 -1.488506 -1.874754
v -0.967200 -1.488506 -1.874754
v -0.967200 1.233218 -3.002128
v 0.967200 1.233218 -3.002128
v 0.967200 -1.141508 -1.037026
v 0.967200 1.580217 -2.164401
v -0.967200 -1.141508 -1.037026
v -0.967200 1.580217 -2.164401
vt 0.000000 0.000000
vt 1.000000 0.000000
vt 1.000000 1.000000
vt 0.000000 1.000000
vt 0.000000 0.000000
vt 1.000000 0.000000
vt 1.000000 1.000000
vt 0.000000 1.000000
vt 0.000000 0.000000
vt 1.000000 0.000000
vt 1.000000 1.000000
vt 0.000000 1.000000
vt 0.000000 0.000000
vt 1.000000 0.000000
vt 1.000000 1.000000
vt 0.000000 1.000000
vt 0.000000 0.000000
vt 1.000000 0.000000
vt 1.000000 1.000000
vt 0.000000 1.000000
vn 0.0000 -0.3827 -0.9239
vn 1.0000 0.0000 0.0000
vn 0.0000 0.3827 0.9239
vn -1.0000 0.0000 0.0000
vn 0.0000 0.9239 -0.3827
vn 0.0000 -0.9239 0.3827
usemtl m_1
s 1
f 9/21/7 10/22/7 11/23/7 12/24/7
f 13/25/8 9/26/8 12/27/8 14/28/8
f 15/29/9 13/30/9 14/31/9 16/32/9
f 10/33/10 15/34/10 16/35/10 11/36/10
f 16/37/11 14/38/11 12/27/11 11/36/11
f 10/33/12 9/26/12 13/39/12 15/40/12
o cube.001
v 0.967200 3.228078 -1.874753
v -0.967200 3.228078 -1.874753
v -0.967200 3.957257 -1.874753
v 0.967200 3.957257 -1.874753
v 0.967200 3.228078 0.000001
v 0.967200 3.957256 0.000001
v -0.967200 3.228078 0.000001
v -0.967200 3.957256 0.000001
vt 0.000000 1.000000
vt 1.000000 1.000000
vt 1.000000 0.000000
vt 0.000000 0.000000
vt 0.000000 1.000000
vt 1.000000 1.000000
vt 1.000000 0.000000
vt 0.000000 0.000000
vt 0.000000 1.000000
vt 1.000000 1.000000
vt 1.000000 0.000000
vt 0.000000 0.000000
vt 0.000000 1.000000
vt 1.000000 1.000000
vt 1.000000 0.000000
vt 0.000000 0.000000
vt 0.000000 1.000000
vt 1.000000 1.000000
vt 1.000000 0.000000
vt 0.000000 0.000000
vn 0.0000 0.0000 -1.0000
vn 1.0000 0.0000 0.0000
vn 0.0000 -0.0000 1.0000
vn -1.0000 0.0000 0.0000
vn 0.0000 1.0000 0.0000
vn 0.0000 -1.0000 -0.0000
usemtl m_1
s 1
f 17/41/13 18/42/13 19/43/13 20/44/13
f 21/45/14 17/46/14 20/47/14 22/48/14
f 23/49/15 21/50/15 22/51/15 24/52/15
f 18/53/16 23/54/16 24/55/16 19/56/16
f 24/57/17 22/58/17 20/47/17 19/56/17
f 18/53/18 17/46/18 21/59/18 23/60/18
o cube.002
v 0.967200 1.235533 -3.002128
v -0.967200 1.235533 -3.002128
v -0.967200 3.957257 -1.874753
v 0.967200 3.957257 -1.874753
v 0.967200 0.888534 -2.164401
v 0.967200 3.610258 -1.037025
v -0.967200 0.888534 -2.164401
v -0.967200 3.610258 -1.037025
vt 0.000000 1.000000
vt 1.000000 1.000000
vt 1.000000 0.000000
vt 0.000000 0.000000
vt 0.000000 1.000000
vt 1.000000 1.000000
vt 1.000000 0.000000
vt 0.000000 0.000000
vt 0.000000 1.000000
vt 1.000000 1.000000
vt 1.000000 0.000000
vt 0.000000 0.000000
vt 0.000000 1.000000
vt 1.000000 1.000000
vt 1.000000 0.000000
vt 0.000000 0.000000
vt 0.000000 1.000000
vt 1.000000 1.000000
vt 1.000000 0.000000
vt 0.000000 0.000000
vn 0.0000 0.3827 -0.9239
vn 1.0000 0.0000 0.0000
vn 0.0000 -0.3827 0.9239
vn -1.0000 0.0000 0.0000
vn 0.0000 0.9239 0.3827
vn 0.0000 -0.9239 -0.3827
usemtl m_1
s 1
f 25/61/19 26/62/19 27/63/19 28/64/19
f 29/65/20 25/66/20 28/67/20 30/68/20
f 31/69/21 29/70/21 30/71/21 32/72/21
f 26/73/22 31/74/22 32/75/22 27/76/22
f 32/77/23 30/78/23 28/67/23 27/76/23
f 26/73/24 25/66/24 29/79/24 31/80/24
o cube.003
v 0.967200 0.888534 2.164401
v -0.967200 0.888534 2.164401
v -0.967200 3.610258 1.037026
v 0.967200 3.610258 1.037026
v 0.967200 1.235532 3.002129
v 0.967200 3.957256 1.874754
v -0.967200 1.235532 3.002129
v -0.967200 3.957256 1.874754
vt 1.000000 1.000000
vt 0.000000 1.000000
vt 0.000000 0.000000
vt 1.000000 0.000000
vt 1.000000 1.000000
vt 0.000000 1.000000
vt 0.000000 0.000000
vt 1.000000 0.000000
vt 1.000000 1.000000
vt 0.000000 1.000000
vt 0.000000 0.000000
vt 1.000000 0.000000
vt 1.000000 1.000000
vt 0.000000 1.000000
vt 0.000000 0.000000
vt 1.000000 0.000000
vt 1.000000 1.000000
vt 0.000000 1.000000
vt 0.000000 0.000000
vt 1.000000 0.000000
vn 0.0000 -0.3827 -0.9239
vn 1.0000 0.0000 0.0000
vn 0.0000 0.3827 0.9239
vn -1.0000 0.0000 0.0000
vn 0.0000 0.9239 -0.3827
vn 0.0000 -0.9239 0.3827
usemtl m_1
s 1
f 33/81/25 34/82/25 35/83/25 36/84/25
f 37/85/26 33/86/26 36/87/26 38/88/26
f 39/89/27 37/90/27 38/91/27 40/92/27
f 34/93/28 39/94/28 40/95/28 35/96/28
f 40/95/29 38/88/29 36/97/29 35/98/29
f 34/99/30 33/100/30 37/85/30 39/94/30
o cube.004
v 0.967200 3.228078 0.000001
v -0.967200 3.228078 0.000001
v -0.967200 3.957256 0.000001
v 0.967200 3.957256 0.000001
v 0.967200 3.228078 1.874754
v 0.967200 3.957256 1.874754
v -0.967200 3.228078 1.874754
v -0.967200 3.957256 1.874754
vt 1.000000 1.000000
vt 0.000000 1.000000
vt 0.000000 0.000000
vt 1.000000 0.000000
vt 1.000000 1.000000
vt 0.000000 1.000000
vt 0.000000 0.000000
vt 1.000000 0.000000
vt 1.000000 1.000000
vt 0.000000 1.000000
vt 0.000000 0.000000
vt 1.000000 0.000000
vt 1.000000 1.000000
vt 0.000000 1.000000
vt 0.000000 0.000000
vt 1.000000 0.000000
vt 1.000000 1.000000
vt 0.000000 1.000000
vt 0.000000 0.000000
vt 1.000000 0.000000
vn 0.0000 0.0000 -1.0000
vn 1.0000 0.0000 0.0000
vn 0.0000 -0.0000 1.0000
vn -1.0000 0.0000 0.0000
vn 0.0000 1.0000 0.0000
vn 0.0000 -1.0000 -0.0000
usemtl m_1
s 1
f 41/101/31 42/102/31 43/103/31 44/104/31
f 45/105/32 41/106/32 44/107/32 46/108/32
f 47/109/33 45/110/33 46/111/33 48/112/33
f 42/113/34 47/114/34 48/115/34 43/116/34
f 48/115/35 46/108/35 44/117/35 43/118/35
f 42/119/36 41/120/36 45/105/36 47/114/36
o cube.005
v 0.967200 -1.141508 1.037025
v -0.967200 -1.141508 1.037025
v -0.967200 1.580216 2.164401
v 0.967200 1.580216 2.164401
v 0.967200 -1.488507 1.874753
v 0.967200 1.233217 3.002129
v -0.967200 -1.488507 1.874753
v -0.967200 1.233217 3.002129
vt 1.000000 0.000000
vt 0.000000 0.000000
vt 0.000000 1.000000
vt 1.000000 1.000000
vt 1.000000 0.000000
vt 0.000000 0.000000
vt 0.000000 1.000000
vt 1.000000 1.000000
vt 1.000000 0.000000
vt 0.000000 0.000000
vt 0.000000 1.000000
vt 1.000000 1.000000
vt 1.000000 0.000000
vt 0.000000 0.000000
vt 0.000000 1.000000
vt 1.000000 1.000000
vt 1.000000 0.000000
vt 0.000000 0.000000
vt 0.000000 1.000000
vt 1.000000 1.000000
vn 0.0000 0.3827 -0.9239
vn 1.0000 0.0000 0.0000
vn 0.0000 -0.3827 0.9239
vn -1.0000 0.0000 0.0000
vn 0.0000 0.9239 0.3827
vn 0.0000 -0.9239 -0.3827
usemtl m_1
s 1
f 49/121/37 50/122/37 51/123/37 52/124/37
f 53/125/38 49/126/38 52/127/38 54/128/38
f 55/129/39 53/130/39 54/131/39 56/132/39
f 50/133/40 55/134/40 56/135/40 51/136/40
f 56/135/41 54/128/41 52/137/41 51/138/41
f 50/139/42 49/140/42 53/125/42 55/134/42
o cube.006
v 0.967200 -1.488506 -0.000000
v -0.967200 -1.488506 -0.000000
v -0.967200 -0.759328 -0.000000
v 0.967200 -0.759328 -0.000000
v 0.967200 -1.488507 1.874753
v 0.967200 -0.759328 1.874753
v -0.967200 -1.488507 1.874753
v -0.967200 -0.759328 1.874753
vt 1.000000 0.000000
vt 0.000000 0.000000
vt 0.000000 1.000000
vt 1.000000 1.000000
vt 1.000000 0.000000
vt 0.000000 0.000000
vt 0.000000 1.000000
vt 1.000000 1.000000
vt 1.000000 0.000000
vt 0.000000 0.000000
vt 0.000000 1.000000
vt 1.000000 1.000000
vt 1.000000 0.000000
vt 0.000000 0.000000
vt 0.000000 1.000000
vt 1.000000 1.000000
vt 1.000000 0.000000
vt 0.000000 0.000000
vt 0.000000 1.000000
vt 1.000000 1.000000
vn 0.0000 0.0000 -1.0000
vn 1.0000 0.0000 0.0000
vn 0.0000 -0.0000 1.0000
vn -1.0000 0.0000 0.0000
vn 0.0000 1.0000 0.0000
vn 0.0000 -1.0000 -0.0000
usemtl m_1
s 1
f 57/141/43 58/142/43 59/143/43 60/144/43
f 61/145/44 57/146/44 60/147/44 62/148/44
f 63/149/45 61/150/45 62/151/45 64/152/45
f 58/153/46 63/154/46 64/155/46 59/156/46
f 64/155/47 62/148/47 60/157/47 59/158/47
f 58/159/48 57/160/48 61/145/48 63/154/48
