# Blender v2.93.2 OBJ File: ''
# www.blender.org
mtllib clu_door.mtl
o leftbottom
v 0.691809 -1.488506 -0.044675
v -0.691809 -1.488506 -0.044675
v -0.691809 1.250000 -0.044675
v 0.691809 1.250000 -0.044675
v 0.691809 -1.488506 1.000000
v 0.691809 1.250000 1.000000
v -0.691809 -1.488506 1.000000
v -0.691809 1.250000 1.000000
vt 0.000000 0.000000
vt 1.000000 0.000000
vt 1.000000 1.000000
vt 0.000000 1.000000
vt 0.500000 0.000000
vt 0.839844 0.000000
vt 0.839844 0.657226
vt 0.500000 0.657226
vt 0.000000 0.352539
vt 0.253906 0.352539
vt 0.253906 0.000000
vt 0.000000 0.000000
vt 0.160156 0.000000
vt 0.500000 0.000000
vt 0.500000 0.657226
vt 0.160156 0.657226
vt 0.000000 -0.002930
vt 0.117188 -0.002930
vt 0.117188 0.270508
vt 0.000000 0.270508
vt 0.000000 -0.002930
vt 0.117188 -0.002930
vt 0.117188 0.270508
vt 0.000000 0.270508
vn 0.0000 0.0000 -1.0000
vn 1.0000 0.0000 0.0000
vn 0.0000 -0.0000 1.0000
vn -1.0000 0.0000 0.0000
vn 0.0000 1.0000 0.0000
vn 0.0000 -1.0000 -0.0000
usemtl m_1
s 1
f 1/1/1 2/2/1 3/3/1 4/4/1
usemtl m_3
f 5/5/2 1/6/2 4/7/2 6/8/2
f 7/9/3 5/10/3 6/11/3 8/12/3
f 2/13/4 7/14/4 8/15/4 3/16/4
f 8/17/5 6/18/5 4/19/5 3/20/5
f 2/21/6 1/22/6 5/23/6 7/24/6
o leftbottom2
v 0.691809 -0.816631 -0.575925
v -0.691809 -0.816631 -0.575925
v -0.691809 1.250000 -0.575925
v 0.691809 1.250000 -0.575925
v 0.691809 -0.816631 -0.044922
v 0.691809 1.250000 -0.044922
v -0.691809 -0.816631 -0.044922
v -0.691809 1.250000 -0.044922
vt 0.000000 -0.002930
vt 0.117188 -0.002930
vt 0.117188 0.506836
vt 0.000000 0.506836
vt 0.166016 0.150391
vt 0.000000 0.150391
vt 0.000000 0.648438
vt 0.166016 0.648438
vt 0.000000 0.150391
vt 0.166016 0.150391
vt 0.166016 0.648438
vt 0.000000 0.648438
vt 0.000000 0.270508
vt 0.117188 0.270508
vt 0.117188 0.333008
vt 0.000000 0.333008
vt 0.000000 0.000000
vt 1.000000 0.000000
vt 1.000000 1.000000
vt 0.000000 1.000000
vt 0.000000 0.000000
vt 1.000000 0.000000
vt 1.000000 1.000000
vt 0.000000 1.000000
vn 0.0000 0.0000 -1.0000
vn 1.0000 0.0000 0.0000
vn -1.0000 0.0000 0.0000
vn 0.0000 1.0000 0.0000
vn 0.0000 -0.0000 1.0000
vn 0.0000 -1.0000 -0.0000
usemtl m_3
s 1
f 9/25/7 10/26/7 11/27/7 12/28/7
f 13/29/8 9/30/8 12/31/8 14/32/8
f 10/33/9 15/34/9 16/35/9 11/36/9
f 16/37/10 14/38/10 12/39/10 11/40/10
usemtl m_1
f 15/41/11 13/42/11 14/43/11 16/44/11
f 10/45/12 9/46/12 13/47/12 15/48/12
o lefttop2
v 0.691809 1.250000 -0.575925
v -0.691809 1.250000 -0.575925
v -0.691809 2.670147 -0.575925
v 0.691809 2.670147 -0.575925
v 0.691809 1.250000 -0.044922
v 0.691809 2.670147 -0.044921
v -0.691809 1.250000 -0.044922
v -0.691809 2.670147 -0.044921
vt 0.274414 0.270508
vt 0.000000 0.270508
vt 0.000000 0.000000
vt 0.274414 0.000000
vt 0.838867 0.657226
vt 1.000000 0.657226
vt 1.000000 1.000000
vt 0.838867 1.000000
vt 0.000000 0.657226
vt 0.162109 0.657226
vt 0.162109 1.000000
vt 0.000000 1.000000
vt 0.117188 0.333008
vt 0.000000 0.333008
vt 0.000000 0.270508
vt 0.117188 0.270508
vt 1.000000 1.000000
vt 0.000000 1.000000
vt 0.000000 0.000000
vt 1.000000 0.000000
vt 1.000000 1.000000
vt 0.000000 1.000000
vt 0.000000 0.000000
vt 1.000000 0.000000
vn 0.0000 0.0000 -1.0000
vn 1.0000 0.0000 0.0000
vn -1.0000 0.0000 0.0000
vn 0.0000 -1.0000 -0.0000
vn 0.0000 -0.0000 1.0000
vn 0.0000 1.0000 0.0000
usemtl m_3
s 1
f 17/49/13 18/50/13 19/51/13 20/52/13
f 21/53/14 17/54/14 20/55/14 22/56/14
f 18/57/15 23/58/15 24/59/15 19/60/15
f 18/61/16 17/62/16 21/63/16 23/64/16
usemtl m_1
f 23/65/17 21/66/17 22/67/17 24/68/17
f 24/69/18 22/70/18 20/71/18 19/72/18
o lefttop
v 0.691809 1.250000 -0.044675
v -0.691809 1.250000 -0.044675
v -0.691809 2.728741 -0.044675
v 0.691809 2.728741 -0.044675
v 0.691809 1.250000 1.000000
v 0.691809 2.728740 1.000000
v -0.691809 1.250000 1.000000
v -0.691809 2.728740 1.000000
vt 1.000000 1.000000
vt 0.000000 1.000000
vt 0.000000 0.000000
vt 1.000000 0.000000
vt 0.500000 0.657226
vt 0.839844 0.657226
vt 0.839844 1.000000
vt 0.500000 1.000000
vt 0.348633 0.000000
vt 0.000000 0.000000
vt 0.000000 0.296875
vt 0.348633 0.296875
vt 0.160156 0.657226
vt 0.500000 0.657226
vt 0.500000 1.000000
vt 0.160156 1.000000
vt 0.117188 0.270508
vt 0.000000 0.270508
vt 0.000000 -0.002930
vt 0.117188 -0.002930
vt 0.117188 0.270508
vt 0.000000 0.270508
vt 0.000000 -0.002930
vt 0.117188 -0.002930
vn 0.0000 0.0000 -1.0000
vn 1.0000 0.0000 0.0000
vn 0.0000 -0.0000 1.0000
vn -1.0000 0.0000 0.0000
vn 0.0000 1.0000 0.0000
vn 0.0000 -1.0000 -0.0000
usemtl m_1
s 1
f 25/73/19 26/74/19 27/75/19 28/76/19
usemtl m_3
f 29/77/20 25/78/20 28/79/20 30/80/20
f 31/81/21 29/82/21 30/83/21 32/84/21
f 26/85/22 31/86/22 32/87/22 27/88/22
f 32/89/23 30/90/23 28/91/23 27/92/23
f 26/93/24 25/94/24 29/95/24 31/96/24
