# Blender v2.93.2 OBJ File: ''
# www.blender.org
mtllib clu_glow_wall.mtl
o octagon
v 0.500000 0.390625 -0.207107
v -0.500000 0.390625 -0.207107
v -0.500000 0.500000 -0.207107
v 0.500000 0.500000 -0.207107
v 0.500000 0.390625 0.207107
v 0.500000 0.500000 0.207107
v -0.500000 0.390625 0.207107
v -0.500000 0.500000 0.207107
vt 0.625000 0.406250
vt 0.625000 0.640625
vt 0.359375 0.640625
vt 0.359375 0.406250
vt 0.609375 0.062500
vt 0.609375 0.125000
vt 0.515625 0.125000
vt 0.515625 0.062500
vt 0.609375 0.062500
vt 0.609375 0.125000
vt 0.515625 0.125000
vt 0.515625 0.062500
vt 0.609375 0.062500
vt 0.609375 0.125000
vt 0.625000 0.406250
vt 0.625000 0.640625
vt 0.359375 0.640625
vt 0.359375 0.406250
vt 0.000000 1.000000
vt 0.000000 0.998047
vt 0.001953 0.998047
vt 0.001953 1.000000
vn 0.0000 0.0000 -1.0000
vn 1.0000 0.0000 0.0000
vn -1.0000 -0.0000 0.0000
vn 0.0000 1.0000 0.0000
vn 0.0000 -1.0000 -0.0000
vn 0.0000 -0.0000 1.0000
usemtl m_0
s 1
f 1/1/1 2/2/1 3/3/1 4/4/1
f 5/5/2 1/6/2 4/7/2 6/8/2
f 2/9/3 7/10/3 8/11/3 3/12/3
f 8/13/4 6/14/4 4/7/4 3/12/4
f 2/15/5 1/16/5 5/17/5 7/18/5
usemtl none
f 7/19/6 5/20/6 6/21/6 8/22/6
o octagon.000
v 0.500000 -0.500000 0.207107
v -0.500000 -0.500000 0.207107
v -0.500000 -0.422660 0.129767
v 0.500000 -0.422660 0.129767
v 0.500000 -0.207107 0.500000
v 0.500000 -0.129767 0.422660
v -0.500000 -0.207107 0.500000
v -0.500000 -0.129767 0.422660
vt 0.625000 0.406250
vt 0.625000 0.640625
vt 0.359375 0.640625
vt 0.359375 0.406250
vt 0.609375 0.062500
vt 0.609375 0.125000
vt 0.515625 0.125000
vt 0.515625 0.062500
vt 0.609375 0.062500
vt 0.609375 0.125000
vt 0.515625 0.125000
vt 0.515625 0.062500
vt 0.625000 0.406250
vt 0.625000 0.640625
vt 0.359375 0.640625
vt 0.359375 0.406250
vt 0.515625 0.125000
vt 0.515625 0.062500
vt 0.000000 1.000000
vt 0.000000 0.998047
vt 0.001953 0.998047
vt 0.001953 1.000000
vn 0.0000 -0.7071 -0.7071
vn 1.0000 -0.0000 0.0000
vn -1.0000 -0.0000 0.0000
vn 0.0000 0.7071 -0.7071
vn 0.0000 -0.7071 0.7071
vn 0.0000 0.7071 0.7071
usemtl m_0
s 1
f 9/23/7 10/24/7 11/25/7 12/26/7
f 13/27/8 9/28/8 12/29/8 14/30/8
f 10/31/9 15/32/9 16/33/9 11/34/9
f 16/35/10 14/36/10 12/37/10 11/38/10
f 10/31/11 9/28/11 13/39/11 15/40/11
usemtl none
f 15/41/12 13/42/12 14/43/12 16/44/12
o octagon.001
v 0.500000 -0.500000 -0.207107
v -0.500000 -0.500000 -0.207107
v -0.500000 -0.390625 -0.207107
v 0.500000 -0.390625 -0.207107
v 0.500000 -0.500000 0.207107
v 0.500000 -0.390625 0.207107
v -0.500000 -0.500000 0.207107
v -0.500000 -0.390625 0.207107
vt 0.625000 0.406250
vt 0.625000 0.640625
vt 0.359375 0.640625
vt 0.359375 0.406250
vt 0.609375 0.062500
vt 0.609375 0.125000
vt 0.515625 0.125000
vt 0.515625 0.062500
vt 0.609375 0.062500
vt 0.609375 0.125000
vt 0.515625 0.125000
vt 0.515625 0.062500
vt 0.625000 0.406250
vt 0.625000 0.640625
vt 0.359375 0.640625
vt 0.359375 0.406250
vt 0.515625 0.125000
vt 0.515625 0.062500
vt 0.000000 1.000000
vt 0.000000 0.998047
vt 0.001953 0.998047
vt 0.001953 1.000000
vn 0.0000 0.0000 -1.0000
vn 1.0000 0.0000 0.0000
vn -1.0000 -0.0000 0.0000
vn 0.0000 1.0000 0.0000
vn 0.0000 -1.0000 -0.0000
vn 0.0000 -0.0000 1.0000
usemtl m_0
s 1
f 17/45/13 18/46/13 19/47/13 20/48/13
f 21/49/14 17/50/14 20/51/14 22/52/14
f 18/53/15 23/54/15 24/55/15 19/56/15
f 24/57/16 22/58/16 20/59/16 19/60/16
f 18/53/17 17/50/17 21/61/17 23/62/17
usemtl none
f 23/63/18 21/64/18 22/65/18 24/66/18
o octagon.002
v 0.500000 0.129767 0.422660
v -0.500000 0.129767 0.422660
v -0.500000 0.422660 0.129767
v 0.500000 0.422660 0.129767
v 0.500000 0.207107 0.500000
v 0.500000 0.500000 0.207107
v -0.500000 0.207107 0.500000
v -0.500000 0.500000 0.207107
vt 0.625000 0.406250
vt 0.625000 0.640625
vt 0.359375 0.640625
vt 0.359375 0.406250
vt 0.609375 0.062500
vt 0.609375 0.125000
vt 0.515625 0.125000
vt 0.515625 0.062500
vt 0.609375 0.062500
vt 0.609375 0.125000
vt 0.515625 0.125000
vt 0.515625 0.062500
vt 0.609375 0.062500
vt 0.609375 0.125000
vt 0.515625 0.125000
vt 0.515625 0.062500
vt 0.000000 1.000000
vt 0.000000 0.998047
vt 0.001953 0.998047
vt 0.001953 1.000000
vt 0.000000 1.000000
vt 0.000000 0.998047
vt 0.001953 0.998047
vt 0.001953 1.000000
vn 0.0000 -0.7071 -0.7071
vn 1.0000 -0.0000 0.0000
vn 0.0000 0.7071 0.7071
vn -1.0000 -0.0000 0.0000
vn 0.0000 0.7071 -0.7071
vn 0.0000 -0.7071 0.7071
usemtl m_0
s 1
f 25/67/19 26/68/19 27/69/19 28/70/19
f 29/71/20 25/72/20 28/73/20 30/74/20
f 31/75/21 29/76/21 30/77/21 32/78/21
f 26/79/22 31/80/22 32/81/22 27/82/22
usemtl none
f 32/83/23 30/84/23 28/85/23 27/86/23
f 26/87/24 25/88/24 29/89/24 31/90/24
o octagon.003
v 0.500000 -0.207107 0.390625
v -0.500000 -0.207107 0.390625
v -0.500000 0.207107 0.390625
v 0.500000 0.207107 0.390625
v 0.500000 -0.207107 0.500000
v 0.500000 0.207107 0.500000
v -0.500000 -0.207107 0.500000
v -0.500000 0.207107 0.500000
vt 0.625000 0.406250
vt 0.625000 0.640625
vt 0.359375 0.640625
vt 0.359375 0.406250
vt 0.609375 0.062500
vt 0.609375 0.125000
vt 0.515625 0.125000
vt 0.515625 0.062500
vt 0.609375 0.062500
vt 0.609375 0.125000
vt 0.515625 0.125000
vt 0.515625 0.062500
vt 0.609375 0.062500
vt 0.609375 0.125000
vt 0.515625 0.125000
vt 0.515625 0.062500
vt 0.000000 1.000000
vt 0.000000 0.998047
vt 0.001953 0.998047
vt 0.001953 1.000000
vt 0.000000 1.000000
vt 0.000000 0.998047
vt 0.001953 0.998047
vt 0.001953 1.000000
vn 0.0000 0.0000 -1.0000
vn 1.0000 0.0000 0.0000
vn 0.0000 -0.0000 1.0000
vn -1.0000 0.0000 0.0000
vn 0.0000 1.0000 0.0000
vn 0.0000 -1.0000 -0.0000
usemtl m_0
s 1
f 33/91/25 34/92/25 35/93/25 36/94/25
f 37/95/26 33/96/26 36/97/26 38/98/26
f 39/99/27 37/100/27 38/101/27 40/102/27
f 34/103/28 39/104/28 40/105/28 35/106/28
usemtl none
f 40/107/29 38/108/29 36/109/29 35/110/29
f 34/111/30 33/112/30 37/113/30 39/114/30
o octagon.004
v 0.500000 -0.500076 0.500000
v -0.500000 -0.500076 0.500000
v -0.500000 0.500076 0.500000
v 0.500000 0.500076 0.500000
v 0.500000 -0.500076 0.500000
v 0.500000 0.500076 0.500000
v -0.500000 -0.500076 0.500000
v -0.500000 0.500076 0.500000
vt 0.658203 0.902832
vt 0.658203 1.000000
vt 0.392578 1.000000
vt 0.392578 0.902832
vt 0.609375 0.062500
vt 0.609375 0.125000
vt 0.515625 0.125000
vt 0.515625 0.062500
vt 0.609375 0.062500
vt 0.609375 0.125000
vt 0.515625 0.125000
vt 0.515625 0.062500
vt 0.609375 0.062500
vt 0.609375 0.125000
vt 0.515625 0.125000
vt 0.515625 0.062500
vt 0.000000 1.000000
vt 0.000000 0.998047
vt 0.001953 0.998047
vt 0.001953 1.000000
vt 0.000000 1.000000
vt 0.000000 0.998047
vt 0.001953 0.998047
vt 0.001953 1.000000
vn 0.0000 0.0000 -1.0000
vn 0.0000 0.0000 0.0000
vn 1.0000 0.0000 0.0000
vn 0.0000 -0.0000 1.0000
vn -1.0000 -0.0000 0.0000
vn -0.0000 1.0000 -0.0000
vn 0.0000 -1.0000 -0.0000
usemtl m_0
s 1
f 41/115/31 42/116/31 43/117/31 44/118/31
f 45/119/32 41/120/33 44/121/32 46/122/33
f 47/123/34 45/124/34 46/125/34 48/126/34
f 42/127/32 47/128/35 48/129/32 43/130/35
usemtl none
f 48/131/36 46/132/32 44/133/36 43/134/32
f 42/135/37 41/136/32 45/137/37 47/138/32
