# Blender v2.93.2 OBJ File: ''
# www.blender.org
mtllib flynn_lamp.mtl
o Sphere_Sphere.002
v 1.289123 0.318997 -0.553857
v 1.289123 0.356343 -0.494421
v 1.342926 0.356343 -0.480952
v 1.366438 0.318997 -0.534502
v 1.289123 0.269362 -0.603492
v 1.386072 0.269362 -0.579221
v 1.289123 0.209926 -0.640838
v 1.400846 0.209926 -0.612869
v 1.289123 0.143670 -0.664022
v 1.410017 0.143670 -0.633757
v 1.289123 0.074557 -0.671809
v 1.413097 0.074557 -0.640773
v 1.289123 0.379527 -0.428165
v 1.289123 0.387387 -0.358412
v 1.316717 0.379527 -0.421257
v 1.386072 0.356343 -0.443212
v 1.428439 0.318997 -0.480270
v 1.463819 0.269362 -0.511217
v 1.490440 0.209926 -0.534501
v 1.506966 0.143670 -0.548956
v 1.512516 0.074557 -0.553812
v 1.338844 0.379527 -0.401902
v 1.462847 0.318997 -0.401902
v 1.506966 0.269362 -0.412947
v 1.540161 0.209926 -0.421257
v 1.560768 0.143670 -0.426416
v 1.567690 0.074557 -0.428149
v 1.351125 0.379527 -0.373933
v 1.410017 0.356343 -0.388677
v 1.506966 0.269362 -0.303876
v 1.540161 0.209926 -0.295566
v 1.560768 0.143670 -0.290407
v 1.567690 0.074557 -0.288674
v 1.351125 0.379527 -0.342890
v 1.410017 0.356343 -0.328147
v 1.462847 0.318997 -0.314921
v 1.463819 0.269362 -0.205606
v 1.490440 0.209926 -0.182321
v 1.506966 0.143670 -0.167867
v 1.512516 0.074557 -0.163011
v 1.338844 0.379527 -0.314921
v 1.386072 0.356343 -0.273611
v 1.428439 0.318997 -0.236553
v 1.400846 0.209926 -0.103954
v 1.410017 0.143670 -0.083066
v 1.413097 0.074557 -0.076050
v 1.316717 0.379527 -0.295565
v 1.342926 0.356343 -0.235871
v 1.366438 0.318997 -0.182321
v 1.386072 0.269362 -0.137602
v 1.289123 0.209926 -0.075985
v 1.289123 0.143670 -0.052801
v 1.289123 0.074557 -0.045014
v 1.289123 0.379527 -0.288658
v 1.289123 0.356343 -0.222402
v 1.289123 0.318997 -0.162966
v 1.289123 0.269362 -0.113331
v 1.168230 0.143670 -0.083066
v 1.165150 0.074557 -0.076050
v 1.261530 0.379527 -0.295565
v 1.235321 0.356343 -0.235871
v 1.211809 0.318997 -0.182321
v 1.192175 0.269362 -0.137602
v 1.177401 0.209926 -0.103954
v 1.239402 0.379527 -0.314921
v 1.192175 0.356343 -0.273611
v 1.149808 0.318997 -0.236553
v 1.114428 0.269362 -0.205607
v 1.087807 0.209926 -0.182321
v 1.071281 0.143670 -0.167867
v 1.065730 0.074557 -0.163012
v 1.227122 0.379527 -0.342890
v 1.168230 0.356343 -0.328147
v 1.115400 0.318997 -0.314921
v 1.071281 0.269362 -0.303876
v 1.038086 0.209926 -0.295566
v 1.017479 0.143670 -0.290407
v 1.010557 0.074557 -0.288674
v 1.227122 0.379527 -0.373933
v 1.168230 0.356343 -0.388677
v 1.115400 0.318997 -0.401902
v 1.071281 0.269362 -0.412947
v 1.038086 0.209926 -0.421257
v 1.017479 0.143670 -0.426417
v 1.010557 0.074557 -0.428149
v 1.239402 0.379527 -0.401902
v 1.192175 0.356343 -0.443212
v 1.149808 0.318997 -0.480270
v 1.114428 0.269362 -0.511217
v 1.087807 0.209926 -0.534502
v 1.071281 0.143670 -0.548956
v 1.065730 0.074557 -0.553812
v 1.235321 0.356343 -0.480952
v 1.211809 0.318997 -0.534502
v 1.192175 0.269362 -0.579221
v 1.177401 0.209926 -0.612869
v 1.168230 0.143670 -0.633757
v 1.165150 0.074557 -0.640773
v 1.261530 0.379527 -0.421257
vt 0.714286 0.785714
vt 0.714286 0.857143
vt 0.642857 0.857143
vt 0.642857 0.785714
vt 0.714286 0.714286
vt 0.642857 0.714286
vt 0.714286 0.642857
vt 0.642857 0.642857
vt 0.714286 0.571429
vt 0.642857 0.571429
vt 0.714286 0.500656
vt 0.642857 0.500656
vt 0.714286 0.928571
vt 0.678571 1.000000
vt 0.642857 0.928571
vt 0.571429 0.857143
vt 0.571429 0.785714
vt 0.571429 0.714286
vt 0.571429 0.642857
vt 0.571429 0.571429
vt 0.571429 0.500656
vt 0.607143 1.000000
vt 0.571429 0.928571
vt 0.500000 0.785714
vt 0.500000 0.714286
vt 0.500000 0.642857
vt 0.500000 0.571429
vt 0.500000 0.500656
vt 0.535714 1.000000
vt 0.500000 0.928571
vt 0.500000 0.857143
vt 0.428571 0.714286
vt 0.428571 0.642857
vt 0.428571 0.571429
vt 0.428571 0.500656
vt 0.464286 1.000000
vt 0.428571 0.928571
vt 0.428571 0.857143
vt 0.428571 0.785714
vt 0.357143 0.714286
vt 0.357143 0.642857
vt 0.357143 0.571429
vt 0.357143 0.500656
vt 0.392857 1.000000
vt 0.357143 0.928571
vt 0.357143 0.857143
vt 0.357143 0.785714
vt 0.285714 0.642857
vt 0.285714 0.571429
vt 0.285714 0.500656
vt 0.321428 1.000000
vt 0.285714 0.928571
vt 0.285714 0.857143
vt 0.285714 0.785714
vt 0.285714 0.714286
vt 0.214286 0.642857
vt 0.214286 0.571429
vt 0.214286 0.500656
vt 0.250000 1.000000
vt 0.214286 0.928571
vt 0.214286 0.857143
vt 0.214286 0.785714
vt 0.214286 0.714286
vt 0.142857 0.571429
vt 0.142857 0.500656
vt 0.178571 1.000000
vt 0.142857 0.928571
vt 0.142857 0.857143
vt 0.142857 0.785714
vt 0.142857 0.714286
vt 0.142857 0.642857
vt 0.107143 1.000000
vt 0.071429 0.928571
vt 0.071429 0.857143
vt 0.071429 0.785714
vt 0.071429 0.714286
vt 0.071429 0.642857
vt 0.071429 0.571429
vt 0.071429 0.500656
vt 0.035714 1.000000
vt 0.000000 0.928571
vt 0.000000 0.857143
vt 0.000000 0.785714
vt 0.000000 0.714286
vt 0.000000 0.642857
vt 0.000000 0.571429
vt 0.000000 0.500656
vt 1.000000 0.928571
vt 0.964286 1.000000
vt 0.928571 0.928571
vt 1.000000 0.857143
vt 0.928571 0.857143
vt 1.000000 0.785714
vt 0.928571 0.785714
vt 1.000000 0.714286
vt 0.928571 0.714286
vt 1.000000 0.642857
vt 0.928571 0.642857
vt 1.000000 0.571429
vt 0.928571 0.571429
vt 1.000000 0.500656
vt 0.928571 0.500656
vt 0.857143 0.928571
vt 0.857143 0.857143
vt 0.857143 0.785714
vt 0.857143 0.714286
vt 0.857143 0.642857
vt 0.857143 0.571429
vt 0.857143 0.500656
vt 0.892857 1.000000
vt 0.785714 0.857143
vt 0.785714 0.785714
vt 0.785714 0.714286
vt 0.785714 0.642857
vt 0.785714 0.571429
vt 0.785714 0.500656
vt 0.821429 1.000000
vt 0.785714 0.928571
vt 0.750000 1.000000
vn 0.1320 0.8393 -0.5274
vn 0.1743 0.6963 -0.6963
vn 0.2074 0.5205 -0.8283
vn 0.2300 0.3214 -0.9186
vn 0.2414 0.1087 -0.9643
vn 0.0280 0.9933 -0.1119
vn 0.0824 0.9407 -0.3292
vn 0.3663 0.8310 -0.4187
vn 0.4800 0.6844 -0.5488
vn 0.5671 0.5080 -0.6483
vn 0.6255 0.3120 -0.7151
vn 0.6547 0.1052 -0.7485
vn 0.0785 0.9929 -0.0897
vn 0.2300 0.9370 -0.2629
vn 0.6795 0.6703 -0.2983
vn 0.7963 0.4936 -0.3496
vn 0.8731 0.3014 -0.3833
vn 0.9109 0.1013 -0.4000
vn 0.1133 0.9923 -0.0498
vn 0.3307 0.9325 -0.1452
vn 0.5229 0.8209 -0.2296
vn 0.8731 0.4876 0.0000
vn 0.9549 0.2970 0.0000
vn 0.9950 0.0997 0.0000
vn 0.1258 0.9921 0.0000
vn 0.3663 0.9305 0.0000
vn 0.5772 0.8166 0.0000
vn 0.7474 0.6644 0.0000
vn 0.7963 0.4936 0.3496
vn 0.8731 0.3014 0.3833
vn 0.9109 0.1013 0.4000
vn 0.1133 0.9923 0.0498
vn 0.3307 0.9325 0.1452
vn 0.5229 0.8209 0.2296
vn 0.6795 0.6703 0.2983
vn 0.6255 0.3120 0.7151
vn 0.6547 0.1052 0.7485
vn 0.0785 0.9929 0.0897
vn 0.2300 0.9370 0.2629
vn 0.3663 0.8310 0.4187
vn 0.4800 0.6844 0.5488
vn 0.5671 0.5080 0.6483
vn 0.2300 0.3214 0.9186
vn 0.2414 0.1087 0.9643
vn 0.0280 0.9933 0.1119
vn 0.0824 0.9407 0.3292
vn 0.1320 0.8393 0.5274
vn 0.1743 0.6963 0.6963
vn 0.2074 0.5205 0.8283
vn -0.2414 0.1087 0.9643
vn -0.0280 0.9933 0.1119
vn -0.0824 0.9407 0.3292
vn -0.1320 0.8393 0.5274
vn -0.1743 0.6963 0.6963
vn -0.2074 0.5205 0.8283
vn -0.2300 0.3214 0.9186
vn -0.0785 0.9929 0.0897
vn -0.2300 0.9370 0.2629
vn -0.3663 0.8310 0.4187
vn -0.4800 0.6844 0.5488
vn -0.5671 0.5080 0.6483
vn -0.6255 0.3120 0.7151
vn -0.6547 0.1052 0.7485
vn -0.1133 0.9923 0.0498
vn -0.3307 0.9325 0.1452
vn -0.5229 0.8209 0.2296
vn -0.6795 0.6703 0.2983
vn -0.7963 0.4936 0.3496
vn -0.8731 0.3014 0.3833
vn -0.9109 0.1013 0.4000
vn -0.1258 0.9921 -0.0000
vn -0.3663 0.9305 -0.0000
vn -0.5772 0.8166 0.0000
vn -0.7474 0.6644 0.0000
vn -0.8731 0.4876 0.0000
vn -0.9549 0.2970 0.0000
vn -0.9950 0.0997 0.0000
vn -0.3307 0.9325 -0.1452
vn -0.5229 0.8209 -0.2296
vn -0.6795 0.6703 -0.2983
vn -0.7963 0.4936 -0.3496
vn -0.8731 0.3014 -0.3833
vn -0.9109 0.1013 -0.4000
vn -0.1133 0.9923 -0.0498
vn -0.3663 0.8310 -0.4187
vn -0.4800 0.6844 -0.5488
vn -0.5671 0.5080 -0.6483
vn -0.6255 0.3120 -0.7151
vn -0.6547 0.1052 -0.7485
vn -0.0785 0.9929 -0.0897
vn -0.2300 0.9370 -0.2629
vn -0.1320 0.8393 -0.5274
vn -0.1743 0.6963 -0.6963
vn -0.2074 0.5205 -0.8283
vn -0.2300 0.3214 -0.9186
vn -0.2414 0.1087 -0.9643
vn -0.0280 0.9933 -0.1119
vn -0.0824 0.9407 -0.3292
usemtl m_1
s off
f 1/1/1 2/2/1 3/3/1 4/4/1
f 5/5/2 1/1/2 4/4/2 6/6/2
f 7/7/3 5/5/3 6/6/3 8/8/3
f 9/9/4 7/7/4 8/8/4 10/10/4
f 11/11/5 9/9/5 10/10/5 12/12/5
f 13/13/6 14/14/6 15/15/6
f 2/2/7 13/13/7 15/15/7 3/3/7
f 4/4/8 3/3/8 16/16/8 17/17/8
f 6/6/9 4/4/9 17/17/9 18/18/9
f 8/8/10 6/6/10 18/18/10 19/19/10
f 10/10/11 8/8/11 19/19/11 20/20/11
f 10/10/12 20/20/12 21/21/12 12/12/12
f 15/15/13 14/22/13 22/23/13
f 3/3/14 15/15/14 22/23/14 16/16/14
f 18/18/15 17/17/15 23/24/15 24/25/15
f 19/19/16 18/18/16 24/25/16 25/26/16
f 20/20/17 19/19/17 25/26/17 26/27/17
f 21/21/18 20/20/18 26/27/18 27/28/18
f 22/23/19 14/29/19 28/30/19
f 16/16/20 22/23/20 28/30/20 29/31/20
f 17/17/21 16/16/21 29/31/21 23/24/21
f 25/26/22 24/25/22 30/32/22 31/33/22
f 26/27/23 25/26/23 31/33/23 32/34/23
f 27/28/24 26/27/24 32/34/24 33/35/24
f 28/30/25 14/36/25 34/37/25
f 29/31/26 28/30/26 34/37/26 35/38/26
f 23/24/27 29/31/27 35/38/27 36/39/27
f 24/25/28 23/24/28 36/39/28 30/32/28
f 31/33/29 30/32/29 37/40/29 38/41/29
f 32/34/30 31/33/30 38/41/30 39/42/30
f 33/35/31 32/34/31 39/42/31 40/43/31
f 34/37/32 14/44/32 41/45/32
f 35/38/33 34/37/33 41/45/33 42/46/33
f 36/39/34 35/38/34 42/46/34 43/47/34
f 30/32/35 36/39/35 43/47/35 37/40/35
f 39/42/36 38/41/36 44/48/36 45/49/36
f 40/43/37 39/42/37 45/49/37 46/50/37
f 41/45/38 14/51/38 47/52/38
f 42/46/39 41/45/39 47/52/39 48/53/39
f 43/47/40 42/46/40 48/53/40 49/54/40
f 37/40/41 43/47/41 49/54/41 50/55/41
f 38/41/42 37/40/42 50/55/42 44/48/42
f 45/49/43 44/48/43 51/56/43 52/57/43
f 46/50/44 45/49/44 52/57/44 53/58/44
f 47/52/45 14/59/45 54/60/45
f 48/53/46 47/52/46 54/60/46 55/61/46
f 49/54/47 48/53/47 55/61/47 56/62/47
f 50/55/48 49/54/48 56/62/48 57/63/48
f 44/48/49 50/55/49 57/63/49 51/56/49
f 53/58/50 52/57/50 58/64/50 59/65/50
f 54/60/51 14/66/51 60/67/51
f 55/61/52 54/60/52 60/67/52 61/68/52
f 56/62/53 55/61/53 61/68/53 62/69/53
f 57/63/54 56/62/54 62/69/54 63/70/54
f 51/56/55 57/63/55 63/70/55 64/71/55
f 52/57/56 51/56/56 64/71/56 58/64/56
f 60/67/57 14/72/57 65/73/57
f 61/68/58 60/67/58 65/73/58 66/74/58
f 62/69/59 61/68/59 66/74/59 67/75/59
f 63/70/60 62/69/60 67/75/60 68/76/60
f 64/71/61 63/70/61 68/76/61 69/77/61
f 58/64/62 64/71/62 69/77/62 70/78/62
f 59/65/63 58/64/63 70/78/63 71/79/63
f 65/73/64 14/80/64 72/81/64
f 66/74/65 65/73/65 72/81/65 73/82/65
f 67/75/66 66/74/66 73/82/66 74/83/66
f 68/76/67 67/75/67 74/83/67 75/84/67
f 69/77/68 68/76/68 75/84/68 76/85/68
f 70/78/69 69/77/69 76/85/69 77/86/69
f 71/79/70 70/78/70 77/86/70 78/87/70
f 72/88/71 14/89/71 79/90/71
f 73/91/72 72/88/72 79/90/72 80/92/72
f 74/93/73 73/91/73 80/92/73 81/94/73
f 75/95/74 74/93/74 81/94/74 82/96/74
f 76/97/75 75/95/75 82/96/75 83/98/75
f 77/99/76 76/97/76 83/98/76 84/100/76
f 78/101/77 77/99/77 84/100/77 85/102/77
f 80/92/78 79/90/78 86/103/78 87/104/78
f 81/94/79 80/92/79 87/104/79 88/105/79
f 82/96/80 81/94/80 88/105/80 89/106/80
f 83/98/81 82/96/81 89/106/81 90/107/81
f 84/100/82 83/98/82 90/107/82 91/108/82
f 84/100/83 91/108/83 92/109/83 85/102/83
f 79/90/84 14/110/84 86/103/84
f 88/105/85 87/104/85 93/111/85 94/112/85
f 89/106/86 88/105/86 94/112/86 95/113/86
f 90/107/87 89/106/87 95/113/87 96/114/87
f 91/108/88 90/107/88 96/114/88 97/115/88
f 92/109/89 91/108/89 97/115/89 98/116/89
f 86/103/90 14/117/90 99/118/90
f 87/104/91 86/103/91 99/118/91 93/111/91
f 94/112/92 93/111/92 2/2/92 1/1/92
f 95/113/93 94/112/93 1/1/93 5/5/93
f 96/114/94 95/113/94 5/5/94 7/7/94
f 97/115/95 96/114/95 7/7/95 9/9/95
f 98/116/96 97/115/96 9/9/96 11/11/96
f 99/118/97 14/119/97 13/13/97
f 93/111/98 99/118/98 13/13/98 2/2/98
o Plane.002_Plane.009
v 1.165150 0.074406 -0.076050
v 1.165150 0.074406 -0.640773
v 1.289123 0.074406 -0.671809
v 1.289123 0.074406 -0.045014
vt 0.000000 0.000000
vt 0.000000 1.000000
vt 1.000000 1.000000
vt 1.000000 0.000000
vn 0.0000 -1.0000 -0.0000
usemtl m_2
s off
f 100/120/99 101/121/99 102/122/99 103/123/99
o Plane.009_Plane.010
v 1.010473 0.074406 -0.427748
v 1.512282 0.074406 -0.554133
v 1.567606 0.074406 -0.428550
v 1.010640 0.074406 -0.288273
vt 0.000000 0.000000
vt 0.000000 1.000000
vt 1.000000 1.000000
vt 1.000000 0.000000
vn -0.0000 -1.0000 -0.0000
usemtl m_2
s off
f 104/124/100 105/125/100 106/126/100 107/127/100
o Plane.010_Plane.011
v 1.065730 0.074406 -0.163012
v 1.289123 0.074406 -0.671809
v 1.413097 0.074406 -0.640773
v 1.165150 0.074406 -0.076050
vt 0.000000 0.000000
vt 0.000000 1.000000
vt 1.000000 1.000000
vt 1.000000 0.000000
vn -0.0000 -1.0000 -0.0000
usemtl m_2
s off
f 108/128/101 109/129/101 110/130/101 111/131/101
o Plane.011_Plane.012
v 1.010557 0.074406 -0.288673
v 1.413097 0.074406 -0.640773
v 1.512516 0.074406 -0.553812
v 1.065730 0.074406 -0.163011
vt 0.000000 0.000000
vt 0.000000 1.000000
vt 1.000000 1.000000
vt 1.000000 0.000000
vn -0.0000 -1.0000 -0.0000
usemtl m_2
s off
f 112/132/102 113/133/102 114/134/102 115/135/102
o Plane.012_Plane.013
v 1.165249 0.074406 -0.640826
v 1.567665 0.074406 -0.288556
v 1.512448 0.074406 -0.162917
v 1.065799 0.074713 -0.553802
vt 0.000000 0.000000
vt 0.000000 1.000000
vt 1.000000 1.000000
vt 1.000000 0.000000
vn -0.0010 -1.0000 0.0007
usemtl m_2
s 1
f 116/136/103 117/137/103 118/138/103 119/139/103
o Plane.013_Plane.014
v 1.065438 0.074406 -0.553787
v 1.567586 0.074406 -0.428650
v 1.567794 0.074406 -0.289176
v 1.010453 0.074406 -0.427648
vt 0.000000 0.000000
vt 0.000000 1.000000
vt 1.000000 1.000000
vt 1.000000 0.000000
vn -0.0000 -1.0000 -0.0000
usemtl m_2
s off
f 120/140/104 121/141/104 122/142/104 123/143/104
o Plane.014_Plane.015
v 1.412870 0.074406 -0.075930
v 1.010613 0.074406 -0.428419
v 1.065888 0.074406 -0.554028
v 1.512359 0.074406 -0.162795
vt 0.000000 0.000000
vt 0.000000 1.000000
vt 1.000000 1.000000
vt 1.000000 0.000000
vn 0.0000 -1.0000 -0.0000
usemtl m_2
s off
f 124/144/105 125/145/105 126/146/105 127/147/105
o Plane.015_Plane.016
v 1.289073 0.074550 -0.045015
v 1.065345 0.074406 -0.553281
v 1.164593 0.074406 -0.640478
v 1.413654 0.074406 -0.076345
vt 0.000000 0.000000
vt 0.000000 1.000000
vt 1.000000 1.000000
vt 1.000000 0.000000
vn -0.0005 -1.0000 0.0003
usemtl m_2
s off
f 128/148/106 129/149/106 130/150/106 131/151/106
o cube
v -1.089844 -1.498047 -0.500000
v -1.496094 -1.498047 -0.500000
v -1.496094 -0.701172 -0.500000
v -1.089844 -0.701172 -0.500000
v -1.089844 -1.498047 -0.218750
v -1.089844 -0.701172 -0.218750
v -1.496094 -1.498047 -0.218750
v -1.496094 -0.701172 -0.218750
vt 0.000000 0.000000
vt 1.000000 0.000000
vt 1.000000 1.000000
vt 0.000000 1.000000
vt 0.000000 0.000000
vt 1.000000 0.000000
vt 1.000000 1.000000
vt 0.000000 1.000000
vt 0.000000 0.000000
vt 1.000000 0.000000
vt 1.000000 1.000000
vt 0.000000 1.000000
vt 0.000000 0.000000
vt 1.000000 0.000000
vt 1.000000 1.000000
vt 0.000000 1.000000
vt 0.000000 0.000000
vt 1.000000 0.000000
vt 1.000000 1.000000
vt 0.000000 1.000000
vn 0.0000 0.0000 -1.0000
vn 1.0000 0.0000 0.0000
vn 0.0000 -0.0000 1.0000
vn -1.0000 0.0000 0.0000
vn 0.0000 1.0000 0.0000
vn 0.0000 -1.0000 -0.0000
usemtl m_2.001
s 1
f 132/152/107 133/153/107 134/154/107 135/155/107
f 136/156/108 132/157/108 135/158/108 137/159/108
f 138/160/109 136/161/109 137/162/109 139/163/109
f 133/164/110 138/165/110 139/166/110 134/167/110
f 139/168/111 137/169/111 135/158/111 134/167/111
f 133/164/112 132/157/112 136/170/112 138/171/112
o cube.000
v -1.433594 -0.701172 -0.390625
v -1.496094 -0.701172 -0.390625
v -1.496094 0.361328 -0.390625
v -1.433594 0.361328 -0.390625
v -1.433594 -0.701172 -0.328125
v -1.433594 0.361328 -0.328125
v -1.496094 -0.701172 -0.328125
v -1.496094 0.361328 -0.328125
vt 0.359375 0.101562
vt 0.625000 0.101562
vt 0.625000 0.437500
vt 0.359375 0.437500
vt 0.359375 0.101562
vt 0.625000 0.101562
vt 0.625000 0.437500
vt 0.359375 0.437500
vt 0.359375 0.101562
vt 0.625000 0.101562
vt 0.625000 0.437500
vt 0.359375 0.437500
vt 0.359375 0.101562
vt 0.625000 0.101562
vt 0.625000 0.437500
vt 0.359375 0.437500
vt 0.359375 0.101562
vt 0.625000 0.101562
vt 0.625000 0.437500
vt 0.359375 0.437500
vn 0.0000 0.0000 -1.0000
vn 1.0000 0.0000 0.0000
vn 0.0000 -0.0000 1.0000
vn -1.0000 0.0000 0.0000
vn 0.0000 1.0000 0.0000
vn 0.0000 -1.0000 0.0000
usemtl m_0
s 1
f 140/172/113 141/173/113 142/174/113 143/175/113
f 144/176/114 140/177/114 143/178/114 145/179/114
f 146/180/115 144/181/115 145/182/115 147/183/115
f 141/184/116 146/185/116 147/186/116 142/187/116
f 147/188/117 145/189/117 143/178/117 142/187/117
f 141/184/118 140/177/118 144/190/118 146/191/118
o cube.001
v -1.438351 0.337410 -0.390625
v -1.496094 0.361328 -0.390625
v -1.280834 0.881010 -0.390625
v -1.223092 0.857093 -0.390625
v -1.438351 0.337410 -0.328125
v -1.223092 0.857093 -0.328125
v -1.496094 0.361328 -0.328125
v -1.280834 0.881010 -0.328125
vt 0.359375 0.101562
vt 0.625000 0.101562
vt 0.625000 0.437500
vt 0.359375 0.437500
vt 0.359375 0.101562
vt 0.625000 0.101562
vt 0.625000 0.437500
vt 0.359375 0.437500
vt 0.359375 0.101562
vt 0.625000 0.101562
vt 0.625000 0.437500
vt 0.359375 0.437500
vt 0.359375 0.101562
vt 0.625000 0.101562
vt 0.625000 0.437500
vt 0.359375 0.437500
vt 0.359375 0.101562
vt 0.625000 0.101562
vt 0.625000 0.437500
vt 0.359375 0.437500
vn -0.0000 0.0000 -1.0000
vn 0.9239 -0.3827 0.0000
vn -0.0000 -0.0000 1.0000
vn -0.9239 0.3827 0.0000
vn 0.3827 0.9239 0.0000
vn -0.3827 -0.9239 0.0000
usemtl m_0
s 1
f 148/192/119 149/193/119 150/194/119 151/195/119
f 152/196/120 148/197/120 151/198/120 153/199/120
f 154/200/121 152/201/121 153/202/121 155/203/121
f 149/204/122 154/205/122 155/206/122 150/207/122
f 155/208/123 153/209/123 151/198/123 150/207/123
f 149/204/124 148/197/124 152/210/124 154/211/124
o cube.002
v -1.236640 0.836816 -0.390625
v -1.280834 0.881010 -0.390625
v -0.883086 1.278758 -0.390625
v -0.838892 1.234564 -0.390625
v -1.236640 0.836816 -0.328125
v -0.838892 1.234564 -0.328125
v -1.280834 0.881010 -0.328125
v -0.883086 1.278758 -0.328125
vt 0.359375 0.101562
vt 0.625000 0.101562
vt 0.625000 0.437500
vt 0.359375 0.437500
vt 0.359375 0.101562
vt 0.625000 0.101562
vt 0.625000 0.437500
vt 0.359375 0.437500
vt 0.359375 0.101562
vt 0.625000 0.101562
vt 0.625000 0.437500
vt 0.359375 0.437500
vt 0.359375 0.101562
vt 0.625000 0.101562
vt 0.625000 0.437500
vt 0.359375 0.437500
vt 0.359375 0.101562
vt 0.625000 0.101562
vt 0.625000 0.437500
vt 0.359375 0.437500
vn -0.0000 0.0000 -1.0000
vn 0.7071 -0.7071 0.0000
vn 0.0000 -0.0000 1.0000
vn -0.7071 0.7071 0.0000
vn 0.7071 0.7071 0.0000
vn -0.7071 -0.7071 0.0000
usemtl m_0
s 1
f 156/212/125 157/213/125 158/214/125 159/215/125
f 160/216/126 156/217/126 159/218/126 161/219/126
f 162/220/127 160/221/127 161/222/127 163/223/127
f 157/224/128 162/225/128 163/226/128 158/227/128
f 163/228/129 161/229/129 159/218/129 158/227/129
f 157/224/130 156/217/130 160/230/130 162/231/130
o cube.003
v -0.339487 1.436275 -0.390625
v -0.859169 1.221016 -0.390625
v -0.883087 1.278758 -0.390625
v -0.363404 1.494017 -0.390625
v -0.339487 1.436275 -0.328125
v -0.363404 1.494017 -0.328125
v -0.859169 1.221016 -0.328125
v -0.883087 1.278758 -0.328125
vt 0.359375 0.437500
vt 0.359375 0.101562
vt 0.625000 0.101562
vt 0.625000 0.437500
vt 0.359375 0.437500
vt 0.359375 0.101562
vt 0.625000 0.101562
vt 0.625000 0.437500
vt 0.359375 0.437500
vt 0.359375 0.101562
vt 0.625000 0.101562
vt 0.625000 0.437500
vt 0.359375 0.437500
vt 0.359375 0.101562
vt 0.625000 0.101562
vt 0.625000 0.437500
vt 0.359375 0.437500
vt 0.359375 0.101562
vt 0.625000 0.101562
vt 0.625000 0.437500
vn 0.0000 0.0000 -1.0000
vn 0.9239 0.3827 0.0000
vn 0.0000 -0.0000 1.0000
vn -0.9239 -0.3827 -0.0000
vn -0.3827 0.9239 0.0000
vn 0.3827 -0.9239 -0.0000
usemtl m_0
s 1
f 164/232/131 165/233/131 166/234/131 167/235/131
f 168/236/132 164/237/132 167/238/132 169/239/132
f 170/240/133 168/241/133 169/242/133 171/243/133
f 165/244/134 170/245/134 171/246/134 166/247/134
f 171/248/135 169/249/135 167/238/135 166/247/135
f 165/244/136 164/237/136 168/250/136 170/251/136
o cube.004
v 0.694860 1.221016 -0.390625
v 0.175178 1.436275 -0.390625
v 0.199096 1.494017 -0.390625
v 0.718778 1.278758 -0.390625
v 0.694860 1.221016 -0.328125
v 0.718778 1.278758 -0.328125
v 0.175178 1.436275 -0.328125
v 0.199096 1.494017 -0.328125
vt 0.359375 0.437500
vt 0.359375 0.101562
vt 0.625000 0.101562
vt 0.625000 0.437500
vt 0.359375 0.437500
vt 0.359375 0.101562
vt 0.625000 0.101562
vt 0.625000 0.437500
vt 0.359375 0.437500
vt 0.359375 0.101562
vt 0.625000 0.101562
vt 0.625000 0.437500
vt 0.359375 0.437500
vt 0.359375 0.101562
vt 0.625000 0.101562
vt 0.625000 0.437500
vt 0.359375 0.437500
vt 0.359375 0.101562
vt 0.625000 0.101562
vt 0.625000 0.437500
vn 0.0000 0.0000 -1.0000
vn 0.9239 -0.3827 -0.0000
vn 0.0000 -0.0000 1.0000
vn -0.9239 0.3827 0.0000
vn 0.3827 0.9239 0.0000
vn -0.3827 -0.9239 -0.0000
usemtl m_0
s 1
f 172/252/137 173/253/137 174/254/137 175/255/137
f 176/256/138 172/257/138 175/258/138 177/259/138
f 178/260/139 176/261/139 177/262/139 179/263/139
f 173/264/140 178/265/140 179/266/140 174/267/140
f 179/268/141 177/269/141 175/258/141 174/267/141
f 173/264/142 172/257/142 176/270/142 178/271/142
o cube.005
v 1.116525 0.881010 -0.390625
v 1.072331 0.836816 -0.390625
v 0.674584 1.234564 -0.390625
v 0.718778 1.278758 -0.390625
v 1.116525 0.881010 -0.328125
v 0.718778 1.278758 -0.328125
v 1.072331 0.836816 -0.328125
v 0.674584 1.234564 -0.328125
vt 0.359375 0.101562
vt 0.625000 0.101562
vt 0.625000 0.437500
vt 0.359375 0.437500
vt 0.359375 0.101562
vt 0.625000 0.101562
vt 0.625000 0.437500
vt 0.359375 0.437500
vt 0.359375 0.101562
vt 0.625000 0.101562
vt 0.625000 0.437500
vt 0.359375 0.437500
vt 0.359375 0.101562
vt 0.625000 0.101562
vt 0.625000 0.437500
vt 0.359375 0.437500
vt 0.359375 0.101562
vt 0.625000 0.101562
vt 0.625000 0.437500
vt 0.359375 0.437500
vn 0.0000 0.0000 -1.0000
vn 0.7071 0.7071 0.0000
vn -0.0000 -0.0000 1.0000
vn -0.7071 -0.7071 0.0000
vn -0.7071 0.7071 0.0000
vn 0.7071 -0.7071 0.0000
usemtl m_0
s 1
f 180/272/143 181/273/143 182/274/143 183/275/143
f 184/276/144 180/277/144 183/278/144 185/279/144
f 186/280/145 184/281/145 185/282/145 187/283/145
f 181/284/146 186/285/146 187/286/146 182/287/146
f 187/288/147 185/289/147 183/278/147 182/287/147
f 181/284/148 180/277/148 184/290/148 186/291/148
o cube.006
v 1.331784 0.361328 -0.390625
v 1.274042 0.337410 -0.390625
v 1.058783 0.857093 -0.390625
v 1.116525 0.881010 -0.390625
v 1.331784 0.361328 -0.328125
v 1.116525 0.881010 -0.328125
v 1.274042 0.337410 -0.328125
v 1.058783 0.857093 -0.328125
vt 0.359375 0.101562
vt 0.625000 0.101562
vt 0.625000 0.437500
vt 0.359375 0.437500
vt 0.359375 0.101562
vt 0.625000 0.101562
vt 0.625000 0.437500
vt 0.359375 0.437500
vt 0.359375 0.101562
vt 0.625000 0.101562
vt 0.625000 0.437500
vt 0.359375 0.437500
vt 0.359375 0.101562
vt 0.625000 0.101562
vt 0.625000 0.437500
vt 0.359375 0.437500
vt 0.359375 0.101562
vt 0.625000 0.101562
vt 0.625000 0.437500
vt 0.359375 0.437500
vn 0.0000 0.0000 -1.0000
vn 0.9239 0.3827 0.0000
vn 0.0000 -0.0000 1.0000
vn -0.9239 -0.3827 0.0000
vn -0.3827 0.9239 0.0000
vn 0.3827 -0.9239 0.0000
usemtl m_0
s 1
f 188/292/149 189/293/149 190/294/149 191/295/149
f 192/296/150 188/297/150 191/298/150 193/299/150
f 194/300/151 192/301/151 193/302/151 195/303/151
f 189/304/152 194/305/152 195/306/152 190/307/152
f 195/308/153 193/309/153 191/298/153 190/307/153
f 189/304/154 188/297/154 192/310/154 194/311/154
o cube.007
v 0.199096 1.431518 -0.390625
v -0.363404 1.431518 -0.390625
v -0.363404 1.494018 -0.390625
v 0.199096 1.494018 -0.390625
v 0.199096 1.431517 -0.328125
v 0.199096 1.494017 -0.328125
v -0.363404 1.431517 -0.328125
v -0.363404 1.494017 -0.328125
vt 0.359375 0.437500
vt 0.359375 0.101562
vt 0.625000 0.101562
vt 0.625000 0.437500
vt 0.359375 0.437500
vt 0.359375 0.101562
vt 0.625000 0.101562
vt 0.625000 0.437500
vt 0.359375 0.437500
vt 0.359375 0.101562
vt 0.625000 0.101562
vt 0.625000 0.437500
vt 0.359375 0.437500
vt 0.359375 0.101562
vt 0.625000 0.101562
vt 0.625000 0.437500
vt 0.359375 0.437500
vt 0.359375 0.101562
vt 0.625000 0.101562
vt 0.625000 0.437500
vn 0.0000 0.0000 -1.0000
vn 1.0000 0.0000 0.0000
vn 0.0000 0.0000 1.0000
vn -1.0000 0.0000 0.0000
vn 0.0000 1.0000 0.0000
vn 0.0000 -1.0000 -0.0000
usemtl m_0
s 1
f 196/312/155 197/313/155 198/314/155 199/315/155
f 200/316/156 196/317/156 199/318/156 201/319/156
f 202/320/157 200/321/157 201/322/157 203/323/157
f 197/324/158 202/325/158 203/326/158 198/327/158
f 203/328/159 201/329/159 199/318/159 198/327/159
f 197/324/160 196/317/160 200/330/160 202/331/160
