# Blender 3.1.0
# www.blender.org
mtllib flynns_bed.mtl
o cube
v 1.490234 -0.953125 1.107422
v -1.500000 -0.953125 1.107422
v -1.500000 -0.875000 1.107422
v 1.490234 -0.875000 1.107422
v 1.490234 -0.953125 1.498047
v 1.490234 -0.875000 1.498047
v -1.500000 -0.953125 1.498047
v -1.500000 -0.875000 1.498047
vn -0.0000 -0.0000 -1.0000
vn 1.0000 -0.0000 -0.0000
vn -0.0000 -0.0000 1.0000
vn -1.0000 -0.0000 -0.0000
vn -0.0000 1.0000 -0.0000
vn -0.0000 -1.0000 -0.0000
vt 1.000000 0.000000
vt 0.000000 0.000000
vt 1.000000 1.000000
vt 0.000000 0.000000
vt 1.000000 0.000000
vt 0.000000 1.000000
vt 0.000000 1.000000
vt 1.000000 1.000000
vt 0.000000 0.000000
vt 1.000000 1.000000
vt 0.000000 1.000000
vt 1.000000 0.000000
vt 0.000000 0.000000
vt 1.000000 0.000000
vt 0.000000 1.000000
vt 1.000000 1.000000
vt 1.000000 0.000000
vt 0.000000 0.000000
vt 1.000000 1.000000
vt 0.000000 1.000000
s 1
usemtl m_0
f 1/1/1 2/4/1 3/7/1 4/10/1
f 5/14/2 1/2/2 4/11/2 6/16/2
f 7/17/3 5/13/3 6/15/3 8/19/3
f 2/5/4 7/18/4 8/20/4 3/8/4
f 8/20/5 6/16/5 4/12/5 3/9/5
f 2/6/6 1/3/6 5/14/6 7/18/6
o cube.000
v 1.500000 -0.810547 -1.496094
v -1.343750 -0.810547 -1.496094
v -1.343750 -0.435547 -1.496094
v 1.500000 -0.435547 -1.496094
v 1.500000 -0.810547 -1.414063
v 1.500000 -0.435547 -1.414063
v -1.343750 -0.810547 -1.414063
v -1.343750 -0.435547 -1.414063
vn -0.0000 -0.0000 -1.0000
vn 1.0000 -0.0000 -0.0000
vn -0.0000 -0.0000 1.0000
vn -1.0000 -0.0000 -0.0000
vn -0.0000 1.0000 -0.0000
vn -0.0000 -1.0000 -0.0000
vt 0.000000 0.000000
vt 1.000000 0.000000
vt 1.000000 0.000000
vt 0.000000 0.000000
vt 1.000000 1.000000
vt 0.000000 1.000000
vt 0.000000 1.000000
vt 1.000000 1.000000
vt 0.000000 0.000000
vt 1.000000 0.000000
vt 1.000000 1.000000
vt 0.000000 1.000000
vt 1.000000 1.000000
vt 1.000000 0.000000
vt 0.000000 0.000000
vt 1.000000 0.000000
vt 0.000000 1.000000
vt 0.000000 1.000000
vt 1.000000 1.000000
vt 0.000000 0.000000
s 1
usemtl m_0
f 9/21/7 10/23/7 11/25/7 12/27/7
f 13/29/8 9/22/8 12/28/8 14/32/8
f 15/35/9 13/30/9 14/33/9 16/38/9
f 10/24/10 15/36/10 16/39/10 11/26/10
f 16/40/11 14/34/11 12/28/11 11/26/11
f 10/24/12 9/22/12 13/31/12 15/37/12
o cube.001
v 1.500000 -0.812500 1.419922
v -1.343750 -0.812500 1.419922
v -1.343750 -0.437500 1.419922
v 1.500000 -0.437500 1.419922
v 1.500000 -0.812500 1.498047
v 1.500000 -0.437500 1.498047
v -1.343750 -0.812500 1.498047
v -1.343750 -0.437500 1.498047
vn -0.0000 -0.0000 -1.0000
vn 1.0000 -0.0000 -0.0000
vn -0.0000 -0.0000 1.0000
vn -1.0000 -0.0000 -0.0000
vn -0.0000 1.0000 -0.0000
vn -0.0000 -1.0000 -0.0000
vt 0.000000 0.000000
vt 1.000000 0.000000
vt 1.000000 0.000000
vt 0.000000 0.000000
vt 1.000000 1.000000
vt 0.000000 1.000000
vt 0.000000 1.000000
vt 1.000000 1.000000
vt 0.000000 0.000000
vt 1.000000 0.000000
vt 1.000000 1.000000
vt 0.000000 1.000000
vt 1.000000 1.000000
vt 1.000000 0.000000
vt 0.000000 0.000000
vt 1.000000 0.000000
vt 0.000000 1.000000
vt 0.000000 1.000000
vt 1.000000 1.000000
vt 0.000000 0.000000
s 1
usemtl m_0
f 17/41/13 18/43/13 19/45/13 20/47/13
f 21/49/14 17/42/14 20/48/14 22/52/14
f 23/55/15 21/50/15 22/53/15 24/58/15
f 18/44/16 23/56/16 24/59/16 19/46/16
f 24/60/17 22/54/17 20/48/17 19/46/17
f 18/44/18 17/42/18 21/51/18 23/57/18
o cube.002
v 1.494141 -0.875000 -1.496094
v -1.500000 -0.875000 -1.496094
v -1.500000 -0.812500 -1.496094
v 1.494141 -0.812500 -1.496094
v 1.494141 -0.875000 1.496094
v 1.494141 -0.812500 1.496094
v -1.500000 -0.875000 1.496094
v -1.500000 -0.812500 1.496094
vn -0.0000 -0.0000 -1.0000
vn 1.0000 -0.0000 -0.0000
vn -0.0000 -0.0000 1.0000
vn -1.0000 -0.0000 -0.0000
vn -0.0000 1.0000 -0.0000
vn -0.0000 -1.0000 -0.0000
vt 0.000000 0.000000
vt 1.000000 0.000000
vt 1.000000 0.000000
vt 0.000000 0.000000
vt 1.000000 1.000000
vt 0.000000 1.000000
vt 0.000000 1.000000
vt 1.000000 1.000000
vt 0.000000 0.000000
vt 1.000000 0.000000
vt 1.000000 1.000000
vt 0.000000 1.000000
vt 1.000000 1.000000
vt 1.000000 0.000000
vt 0.000000 0.000000
vt 1.000000 0.000000
vt 0.000000 1.000000
vt 0.000000 1.000000
vt 1.000000 1.000000
vt 0.000000 0.000000
s 1
usemtl m_0
f 25/61/19 26/63/19 27/65/19 28/67/19
f 29/69/20 25/62/20 28/68/20 30/72/20
f 31/75/21 29/70/21 30/73/21 32/78/21
f 26/64/22 31/76/22 32/79/22 27/66/22
f 32/80/23 30/74/23 28/68/23 27/66/23
f 26/64/24 25/62/24 29/71/24 31/77/24
o cube.003
v -0.656250 -0.812500 -1.390625
v -1.312500 -0.812500 -1.390625
v -1.312500 -0.250000 -1.390625
v -0.656250 -0.250000 -1.390625
v -0.656250 -0.812500 1.390625
v -0.656250 -0.250000 1.390625
v -1.312500 -0.812500 1.390625
v -1.312500 -0.250000 1.390625
vn -0.0000 -0.0000 -1.0000
vn 1.0000 -0.0000 -0.0000
vn -0.0000 -0.0000 1.0000
vn -1.0000 -0.0000 -0.0000
vn -0.0000 1.0000 -0.0000
vn -0.0000 -1.0000 -0.0000
vt 0.504883 0.763672
vt 1.000000 0.000000
vt 0.504883 1.000000
vt 0.000000 0.000000
vt 0.000000 1.000000
vt 1.000000 1.000000
vt 0.000000 0.763672
vt 1.000000 1.000000
vt 1.000000 0.763672
vt 0.000000 0.000000
vt 0.000000 0.763672
vt 1.000000 1.000000
vt 0.000000 1.000000
vt 0.504883 0.763672
vt 0.000000 0.763672
vt 1.000000 0.000000
vt 0.000000 1.000000
vt 0.504883 1.000000
vt 1.000000 1.000000
vt 0.000000 1.000000
s 1
usemtl m_3
f 33/81/25 34/83/25 35/85/25 36/87/25
usemtl m_1
f 37/90/26 33/82/26 36/88/26 38/93/26
usemtl m_3
f 39/97/27 37/91/27 38/94/27 40/98/27
usemtl m_1
f 34/84/28 39/96/28 40/99/28 35/85/28
usemtl m_3
f 40/100/29 38/95/29 36/89/29 35/86/29
usemtl m_1
f 34/84/30 33/82/30 37/92/30 39/97/30
o cube.004
v -0.656250 -0.250000 0.078125
v -1.312500 -0.250000 0.078125
v -1.312500 -0.000000 0.078125
v -0.656250 -0.000000 0.078125
v -0.656250 -0.250000 1.296875
v -0.656250 -0.000000 1.296875
v -1.312500 -0.250000 1.296875
v -1.312500 -0.000000 1.296875
vn -0.0000 -0.0000 -1.0000
vn 1.0000 -0.0000 -0.0000
vn -0.0000 -0.0000 1.0000
vn -1.0000 -0.0000 -0.0000
vn -0.0000 1.0000 -0.0000
vn -0.0000 -1.0000 -0.0000
vt 0.209961 0.416016
vt 0.485352 0.416016
vt 0.485352 0.646484
vt 0.209961 0.646484
vt 0.000000 0.501953
vt 0.485352 0.416016
vt 0.000000 0.646484
vt 0.000000 1.000000
vt 0.485352 0.646484
vt 0.000000 0.416016
vt 0.485352 0.646484
vt 0.485352 0.416016
vt 0.000000 0.416016
vt 0.209961 0.646484
vt 0.000000 0.646484
vt 0.000000 0.646484
vt 0.000000 0.416016
vt 0.209961 0.416016
vt 1.000000 0.501953
vt 0.000000 0.416016
vt 0.000000 0.416016
vt 1.000000 1.000000
vt 0.000000 0.646484
s 1
usemtl m_3
f 41/101/31 42/104/31 43/107/31 44/110/31
f 45/113/32 41/102/32 44/111/32 46/116/32
f 47/118/33 45/114/33 46/116/33 48/121/33
f 42/105/34 47/119/34 48/122/34 43/108/34
f 48/123/35 46/117/35 44/112/35 43/109/35
f 42/106/36 41/103/36 45/115/36 47/120/36
o cube.005
v -0.656250 -0.250000 -1.234375
v -1.312500 -0.250000 -1.234375
v -1.312500 0.000000 -1.234375
v -0.656250 0.000000 -1.234375
v -0.656250 -0.250000 -0.015625
v -0.656250 0.000000 -0.015625
v -1.312500 -0.250000 -0.015625
v -1.312500 0.000000 -0.015625
vn -0.0000 -0.0000 -1.0000
vn 1.0000 -0.0000 -0.0000
vn -0.0000 -0.0000 1.0000
vn -1.0000 -0.0000 -0.0000
vn -0.0000 1.0000 -0.0000
vn -0.0000 -1.0000 -0.0000
vt 0.209961 0.416016
vt 0.485352 0.416016
vt 0.485352 0.646484
vt 0.209961 0.646484
vt 0.000000 0.501953
vt 0.485352 0.416016
vt 0.000000 0.646484
vt 0.000000 1.000000
vt 0.485352 0.646484
vt 0.000000 0.416016
vt 0.485352 0.646484
vt 0.485352 0.416016
vt 0.000000 0.416016
vt 0.209961 0.646484
vt 0.000000 0.646484
vt 0.000000 0.646484
vt 0.000000 0.416016
vt 0.209961 0.416016
vt 1.000000 0.501953
vt 0.000000 0.416016
vt 0.000000 0.416016
vt 1.000000 1.000000
vt 0.000000 0.646484
s 1
usemtl m_3
f 49/124/37 50/127/37 51/130/37 52/133/37
f 53/136/38 49/125/38 52/134/38 54/139/38
f 55/141/39 53/137/39 54/139/39 56/144/39
f 50/128/40 55/142/40 56/145/40 51/131/40
f 56/146/41 54/140/41 52/135/41 51/132/41
f 50/129/42 49/126/42 53/138/42 55/143/42
o cube.006
v -0.403325 -0.243121 -1.500000
v -0.867364 0.220918 -1.500000
v -0.690587 0.397694 -1.500000
v -0.226549 -0.066344 -1.500000
v -0.403325 -0.243121 -0.015625
v -0.226549 -0.066345 -0.015625
v -0.867364 0.220917 -0.015625
v -0.690587 0.397694 -0.015625
vn -0.0000 -0.0000 -1.0000
vn 0.7071 -0.7071 -0.0000
vn -0.0000 -0.0000 1.0000
vn -0.7071 0.7071 -0.0000
vn 0.7071 0.7071 -0.0000
vn -0.7071 -0.7071 -0.0000
vt 0.209961 0.416016
vt 0.485352 0.416016
vt 0.485352 0.646484
vt 0.209961 0.646484
vt 0.485352 0.416016
vt 0.000000 0.646484
vt 0.485352 0.646484
vt 0.000000 0.416016
vt 0.485352 0.646484
vt 0.485352 0.416016
vt 0.000000 0.416016
vt 0.209961 0.646484
vt 0.000000 0.646484
vt 0.000000 0.646484
vt 0.000000 0.416016
vt 0.209961 0.416016
vt 0.000000 0.416016
vt 0.000000 0.416016
vt 0.000000 0.646484
s 1
usemtl m_3
f 57/147/43 58/150/43 59/152/43 60/154/43
f 61/157/44 57/148/44 60/155/44 62/160/44
f 63/162/45 61/158/45 62/160/45 64/164/45
f 58/151/46 63/163/46 64/165/46 59/153/46
f 64/165/47 62/161/47 60/156/47 59/153/47
f 58/151/48 57/149/48 61/159/48 63/163/48
o cube.007
v -0.403325 -0.243121 0.013672
v -0.867364 0.220917 0.013672
v -0.690587 0.397694 0.013672
v -0.226549 -0.066345 0.013672
v -0.403325 -0.243122 1.498047
v -0.226549 -0.066345 1.498047
v -0.867364 0.220917 1.498047
v -0.690587 0.397694 1.498047
vn -0.0000 -0.0000 -1.0000
vn 0.7071 -0.7071 -0.0000
vn -0.0000 -0.0000 1.0000
vn -0.7071 0.7071 -0.0000
vn 0.7071 0.7071 -0.0000
vn -0.7071 -0.7071 -0.0000
vt 0.209961 0.416016
vt 0.485352 0.416016
vt 0.485352 0.646484
vt 0.209961 0.646484
vt 0.485352 0.416016
vt 0.000000 0.646484
vt 0.485352 0.646484
vt 0.000000 0.416016
vt 0.485352 0.646484
vt 0.485352 0.416016
vt 0.000000 0.416016
vt 0.209961 0.646484
vt 0.000000 0.646484
vt 0.000000 0.646484
vt 0.000000 0.416016
vt 0.209961 0.416016
vt 0.000000 0.416016
vt 0.000000 0.416016
vt 0.000000 0.646484
s 1
usemtl m_3
f 65/166/49 66/169/49 67/171/49 68/173/49
f 69/176/50 65/167/50 68/174/50 70/179/50
f 71/181/51 69/177/51 70/179/51 72/183/51
f 66/170/52 71/182/52 72/184/52 67/172/52
f 72/184/53 70/180/53 68/175/53 67/172/53
f 66/170/54 65/168/54 69/178/54 71/182/54
o cube.008
v 1.390625 -0.812500 -1.390625
v -0.656250 -0.812500 -1.390625
v -0.656250 -0.250000 -1.390625
v 1.390625 -0.250000 -1.390625
v 1.390625 -0.812500 1.390625
v 1.390625 -0.250000 1.390625
v -0.656250 -0.812500 1.390625
v -0.656250 -0.250000 1.390625
vn -0.0000 -0.0000 -1.0000
vn 1.0000 -0.0000 -0.0000
vn -0.0000 -0.0000 1.0000
vn -1.0000 -0.0000 -0.0000
vn -0.0000 1.0000 -0.0000
vn -0.0000 -1.0000 -0.0000
vt 0.250361 0.000000
vt 1.000000 0.000000
vt 0.250361 1.000000
vt 0.000000 0.000000
vt 0.000000 1.000000
vt 0.000000 0.000000
vt 0.000000 0.000000
vt 1.000000 1.000000
vt 0.000000 1.000000
vt 0.000000 0.000000
vt 0.250361 1.000000
vt 1.000000 1.000000
vt 0.000000 1.000000
vt 1.000000 1.000000
vt 0.250361 0.000000
vt 1.000000 0.000000
vt 0.000000 1.000000
vt 0.000000 0.000000
vt 1.000000 1.000000
vt 1.000000 0.000000
s 1
usemtl m_1
f 73/185/55 74/187/55 75/189/55 76/191/55
f 77/194/56 73/186/56 76/192/56 78/197/56
f 79/199/57 77/195/57 78/197/57 80/202/57
f 74/188/58 79/200/58 80/203/58 75/189/58
f 80/204/59 78/198/59 76/193/59 75/190/59
f 74/188/60 73/186/60 77/196/60 79/201/60
o cube.009
v 1.500000 -0.246094 -1.500000
v -0.656250 -0.246094 -1.500000
v -0.656250 -0.246094 -1.500000
v 1.500000 -0.246094 -1.500000
v 1.500000 -0.246094 1.500000
v 1.500000 -0.246094 1.500000
v -0.656250 -0.246094 1.500000
v -0.656250 -0.246094 1.500000
vn -0.0000 -0.0000 -1.0000
vn -0.0000 -0.0000 -0.0000
vn -0.0000 -0.0000 1.0000
vn -0.0000 1.0000 -0.0000
vn -0.0000 -1.0000 -0.0000
vt 1.000000 0.000000
vt 1.000000 1.000000
vt 1.000000 1.000000
vt 1.000000 0.000000
vt 0.000000 1.000000
vt 0.000000 0.000000
vt 0.000000 0.000000
vt 0.000000 1.000000
vt 1.000000 0.000000
vt 1.000000 1.000000
vt 0.000000 1.000000
vt 0.000000 0.000000
vt 0.000000 1.000000
vt 1.000000 1.000000
vt 1.000000 0.000000
vt 1.000000 1.000000
vt 0.000000 0.000000
vt 0.000000 0.000000
vt 0.000000 1.000000
vt 1.000000 0.000000
s 1
usemtl m_5
f 81/205/61 82/207/61 83/209/61 84/211/61
f 85/213/62 81/206/62 84/212/62 86/216/62
f 87/219/63 85/214/63 86/217/63 88/222/63
f 82/208/62 87/220/62 88/223/62 83/210/62
f 88/224/64 86/218/64 84/212/64 83/210/64
f 82/208/65 81/206/65 85/215/65 87/221/65
o cube.010
v 1.500000 -0.951172 -1.500000
v -0.656250 -0.951172 -1.500000
v -0.656250 -0.246094 -1.500000
v 1.500000 -0.246094 -1.500000
v 1.500000 -0.951172 -1.500000
v 1.500000 -0.246094 -1.500000
v -0.656250 -0.951172 -1.500000
v -0.656250 -0.246094 -1.500000
vn -0.0000 -0.0000 -1.0000
vn -0.0000 -0.0000 -0.0000
vn 1.0000 -0.0000 -0.0000
vn -0.0000 -0.0000 1.0000
vn -1.0000 -0.0000 -0.0000
vn -0.0000 1.0000 -0.0000
vn -0.0000 -1.0000 -0.0000
vt 1.000000 0.000000
vt 1.000000 1.000000
vt 1.000000 1.000000
vt 1.000000 0.000000
vt 0.000000 1.000000
vt 0.000000 0.000000
vt 0.000000 0.000000
vt 0.000000 1.000000
vt 1.000000 0.000000
vt 1.000000 1.000000
vt 0.000000 1.000000
vt 0.000000 0.000000
vt 0.000000 1.000000
vt 1.000000 1.000000
vt 1.000000 0.000000
vt 1.000000 1.000000
vt 0.000000 0.000000
vt 0.000000 0.000000
vt 0.000000 1.000000
vt 1.000000 0.000000
s 1
usemtl m_5
f 89/225/66 90/227/66 91/229/66 92/231/66
f 93/233/67 89/226/68 92/232/67 94/236/68
f 95/239/69 93/234/69 94/237/69 96/242/69
f 90/228/67 95/240/70 96/243/67 91/230/70
f 96/244/71 94/238/67 92/232/71 91/230/67
f 90/228/72 89/226/67 93/235/72 95/241/67
o cube.011
v 1.500000 -0.953125 -1.500000
v 1.500000 -0.953125 -1.500000
v 1.500000 -0.246094 -1.500000
v 1.500000 -0.246094 -1.500000
v 1.500000 -0.953125 1.500000
v 1.500000 -0.246094 1.500000
v 1.500000 -0.953125 1.500000
v 1.500000 -0.246094 1.500000
vn -0.0000 -0.0000 -1.0000
vn 1.0000 -0.0000 -0.0000
vn -0.0000 -0.0000 1.0000
vn -1.0000 -0.0000 -0.0000
vn -0.0000 -0.0000 -0.0000
vt 1.000000 0.000000
vt 1.000000 1.000000
vt 1.000000 1.000000
vt 1.000000 0.000000
vt 0.000000 1.000000
vt 0.000000 0.000000
vt 0.000000 0.000000
vt 0.000000 1.000000
vt 1.000000 0.000000
vt 1.000000 1.000000
vt 0.000000 1.000000
vt 0.000000 0.000000
vt 0.000000 1.000000
vt 1.000000 1.000000
vt 1.000000 0.000000
vt 1.000000 1.000000
vt 0.000000 0.000000
vt 0.000000 0.000000
vt 0.000000 1.000000
vt 1.000000 0.000000
s 1
usemtl m_5
f 97/245/73 98/247/73 99/249/73 100/251/73
f 101/253/74 97/246/74 100/252/74 102/256/74
f 103/259/75 101/254/75 102/257/75 104/262/75
f 98/248/76 103/260/76 104/263/76 99/250/76
f 104/264/77 102/258/77 100/252/77 99/250/77
f 98/248/77 97/246/77 101/255/77 103/261/77
o cube.012
v -0.656250 -0.246094 -1.500000
v -0.656250 -0.246094 -1.500000
v -0.656250 0.009766 -1.500000
v -0.656250 0.009766 -1.500000
v -0.656250 -0.246094 1.500000
v -0.656250 0.009765 1.500000
v -0.656250 -0.246094 1.500000
v -0.656250 0.009765 1.500000
vn -0.0000 -0.0000 -1.0000
vn 1.0000 -0.0000 -0.0000
vn -0.0000 -0.0000 1.0000
vn -1.0000 -0.0000 -0.0000
vn -0.0000 -0.0000 -0.0000
vt 1.000000 0.000000
vt 1.000000 1.000000
vt 1.000000 1.000000
vt 1.000000 0.000000
vt 0.000000 1.000000
vt 0.000000 0.000000
vt 0.000000 0.000000
vt 0.000000 1.000000
vt 1.000000 0.000000
vt 1.000000 1.000000
vt 0.000000 1.000000
vt 0.000000 0.000000
vt 0.000000 1.000000
vt 1.000000 1.000000
vt 1.000000 0.000000
vt 1.000000 1.000000
vt 0.000000 0.000000
vt 0.000000 0.000000
vt 0.000000 1.000000
vt 1.000000 0.000000
s 1
usemtl m_5
f 105/265/78 106/267/78 107/269/78 108/271/78
f 109/273/79 105/266/79 108/272/79 110/276/79
f 111/279/80 109/274/80 110/277/80 112/282/80
f 106/268/81 111/280/81 112/283/81 107/270/81
f 112/284/82 110/278/82 108/272/82 107/270/82
f 106/268/82 105/266/82 109/275/82 111/281/82
o cube.013
v -0.656250 0.009766 -1.500000
v -1.316406 0.009766 -1.500000
v -1.316406 0.009766 -1.500000
v -0.656250 0.009766 -1.500000
v -0.656250 0.009765 1.500000
v -0.656250 0.009765 1.500000
v -1.316406 0.009765 1.500000
v -1.316406 0.009765 1.500000
vn -0.0000 -0.0000 -1.0000
vn -0.0000 -0.0000 -0.0000
vn -0.0000 -0.0000 1.0000
vn -0.0000 1.0000 -0.0000
vn -0.0000 -1.0000 -0.0000
vt 1.000000 0.000000
vt 1.000000 1.000000
vt 1.000000 1.000000
vt 1.000000 0.000000
vt 0.000000 1.000000
vt 0.000000 0.000000
vt 0.000000 0.000000
vt 0.000000 1.000000
vt 1.000000 0.000000
vt 1.000000 1.000000
vt 0.000000 1.000000
vt 0.000000 0.000000
vt 0.000000 1.000000
vt 1.000000 1.000000
vt 1.000000 0.000000
vt 1.000000 1.000000
vt 0.000000 0.000000
vt 0.000000 0.000000
vt 0.000000 1.000000
vt 1.000000 0.000000
s 1
usemtl m_5
f 113/285/83 114/287/83 115/289/83 116/291/83
f 117/293/84 113/286/84 116/292/84 118/296/84
f 119/299/85 117/294/85 118/297/85 120/302/85
f 114/288/84 119/300/84 120/303/84 115/290/84
f 120/304/86 118/298/86 116/292/86 115/290/86
f 114/288/87 113/286/87 117/295/87 119/301/87
o cube.014
v -0.656250 -0.951434 -1.500000
v -1.316406 -0.951434 -1.500000
v -1.316406 0.008245 -1.500000
v -0.656250 0.008245 -1.500000
v -0.656250 -0.951434 -1.500000
v -0.656250 0.008245 -1.500000
v -1.316406 -0.951434 -1.500000
v -1.316406 0.008245 -1.500000
vn -0.0000 -0.0000 -1.0000
vn -0.0000 -0.0000 -0.0000
vn 1.0000 -0.0000 -0.0000
vn -0.0000 -0.0000 1.0000
vn -1.0000 -0.0000 -0.0000
vn -0.0000 1.0000 -0.0000
vn -0.0000 -1.0000 -0.0000
vt 1.000000 0.000000
vt 1.000000 1.000000
vt 1.000000 1.000000
vt 1.000000 0.000000
vt 0.000000 1.000000
vt 0.000000 0.000000
vt 0.000000 0.000000
vt 0.000000 1.000000
vt 1.000000 0.000000
vt 1.000000 1.000000
vt 0.000000 1.000000
vt 0.000000 0.000000
vt 0.000000 1.000000
vt 1.000000 1.000000
vt 1.000000 0.000000
vt 1.000000 1.000000
vt 0.000000 0.000000
vt 0.000000 0.000000
vt 0.000000 1.000000
vt 1.000000 0.000000
s 1
usemtl m_5
f 121/305/88 122/307/88 123/309/88 124/311/88
f 125/313/89 121/306/90 124/312/89 126/316/90
f 127/319/91 125/314/91 126/317/91 128/322/91
f 122/308/89 127/320/92 128/323/89 123/310/92
f 128/324/93 126/318/89 124/312/93 123/310/89
f 122/308/94 121/306/89 125/315/94 127/321/89
o cube.015
v -0.656250 -0.951435 1.500000
v -1.316406 -0.951435 1.500000
v -1.316406 0.008245 1.500000
v -0.656250 0.008245 1.500000
v -0.656250 -0.951435 1.500000
v -0.656250 0.008245 1.500000
v -1.316406 -0.951435 1.500000
v -1.316406 0.008245 1.500000
vn -0.0000 -0.0000 -1.0000
vn -0.0000 -0.0000 -0.0000
vn 1.0000 -0.0000 -0.0000
vn -0.0000 -0.0000 1.0000
vn -1.0000 -0.0000 -0.0000
vn -0.0000 1.0000 -0.0000
vn -0.0000 -1.0000 -0.0000
vt 1.000000 1.000000
vt 1.000000 0.000000
vt 0.000000 1.000000
vt 1.000000 0.000000
vt 1.000000 1.000000
vt 0.000000 0.000000
vt 0.000000 0.000000
vt 0.000000 1.000000
vt 1.000000 0.000000
vt 0.000000 1.000000
vt 0.000000 0.000000
vt 1.000000 1.000000
vt 1.000000 0.000000
vt 1.000000 1.000000
vt 0.000000 0.000000
vt 0.000000 1.000000
vt 1.000000 1.000000
vt 1.000000 0.000000
vt 0.000000 1.000000
vt 0.000000 0.000000
s 1
usemtl m_5
f 129/325/95 130/328/95 131/331/95 132/334/95
f 133/338/96 129/326/97 132/335/96 134/340/97
f 135/341/98 133/337/98 134/339/98 136/343/98
f 130/329/96 135/342/99 136/344/96 131/332/99
f 136/344/100 134/340/96 132/336/100 131/333/96
f 130/330/101 129/327/96 133/338/101 135/342/96
o cube.016
v 1.500000 -0.951172 1.500000
v -0.656250 -0.951172 1.500000
v -0.656250 -0.246094 1.500000
v 1.500000 -0.246094 1.500000
v 1.500000 -0.951172 1.500000
v 1.500000 -0.246094 1.500000
v -0.656250 -0.951172 1.500000
v -0.656250 -0.246094 1.500000
vn -0.0000 -0.0000 -1.0000
vn -0.0000 -0.0000 -0.0000
vn 1.0000 -0.0000 -0.0000
vn -0.0000 -0.0000 1.0000
vn -1.0000 -0.0000 -0.0000
vn -0.0000 1.0000 -0.0000
vn -0.0000 -1.0000 -0.0000
vt 1.000000 1.000000
vt 1.000000 0.000000
vt 0.000000 1.000000
vt 1.000000 0.000000
vt 1.000000 1.000000
vt 0.000000 0.000000
vt 0.000000 0.000000
vt 0.000000 1.000000
vt 1.000000 0.000000
vt 0.000000 1.000000
vt 0.000000 0.000000
vt 1.000000 1.000000
vt 1.000000 0.000000
vt 1.000000 1.000000
vt 0.000000 0.000000
vt 0.000000 1.000000
vt 1.000000 1.000000
vt 1.000000 0.000000
vt 0.000000 1.000000
vt 0.000000 0.000000
s 1
usemtl m_5
f 137/345/102 138/348/102 139/351/102 140/354/102
f 141/358/103 137/346/104 140/355/103 142/360/104
f 143/361/105 141/357/105 142/359/105 144/363/105
f 138/349/103 143/362/106 144/364/103 139/352/106
f 144/364/107 142/360/103 140/356/107 139/353/103
f 138/350/108 137/347/103 141/358/108 143/362/103
o cube.017
v 1.498047 -0.812500 -1.421875
v 1.419922 -0.812500 -1.421875
v 1.419922 -0.437500 -1.421875
v 1.498047 -0.437500 -1.421875
v 1.498047 -0.812500 1.421875
v 1.498047 -0.437500 1.421875
v 1.419922 -0.812500 1.421875
v 1.419922 -0.437500 1.421875
vn -0.0000 -0.0000 -1.0000
vn 1.0000 -0.0000 -0.0000
vn -0.0000 -0.0000 1.0000
vn -1.0000 -0.0000 -0.0000
vn -0.0000 1.0000 -0.0000
vn -0.0000 -1.0000 -0.0000
vt 0.000000 0.000000
vt 1.000000 0.000000
vt 1.000000 0.000000
vt 0.000000 0.000000
vt 1.000000 1.000000
vt 0.000000 1.000000
vt 0.000000 1.000000
vt 1.000000 1.000000
vt 0.000000 0.000000
vt 1.000000 0.000000
vt 1.000000 1.000000
vt 0.000000 1.000000
vt 1.000000 1.000000
vt 1.000000 0.000000
vt 0.000000 0.000000
vt 1.000000 0.000000
vt 0.000000 1.000000
vt 0.000000 1.000000
vt 1.000000 1.000000
vt 0.000000 0.000000
s 1
usemtl m_0
f 145/365/109 146/367/109 147/369/109 148/371/109
f 149/373/110 145/366/110 148/372/110 150/376/110
f 151/379/111 149/374/111 150/377/111 152/382/111
f 146/368/112 151/380/112 152/383/112 147/370/112
f 152/384/113 150/378/113 148/372/113 147/370/113
f 146/368/114 145/366/114 149/375/114 151/381/114
o cube.018
v -1.343750 -0.812500 -1.494141
v -1.500000 -0.812500 -1.494141
v -1.500000 0.923828 -1.494141
v -1.343750 0.923828 -1.494141
v -1.343750 -0.812500 1.498047
v -1.343750 0.923828 1.498047
v -1.500000 -0.812500 1.498047
v -1.500000 0.923828 1.498047
vn -0.0000 -0.0000 -1.0000
vn 1.0000 -0.0000 -0.0000
vn -0.0000 -0.0000 1.0000
vn -1.0000 -0.0000 -0.0000
vn -0.0000 1.0000 -0.0000
vn -0.0000 -1.0000 -0.0000
vt 0.000000 0.000000
vt 1.000000 0.000000
vt 1.000000 0.000000
vt 0.000000 0.000000
vt 1.000000 1.000000
vt 0.000000 1.000000
vt 0.000000 1.000000
vt 1.000000 1.000000
vt 0.000000 0.000000
vt 1.000000 0.000000
vt 1.000000 1.000000
vt 0.000000 1.000000
vt 1.000000 1.000000
vt 1.000000 0.000000
vt 0.000000 0.000000
vt 1.000000 0.000000
vt 0.000000 1.000000
vt 0.000000 1.000000
vt 1.000000 1.000000
vt 0.000000 0.000000
s 1
usemtl m_0
f 153/385/115 154/387/115 155/389/115 156/391/115
f 157/393/116 153/386/116 156/392/116 158/396/116
f 159/399/117 157/394/117 158/397/117 160/402/117
f 154/388/118 159/400/118 160/403/118 155/390/118
f 160/404/119 158/398/119 156/392/119 155/390/119
f 154/388/120 153/386/120 157/395/120 159/401/120
o cube.019
v -1.324219 -0.720703 -1.189453
v -1.345703 -0.720703 -1.189453
v -1.345703 0.900391 -1.189453
v -1.324219 0.900391 -1.189453
v -1.324219 -0.720703 1.253906
v -1.324219 0.900390 1.253906
v -1.345703 -0.720703 1.253906
v -1.345703 0.900390 1.253906
vn -0.0000 -0.0000 -1.0000
vn 1.0000 -0.0000 -0.0000
vn -0.0000 -0.0000 1.0000
vn -1.0000 -0.0000 -0.0000
vn -0.0000 1.0000 -0.0000
vn -0.0000 -1.0000 -0.0000
vt 1.000000 0.248047
vt 0.164062 0.826172
vt 0.000000 0.557617
vt 0.164062 0.826172
vt 0.000000 1.000000
vt 0.164062 0.826172
vt 1.000000 1.000000
vt 0.164062 0.826172
vt 0.000000 0.248047
vt 0.164062 0.826172
vt 0.000000 1.000000
vt 0.164062 0.826172
vt 1.000000 0.557617
vt 0.164062 0.826172
vt 1.000000 1.000000
vt 0.164062 0.826172
s 1
usemtl m_4
f 161/406/121 162/408/121 163/410/121 164/412/121
f 165/413/122 161/405/122 164/411/122 166/415/122
f 167/418/123 165/414/123 166/416/123 168/420/123
f 162/407/124 167/417/124 168/419/124 163/409/124
f 168/420/125 166/416/125 164/412/125 163/410/125
f 162/408/126 161/406/126 165/414/126 167/418/126
o cube.020
v 1.490234 -0.953125 -1.496094
v -1.500000 -0.953125 -1.496094
v -1.500000 -0.875000 -1.496094
v 1.490234 -0.875000 -1.496094
v 1.490234 -0.953125 -1.109375
v 1.490234 -0.875000 -1.109375
v -1.500000 -0.953125 -1.109375
v -1.500000 -0.875000 -1.109375
vn -0.0000 -0.0000 -1.0000
vn 1.0000 -0.0000 -0.0000
vn -0.0000 -0.0000 1.0000
vn -1.0000 -0.0000 -0.0000
vn -0.0000 1.0000 -0.0000
vn -0.0000 -1.0000 -0.0000
vt 0.000000 0.000000
vt 1.000000 0.000000
vt 1.000000 0.000000
vt 0.000000 0.000000
vt 1.000000 1.000000
vt 0.000000 1.000000
vt 0.000000 1.000000
vt 1.000000 1.000000
vt 0.000000 0.000000
vt 1.000000 0.000000
vt 1.000000 1.000000
vt 0.000000 1.000000
vt 1.000000 1.000000
vt 1.000000 0.000000
vt 0.000000 0.000000
vt 1.000000 0.000000
vt 0.000000 1.000000
vt 0.000000 1.000000
vt 1.000000 1.000000
vt 0.000000 0.000000
s 1
usemtl m_0
f 169/421/127 170/423/127 171/425/127 172/427/127
f 173/429/128 169/422/128 172/428/128 174/432/128
f 175/435/129 173/430/129 174/433/129 176/438/129
f 170/424/130 175/436/130 176/439/130 171/426/130
f 176/440/131 174/434/131 172/428/131 171/426/131
f 170/424/132 169/422/132 173/431/132 175/437/132
