# Blender v2.93.2 OBJ File: ''
# www.blender.org
mtllib flynn_lamp.mtl
o cube
v -1.089844 -1.498047 -0.500000
v -1.496094 -1.498047 -0.500000
v -1.496094 -0.701172 -0.500000
v -1.089844 -0.701172 -0.500000
v -1.089844 -1.498047 -0.218750
v -1.089844 -0.701172 -0.218750
v -1.496094 -1.498047 -0.218750
v -1.496094 -0.701172 -0.218750
vt 0.000000 0.000000
vt 1.000000 0.000000
vt 1.000000 1.000000
vt 0.000000 1.000000
vt 0.000000 0.000000
vt 1.000000 0.000000
vt 1.000000 1.000000
vt 0.000000 1.000000
vt 0.000000 0.000000
vt 1.000000 0.000000
vt 1.000000 1.000000
vt 0.000000 1.000000
vt 0.000000 0.000000
vt 1.000000 0.000000
vt 1.000000 1.000000
vt 0.000000 1.000000
vt 0.000000 0.000000
vt 1.000000 0.000000
vt 1.000000 1.000000
vt 0.000000 1.000000
vn 0.0000 0.0000 -1.0000
vn 1.0000 0.0000 0.0000
vn 0.0000 -0.0000 1.0000
vn -1.0000 0.0000 0.0000
vn 0.0000 1.0000 0.0000
vn 0.0000 -1.0000 -0.0000
usemtl m_2
s 1
f 1/1/1 2/2/1 3/3/1 4/4/1
f 5/5/2 1/6/2 4/7/2 6/8/2
f 7/9/3 5/10/3 6/11/3 8/12/3
f 2/13/4 7/14/4 8/15/4 3/16/4
f 8/17/5 6/18/5 4/7/5 3/16/5
f 2/13/6 1/6/6 5/19/6 7/20/6
o cube.000
v -1.433594 -0.701172 -0.390625
v -1.496094 -0.701172 -0.390625
v -1.496094 0.361328 -0.390625
v -1.433594 0.361328 -0.390625
v -1.433594 -0.701172 -0.328125
v -1.433594 0.361328 -0.328125
v -1.496094 -0.701172 -0.328125
v -1.496094 0.361328 -0.328125
vt 0.359375 0.101562
vt 0.625000 0.101562
vt 0.625000 0.437500
vt 0.359375 0.437500
vt 0.359375 0.101562
vt 0.625000 0.101562
vt 0.625000 0.437500
vt 0.359375 0.437500
vt 0.359375 0.101562
vt 0.625000 0.101562
vt 0.625000 0.437500
vt 0.359375 0.437500
vt 0.359375 0.101562
vt 0.625000 0.101562
vt 0.625000 0.437500
vt 0.359375 0.437500
vt 0.359375 0.101562
vt 0.625000 0.101562
vt 0.625000 0.437500
vt 0.359375 0.437500
vn 0.0000 0.0000 -1.0000
vn 1.0000 0.0000 0.0000
vn 0.0000 -0.0000 1.0000
vn -1.0000 0.0000 0.0000
vn 0.0000 1.0000 0.0000
vn 0.0000 -1.0000 0.0000
usemtl m_0
s 1
f 9/21/7 10/22/7 11/23/7 12/24/7
f 13/25/8 9/26/8 12/27/8 14/28/8
f 15/29/9 13/30/9 14/31/9 16/32/9
f 10/33/10 15/34/10 16/35/10 11/36/10
f 16/37/11 14/38/11 12/27/11 11/36/11
f 10/33/12 9/26/12 13/39/12 15/40/12
o cube.001
v -1.438351 0.337410 -0.390625
v -1.496094 0.361328 -0.390625
v -1.280834 0.881010 -0.390625
v -1.223092 0.857093 -0.390625
v -1.438351 0.337410 -0.328125
v -1.223092 0.857093 -0.328125
v -1.496094 0.361328 -0.328125
v -1.280834 0.881010 -0.328125
vt 0.359375 0.101562
vt 0.625000 0.101562
vt 0.625000 0.437500
vt 0.359375 0.437500
vt 0.359375 0.101562
vt 0.625000 0.101562
vt 0.625000 0.437500
vt 0.359375 0.437500
vt 0.359375 0.101562
vt 0.625000 0.101562
vt 0.625000 0.437500
vt 0.359375 0.437500
vt 0.359375 0.101562
vt 0.625000 0.101562
vt 0.625000 0.437500
vt 0.359375 0.437500
vt 0.359375 0.101562
vt 0.625000 0.101562
vt 0.625000 0.437500
vt 0.359375 0.437500
vn 0.0000 0.0000 -1.0000
vn 0.9239 -0.3827 0.0000
vn -0.0000 -0.0000 1.0000
vn -0.9239 0.3827 0.0000
vn 0.3827 0.9239 0.0000
vn -0.3827 -0.9239 0.0000
usemtl m_0
s 1
f 17/41/13 18/42/13 19/43/13 20/44/13
f 21/45/14 17/46/14 20/47/14 22/48/14
f 23/49/15 21/50/15 22/51/15 24/52/15
f 18/53/16 23/54/16 24/55/16 19/56/16
f 24/57/17 22/58/17 20/47/17 19/56/17
f 18/53/18 17/46/18 21/59/18 23/60/18
o cube.002
v -1.236640 0.836816 -0.390625
v -1.280834 0.881010 -0.390625
v -0.883086 1.278758 -0.390625
v -0.838892 1.234564 -0.390625
v -1.236640 0.836816 -0.328125
v -0.838892 1.234564 -0.328125
v -1.280834 0.881010 -0.328125
v -0.883086 1.278758 -0.328125
vt 0.359375 0.101562
vt 0.625000 0.101562
vt 0.625000 0.437500
vt 0.359375 0.437500
vt 0.359375 0.101562
vt 0.625000 0.101562
vt 0.625000 0.437500
vt 0.359375 0.437500
vt 0.359375 0.101562
vt 0.625000 0.101562
vt 0.625000 0.437500
vt 0.359375 0.437500
vt 0.359375 0.101562
vt 0.625000 0.101562
vt 0.625000 0.437500
vt 0.359375 0.437500
vt 0.359375 0.101562
vt 0.625000 0.101562
vt 0.625000 0.437500
vt 0.359375 0.437500
vn -0.0000 0.0000 -1.0000
vn 0.7071 -0.7071 0.0000
vn -0.0000 -0.0000 1.0000
vn -0.7071 0.7071 0.0000
vn 0.7071 0.7071 0.0000
vn -0.7071 -0.7071 0.0000
usemtl m_0
s 1
f 25/61/19 26/62/19 27/63/19 28/64/19
f 29/65/20 25/66/20 28/67/20 30/68/20
f 31/69/21 29/70/21 30/71/21 32/72/21
f 26/73/22 31/74/22 32/75/22 27/76/22
f 32/77/23 30/78/23 28/67/23 27/76/23
f 26/73/24 25/66/24 29/79/24 31/80/24
o cube.003
v -0.339487 1.436275 -0.390625
v -0.859169 1.221016 -0.390625
v -0.883087 1.278758 -0.390625
v -0.363404 1.494017 -0.390625
v -0.339487 1.436275 -0.328125
v -0.363404 1.494017 -0.328125
v -0.859169 1.221016 -0.328125
v -0.883087 1.278758 -0.328125
vt 0.359375 0.437500
vt 0.359375 0.101562
vt 0.625000 0.101562
vt 0.625000 0.437500
vt 0.359375 0.437500
vt 0.359375 0.101562
vt 0.625000 0.101562
vt 0.625000 0.437500
vt 0.359375 0.437500
vt 0.359375 0.101562
vt 0.625000 0.101562
vt 0.625000 0.437500
vt 0.359375 0.437500
vt 0.359375 0.101562
vt 0.625000 0.101562
vt 0.625000 0.437500
vt 0.359375 0.437500
vt 0.359375 0.101562
vt 0.625000 0.101562
vt 0.625000 0.437500
vn 0.0000 0.0000 -1.0000
vn 0.9239 0.3827 0.0000
vn 0.0000 -0.0000 1.0000
vn -0.9239 -0.3827 -0.0000
vn -0.3827 0.9239 0.0000
vn 0.3827 -0.9239 -0.0000
usemtl m_0
s 1
f 33/81/25 34/82/25 35/83/25 36/84/25
f 37/85/26 33/86/26 36/87/26 38/88/26
f 39/89/27 37/90/27 38/91/27 40/92/27
f 34/93/28 39/94/28 40/95/28 35/96/28
f 40/97/29 38/98/29 36/87/29 35/96/29
f 34/93/30 33/86/30 37/99/30 39/100/30
o cube.004
v 0.694860 1.221016 -0.390625
v 0.175178 1.436275 -0.390625
v 0.199096 1.494017 -0.390625
v 0.718778 1.278758 -0.390625
v 0.694860 1.221016 -0.328125
v 0.718778 1.278758 -0.328125
v 0.175178 1.436275 -0.328125
v 0.199096 1.494017 -0.328125
vt 0.359375 0.437500
vt 0.359375 0.101562
vt 0.625000 0.101562
vt 0.625000 0.437500
vt 0.359375 0.437500
vt 0.359375 0.101562
vt 0.625000 0.101562
vt 0.625000 0.437500
vt 0.359375 0.437500
vt 0.359375 0.101562
vt 0.625000 0.101562
vt 0.625000 0.437500
vt 0.359375 0.437500
vt 0.359375 0.101562
vt 0.625000 0.101562
vt 0.625000 0.437500
vt 0.359375 0.437500
vt 0.359375 0.101562
vt 0.625000 0.101562
vt 0.625000 0.437500
vn 0.0000 0.0000 -1.0000
vn 0.9239 -0.3827 -0.0000
vn 0.0000 -0.0000 1.0000
vn -0.9239 0.3827 0.0000
vn 0.3827 0.9239 0.0000
vn -0.3827 -0.9239 -0.0000
usemtl m_0
s 1
f 41/101/31 42/102/31 43/103/31 44/104/31
f 45/105/32 41/106/32 44/107/32 46/108/32
f 47/109/33 45/110/33 46/111/33 48/112/33
f 42/113/34 47/114/34 48/115/34 43/116/34
f 48/117/35 46/118/35 44/107/35 43/116/35
f 42/113/36 41/106/36 45/119/36 47/120/36
o cube.005
v 1.116525 0.881010 -0.390625
v 1.072331 0.836816 -0.390625
v 0.674584 1.234564 -0.390625
v 0.718778 1.278758 -0.390625
v 1.116525 0.881010 -0.328125
v 0.718778 1.278758 -0.328125
v 1.072331 0.836816 -0.328125
v 0.674584 1.234564 -0.328125
vt 0.359375 0.101562
vt 0.625000 0.101562
vt 0.625000 0.437500
vt 0.359375 0.437500
vt 0.359375 0.101562
vt 0.625000 0.101562
vt 0.625000 0.437500
vt 0.359375 0.437500
vt 0.359375 0.101562
vt 0.625000 0.101562
vt 0.625000 0.437500
vt 0.359375 0.437500
vt 0.359375 0.101562
vt 0.625000 0.101562
vt 0.625000 0.437500
vt 0.359375 0.437500
vt 0.359375 0.101562
vt 0.625000 0.101562
vt 0.625000 0.437500
vt 0.359375 0.437500
vn -0.0000 0.0000 -1.0000
vn 0.7071 0.7071 0.0000
vn -0.0000 -0.0000 1.0000
vn -0.7071 -0.7071 0.0000
vn -0.7071 0.7071 0.0000
vn 0.7071 -0.7071 0.0000
usemtl m_0
s 1
f 49/121/37 50/122/37 51/123/37 52/124/37
f 53/125/38 49/126/38 52/127/38 54/128/38
f 55/129/39 53/130/39 54/131/39 56/132/39
f 50/133/40 55/134/40 56/135/40 51/136/40
f 56/137/41 54/138/41 52/127/41 51/136/41
f 50/133/42 49/126/42 53/139/42 55/140/42
o cube.006
v 1.331784 0.361328 -0.390625
v 1.274042 0.337410 -0.390625
v 1.058783 0.857093 -0.390625
v 1.116525 0.881010 -0.390625
v 1.331784 0.361328 -0.328125
v 1.116525 0.881010 -0.328125
v 1.274042 0.337410 -0.328125
v 1.058783 0.857093 -0.328125
vt 0.359375 0.101562
vt 0.625000 0.101562
vt 0.625000 0.437500
vt 0.359375 0.437500
vt 0.359375 0.101562
vt 0.625000 0.101562
vt 0.625000 0.437500
vt 0.359375 0.437500
vt 0.359375 0.101562
vt 0.625000 0.101562
vt 0.625000 0.437500
vt 0.359375 0.437500
vt 0.359375 0.101562
vt 0.625000 0.101562
vt 0.625000 0.437500
vt 0.359375 0.437500
vt 0.359375 0.101562
vt 0.625000 0.101562
vt 0.625000 0.437500
vt 0.359375 0.437500
vn -0.0000 0.0000 -1.0000
vn 0.9239 0.3827 0.0000
vn 0.0000 -0.0000 1.0000
vn -0.9239 -0.3827 0.0000
vn -0.3827 0.9239 0.0000
vn 0.3827 -0.9239 0.0000
usemtl m_0
s 1
f 57/141/43 58/142/43 59/143/43 60/144/43
f 61/145/44 57/146/44 60/147/44 62/148/44
f 63/149/45 61/150/45 62/151/45 64/152/45
f 58/153/46 63/154/46 64/155/46 59/156/46
f 64/157/47 62/158/47 60/147/47 59/156/47
f 58/153/48 57/146/48 61/159/48 63/160/48
o cube.007
v 0.199096 1.431518 -0.390625
v -0.363404 1.431518 -0.390625
v -0.363404 1.494018 -0.390625
v 0.199096 1.494018 -0.390625
v 0.199096 1.431517 -0.328125
v 0.199096 1.494017 -0.328125
v -0.363404 1.431517 -0.328125
v -0.363404 1.494017 -0.328125
vt 0.359375 0.437500
vt 0.359375 0.101562
vt 0.625000 0.101562
vt 0.625000 0.437500
vt 0.359375 0.437500
vt 0.359375 0.101562
vt 0.625000 0.101562
vt 0.625000 0.437500
vt 0.359375 0.437500
vt 0.359375 0.101562
vt 0.625000 0.101562
vt 0.625000 0.437500
vt 0.359375 0.437500
vt 0.359375 0.101562
vt 0.625000 0.101562
vt 0.625000 0.437500
vt 0.359375 0.437500
vt 0.359375 0.101562
vt 0.625000 0.101562
vt 0.625000 0.437500
vn 0.0000 0.0000 -1.0000
vn 1.0000 0.0000 0.0000
vn 0.0000 0.0000 1.0000
vn -1.0000 0.0000 0.0000
vn 0.0000 1.0000 0.0000
vn 0.0000 -1.0000 -0.0000
usemtl m_0
s 1
f 65/161/49 66/162/49 67/163/49 68/164/49
f 69/165/50 65/166/50 68/167/50 70/168/50
f 71/169/51 69/170/51 70/171/51 72/172/51
f 66/173/52 71/174/52 72/175/52 67/176/52
f 72/177/53 70/178/53 68/167/53 67/176/53
f 66/173/54 65/166/54 69/179/54 71/180/54
o cube.008
v 1.488223 0.132851 -0.560547
v 1.488223 0.132851 -0.560547
v 1.392552 0.363821 -0.560547
v 1.392552 0.363821 -0.560547
v 1.488223 0.132851 -0.154297
v 1.392552 0.363821 -0.154297
v 1.488223 0.132851 -0.154297
v 1.392552 0.363821 -0.154297
vt 0.000000 0.000000
vt 1.000000 0.000000
vt 1.000000 0.570312
vt 0.000000 0.570312
vt 0.000000 0.000000
vt 1.000000 0.000000
vt 1.000000 0.570312
vt 0.000000 0.570312
vt 0.000000 0.000000
vt 1.000000 0.000000
vt 1.000000 0.570312
vt 0.000000 0.570312
vt 0.000000 0.000000
vt 1.000000 0.000000
vt 1.000000 0.570312
vt 0.000000 0.570312
vt 0.000000 0.000000
vt 1.000000 0.000000
vt 1.000000 0.570312
vt 0.000000 0.570312
vn 0.0000 0.0000 -1.0000
vn 0.9239 0.3827 0.0000
vn 0.0000 0.0000 1.0000
vn -0.9239 -0.3827 -0.0000
vn 0.0000 0.0000 0.0000
usemtl m_0
s 1
f 73/181/55 74/182/55 75/183/55 76/184/55
f 77/185/56 73/186/56 76/187/56 78/188/56
f 79/189/57 77/190/57 78/191/57 80/192/57
f 74/193/58 79/194/58 80/195/58 75/196/58
f 80/197/59 78/198/59 76/187/59 75/196/59
f 74/193/59 73/186/59 77/199/59 79/200/59
o cube.009
v 1.392578 0.363783 -0.464876
v 1.177734 0.363783 -0.464876
v 1.177734 0.363783 -0.464876
v 1.392578 0.363783 -0.464876
v 1.392578 0.363783 -0.250032
v 1.392578 0.363783 -0.250032
v 1.177734 0.363783 -0.250032
v 1.177734 0.363783 -0.250032
vt 0.390625 0.230469
vt 0.605469 0.230469
vt 0.605469 0.445312
vt 0.390625 0.445312
vt 0.390625 0.230469
vt 0.605469 0.230469
vt 0.605469 0.445312
vt 0.390625 0.445312
vt 0.390625 0.230469
vt 0.605469 0.230469
vt 0.605469 0.445312
vt 0.390625 0.445312
vt 0.390625 0.230469
vt 0.605469 0.230469
vt 0.605469 0.445312
vt 0.390625 0.445312
vt 0.390625 0.230469
vt 0.605469 0.230469
vt 0.605469 0.445312
vt 0.390625 0.445312
vn 0.0000 -0.0000 -1.0000
vn 0.0000 0.0000 0.0000
vn 0.0000 0.0000 1.0000
vn 0.0000 1.0000 0.0000
vn 0.0000 -1.0000 -0.0000
usemtl m_0
s 1
f 81/201/60 82/202/60 83/203/60 84/204/60
f 85/205/61 81/206/61 84/207/61 86/208/61
f 87/209/62 85/210/62 86/211/62 88/212/62
f 82/213/61 87/214/61 88/215/61 83/216/61
f 88/217/63 86/218/63 84/207/63 83/216/63
f 82/213/64 81/206/64 85/219/64 87/220/64
o cube.010
v 1.488281 0.132899 -0.560605
v 1.082031 0.132899 -0.560605
v 1.082031 0.363869 -0.464934
v 1.488281 0.363869 -0.464934
v 1.488281 0.132899 -0.560605
v 1.488281 0.363869 -0.464934
v 1.082031 0.132899 -0.560605
v 1.082031 0.363869 -0.464934
vt 0.000000 0.000000
vt 1.000000 0.000000
vt 1.000000 0.570312
vt 0.000000 0.570312
vt 0.000000 0.000000
vt 1.000000 0.000000
vt 1.000000 0.570312
vt 0.000000 0.570312
vt 0.000000 0.000000
vt 1.000000 0.000000
vt 1.000000 0.570312
vt 0.000000 0.570312
vt 0.000000 0.000000
vt 1.000000 0.000000
vt 1.000000 0.570312
vt 0.000000 0.570312
vt 0.000000 0.000000
vt 1.000000 0.000000
vt 1.000000 0.570312
vt 0.000000 0.570312
vn 0.0000 0.3827 -0.9239
vn 0.0000 0.0000 -0.0000
vn 1.0000 0.0000 -0.0000
vn 0.0000 -0.3827 0.9239
vn -1.0000 -0.0000 -0.0000
vn -0.0000 0.9239 0.3827
vn 0.0000 0.0000 0.3827
vn 0.0000 -0.9239 -0.3827
vn 0.0000 0.0000 -0.3827
usemtl m_0
s 1
f 89/221/65 90/222/65 91/223/65 92/224/65
f 93/225/66 89/226/67 92/227/66 94/228/67
f 95/229/68 93/230/68 94/231/68 96/232/68
f 90/233/66 95/234/69 96/235/66 91/236/69
f 96/237/70 94/238/71 92/227/70 91/236/71
f 90/233/72 89/226/73 93/239/72 95/240/73
o cube.011
v 1.488281 0.132813 -0.560547
v 1.082031 0.132813 -0.560547
v 1.082031 0.132813 -0.560547
v 1.488281 0.132813 -0.560547
v 1.488281 0.132813 -0.154297
v 1.488281 0.132813 -0.154297
v 1.082031 0.132813 -0.154297
v 1.082031 0.132813 -0.154297
vt 0.000000 0.000000
vt 1.000000 0.000000
vt 1.000000 1.000000
vt 0.000000 1.000000
vt 0.000000 0.000000
vt 1.000000 0.000000
vt 1.000000 1.000000
vt 0.000000 1.000000
vt 0.000000 0.000000
vt 1.000000 0.000000
vt 1.000000 1.000000
vt 0.000000 1.000000
vt 0.000000 0.000000
vt 1.000000 0.000000
vt 1.000000 1.000000
vt 0.000000 1.000000
vt 0.000000 0.000000
vt 1.000000 0.000000
vt 1.000000 1.000000
vt 0.000000 1.000000
vn 0.0000 -0.0000 -1.0000
vn 0.0000 0.0000 0.0000
vn 0.0000 0.0000 1.0000
vn 0.0000 1.0000 0.0000
vn 0.0000 -1.0000 -0.0000
usemtl m_1
s 1
f 97/241/74 98/242/74 99/243/74 100/244/74
f 101/245/75 97/246/75 100/247/75 102/248/75
f 103/249/76 101/250/76 102/251/76 104/252/76
f 98/253/75 103/254/75 104/255/75 99/256/75
f 104/257/77 102/258/77 100/247/77 99/256/77
f 98/253/78 97/246/78 101/259/78 103/260/78
o cube.012
v 1.488281 0.132851 -0.154355
v 1.082031 0.132851 -0.154355
v 1.082031 0.363821 -0.250025
v 1.488281 0.363821 -0.250025
v 1.488281 0.132851 -0.154355
v 1.488281 0.363821 -0.250025
v 1.082031 0.132851 -0.154355
v 1.082031 0.363821 -0.250025
vt 0.000000 0.000000
vt 1.000000 0.000000
vt 1.000000 0.570312
vt 0.000000 0.570312
vt 0.000000 0.000000
vt 1.000000 0.000000
vt 1.000000 0.570312
vt 0.000000 0.570312
vt 0.000000 0.000000
vt 1.000000 0.000000
vt 1.000000 0.570312
vt 0.000000 0.570312
vt 0.000000 0.000000
vt 1.000000 0.000000
vt 1.000000 0.570312
vt 0.000000 0.570312
vt 0.000000 0.000000
vt 1.000000 0.000000
vt 1.000000 0.570312
vt 0.000000 0.570312
vn 0.0000 -0.3827 -0.9239
vn 0.0000 0.0000 0.0000
vn 1.0000 0.0000 0.0000
vn 0.0000 0.3827 0.9239
vn -1.0000 -0.0000 0.0000
vn -0.0000 0.9239 -0.3827
vn 0.0000 0.0000 -0.3827
vn 0.0000 -0.9239 0.3827
vn 0.0000 0.0000 0.3827
usemtl m_0
s 1
f 105/261/79 106/262/79 107/263/79 108/264/79
f 109/265/80 105/266/81 108/267/80 110/268/81
f 111/269/82 109/270/82 110/271/82 112/272/82
f 106/273/80 111/274/83 112/275/80 107/276/83
f 112/277/84 110/278/85 108/267/84 107/276/85
f 106/273/86 105/266/87 109/279/86 111/280/87
o cube.013
v 1.081973 0.132899 -0.560547
v 1.081973 0.132899 -0.560547
v 1.177644 0.363869 -0.560547
v 1.177644 0.363869 -0.560547
v 1.081973 0.132899 -0.154297
v 1.177644 0.363869 -0.154297
v 1.081973 0.132899 -0.154297
v 1.177644 0.363869 -0.154297
vt 0.000000 0.000000
vt 1.000000 0.000000
vt 1.000000 0.570312
vt 0.000000 0.570312
vt 0.000000 0.000000
vt 1.000000 0.000000
vt 1.000000 0.570312
vt 0.000000 0.570312
vt 0.000000 0.000000
vt 1.000000 0.000000
vt 1.000000 0.570312
vt 0.000000 0.570312
vt 0.000000 0.000000
vt 1.000000 0.000000
vt 1.000000 0.570312
vt 0.000000 0.570312
vt 0.000000 0.000000
vt 1.000000 0.000000
vt 1.000000 0.570312
vt 0.000000 0.570312
vn 0.0000 0.0000 -1.0000
vn 0.9239 -0.3827 -0.0000
vn 0.0000 0.0000 1.0000
vn -0.9239 0.3827 0.0000
vn 0.0000 0.0000 0.0000
usemtl m_0
s 1
f 113/281/88 114/282/88 115/283/88 116/284/88
f 117/285/89 113/286/89 116/287/89 118/288/89
f 119/289/90 117/290/90 118/291/90 120/292/90
f 114/293/91 119/294/91 120/295/91 115/296/91
f 120/297/92 118/298/92 116/287/92 115/296/92
f 114/293/92 113/286/92 117/299/92 119/300/92
