# Blender v2.93.2 OBJ File: ''
# www.blender.org
mtllib screen4.mtl
o cube
v 2.062500 -1.214356 -0.000000
v -2.062500 -1.214356 -0.000000
v -2.062500 1.214356 0.000000
v 2.062500 1.214356 0.000000
v 2.062500 -1.214356 -0.000000
v 2.062500 1.214356 0.000000
v -2.062500 -1.214356 -0.000000
v -2.062500 1.214356 0.000000
vt 0.000000 0.402709
vt 1.000000 0.402709
vt 1.000000 1.000000
vt 0.000000 1.000000
vt 0.081055 0.542969
vt 0.081055 0.542969
vt 0.081055 0.542969
vt 0.081055 0.542969
vt 1.000000 0.402709
vt 0.000000 0.402709
vt 0.000000 1.000000
vt 1.000000 1.000000
vt 0.073243 0.528320
vt 0.073243 0.528320
vt 0.073243 0.528320
vt 0.073243 0.528320
vt 0.024414 0.535156
vt 0.024414 0.535156
vt 0.024414 0.535156
vt 0.024414 0.535156
vt 0.189500 0.501938
vt 0.189500 0.501938
vt 0.189500 0.501938
vt 0.189500 0.501938
vn 0.0000 0.0000 -1.0000
vn 0.0000 0.0000 0.0000
vn 1.0000 0.0000 0.0000
vn 0.0000 -0.0000 1.0000
vn -1.0000 -0.0000 0.0000
vn -0.0000 1.0000 -0.0000
vn 0.0000 -1.0000 -0.0000
usemtl m_0
s 1
f 1/1/1 2/2/1 3/3/1 4/4/1
f 5/5/2 1/6/3 4/7/2 6/8/3
f 7/9/4 5/10/4 6/11/4 8/12/4
f 2/13/2 7/14/5 8/15/2 3/16/5
f 8/17/6 6/18/2 4/19/6 3/20/2
f 2/21/7 1/22/2 5/23/7 7/24/2
