# Blender 3.1.0
# www.blender.org
mtllib white_door.mtl
o cube
v -0.312500 -0.500000 -0.500000
v -0.437500 -0.500000 -0.500000
v -0.437500 1.484375 -0.500000
v -0.312500 1.484375 -0.500000
v -0.312500 -0.500000 0.500000
v -0.312500 1.484375 0.500000
v -0.437500 -0.500000 0.500000
v -0.437500 1.484375 0.500000
vn -0.0000 -0.0000 -1.0000
vn 1.0000 -0.0000 -0.0000
vn -0.0000 -0.0000 1.0000
vn -1.0000 -0.0000 -0.0000
vn -0.0000 1.0000 -0.0000
vn -0.0000 -1.0000 -0.0000
vt 0.250000 0.000000
vt 0.257324 0.000488
vt 0.251953 0.000000
vt 0.250000 0.000000
vt 0.257324 0.000000
vt 0.251953 1.000000
vt 0.250000 1.000000
vt 0.250000 0.996094
vt 0.250000 1.000000
vt 0.750000 0.000000
vt 0.744629 0.000488
vt 0.750000 1.000000
vt 0.748047 0.000000
vt 0.750000 0.000000
vt 0.744629 0.000000
vt 0.748047 1.000000
vt 0.750000 1.000000
vt 0.750000 0.996094
s 1
usemtl m_0
f 1/1/1 2/3/1 3/6/1 4/9/1
f 5/10/2 1/1/2 4/9/2 6/12/2
f 7/13/3 5/10/3 6/12/3 8/16/3
f 2/4/4 7/14/4 8/17/4 3/7/4
f 8/18/5 6/12/5 4/9/5 3/8/5
f 2/5/6 1/2/6 5/11/6 7/15/6
