# Blender v2.93.2 OBJ File: ''
# www.blender.org
mtllib world.mtl
o Sphere
v 0.000000 0.974928 -0.222521
v 0.000000 0.900969 -0.433884
v 0.000000 0.623490 -0.781832
v 0.000000 0.433884 -0.900969
v 0.000000 0.222521 -0.974928
v 0.000000 -0.000000 -1.000000
v 0.000000 -0.222521 -0.974928
v 0.000000 -0.433884 -0.900969
v 0.000000 -0.623490 -0.781832
v 0.000000 -0.781832 -0.623490
v 0.000000 -0.900969 -0.433884
v 0.000000 -0.974928 -0.222521
v 0.096548 0.974928 -0.200484
v 0.188255 0.900969 -0.390916
v 0.270522 0.781832 -0.561745
v 0.339224 0.623490 -0.704406
v 0.390916 0.433884 -0.811745
v 0.423005 0.222521 -0.878380
v 0.433884 -0.000000 -0.900969
v 0.423005 -0.222521 -0.878380
v 0.390916 -0.433884 -0.811745
v 0.339224 -0.623490 -0.704406
v 0.270522 -0.781832 -0.561745
v 0.188255 -0.900969 -0.390916
v 0.096548 -0.974928 -0.200484
v 0.173974 0.974928 -0.138739
v 0.339224 0.900969 -0.270522
v 0.487464 0.781832 -0.388739
v 0.611261 0.623490 -0.487464
v 0.704406 0.433884 -0.561745
v 0.762229 0.222521 -0.607858
v 0.781832 -0.000000 -0.623490
v 0.762229 -0.222521 -0.607858
v 0.704406 -0.433884 -0.561745
v 0.611261 -0.623490 -0.487464
v 0.487464 -0.781832 -0.388739
v 0.339224 -0.900969 -0.270522
v 0.173974 -0.974928 -0.138739
v 0.216942 0.974928 -0.049515
v 0.423005 0.900969 -0.096548
v 0.607858 0.781832 -0.138739
v 0.762230 0.623490 -0.173974
v 0.878380 0.433884 -0.200484
v 0.950484 0.222521 -0.216942
v 0.974928 -0.000000 -0.222521
v 0.950484 -0.222521 -0.216942
v 0.878380 -0.433884 -0.200484
v 0.762230 -0.623490 -0.173974
v 0.607858 -0.781832 -0.138739
v 0.423006 -0.900969 -0.096548
v 0.216942 -0.974928 -0.049515
v 0.216942 0.974928 0.049516
v 0.423005 0.900969 0.096548
v 0.607858 0.781832 0.138740
v 0.762230 0.623490 0.173974
v 0.878380 0.433884 0.200485
v 0.950484 0.222521 0.216942
v 0.974928 -0.000000 0.222521
v 0.950484 -0.222521 0.216942
v 0.878380 -0.433884 0.200485
v 0.762230 -0.623490 0.173974
v 0.607858 -0.781832 0.138740
v 0.423006 -0.900969 0.096548
v 0.216942 -0.974928 0.049516
v 0.173974 0.974928 0.138740
v 0.339224 0.900969 0.270522
v 0.487464 0.781832 0.388740
v 0.611261 0.623490 0.487464
v 0.704406 0.433884 0.561745
v 0.762229 0.222521 0.607858
v 0.781831 -0.000000 0.623490
v 0.762229 -0.222521 0.607858
v 0.704406 -0.433884 0.561745
v 0.611261 -0.623490 0.487464
v 0.487464 -0.781832 0.388740
v 0.339224 -0.900969 0.270522
v 0.173974 -0.974928 0.138740
v 0.096548 0.974928 0.200485
v 0.188255 0.900969 0.390916
v 0.270522 0.781832 0.561745
v 0.339224 0.623490 0.704406
v 0.390916 0.433884 0.811745
v 0.423005 0.222521 0.878380
v 0.433884 -0.000000 0.900969
v 0.423005 -0.222521 0.878380
v 0.390916 -0.433884 0.811745
v 0.339224 -0.623490 0.704406
v 0.270522 -0.781832 0.561745
v 0.188255 -0.900969 0.390916
v 0.096548 -0.974928 0.200485
v -0.000000 1.000000 0.000000
v -0.000000 0.974928 0.222521
v -0.000000 0.900969 0.433884
v -0.000000 0.781832 0.623490
v -0.000000 0.623490 0.781832
v -0.000000 0.433884 0.900969
v -0.000000 0.222521 0.974928
v -0.000000 -0.000000 1.000000
v -0.000000 -0.222521 0.974928
v -0.000000 -0.433884 0.900969
v -0.000000 -0.623490 0.781832
v -0.000000 -0.781832 0.623490
v -0.000000 -0.900969 0.433884
v -0.000000 -0.974928 0.222521
v -0.096548 0.974928 0.200485
v -0.188255 0.900969 0.390916
v -0.270522 0.781832 0.561745
v -0.339224 0.623490 0.704406
v -0.390916 0.433884 0.811745
v -0.423005 0.222521 0.878380
v -0.433884 -0.000000 0.900969
v -0.423005 -0.222521 0.878380
v -0.390916 -0.433884 0.811745
v -0.339224 -0.623490 0.704406
v -0.270522 -0.781832 0.561745
v -0.188255 -0.900969 0.390916
v -0.096548 -0.974928 0.200485
v -0.173974 0.974928 0.138740
v -0.339224 0.900969 0.270522
v -0.487464 0.781832 0.388739
v -0.611261 0.623490 0.487464
v -0.704406 0.433884 0.561745
v -0.762229 0.222521 0.607857
v -0.781832 -0.000000 0.623490
v -0.762229 -0.222521 0.607857
v -0.704406 -0.433884 0.561745
v -0.611261 -0.623490 0.487464
v -0.487464 -0.781832 0.388739
v -0.339224 -0.900969 0.270522
v -0.173974 -0.974928 0.138740
v -0.216942 0.974928 0.049516
v -0.423005 0.900969 0.096548
v -0.607858 0.781832 0.138739
v -0.762229 0.623490 0.173974
v -0.878380 0.433884 0.200484
v -0.950484 0.222521 0.216942
v -0.974928 -0.000000 0.222521
v -0.950484 -0.222521 0.216942
v -0.878380 -0.433884 0.200484
v -0.762229 -0.623490 0.173974
v -0.607858 -0.781832 0.138739
v -0.423005 -0.900969 0.096548
v -0.216942 -0.974928 0.049516
v -0.216942 0.974928 -0.049516
v -0.423005 0.900969 -0.096548
v -0.607857 0.781832 -0.138740
v -0.762229 0.623490 -0.173974
v -0.878380 0.433884 -0.200484
v -0.950484 0.222521 -0.216942
v -0.974928 -0.000000 -0.222521
v -0.950484 -0.222521 -0.216942
v -0.878380 -0.433884 -0.200484
v -0.762229 -0.623490 -0.173974
v -0.607857 -0.781832 -0.138740
v -0.423005 -0.900969 -0.096548
v -0.216942 -0.974928 -0.049516
v -0.173974 0.974928 -0.138740
v -0.339224 0.900969 -0.270522
v -0.487464 0.781832 -0.388740
v -0.611260 0.623490 -0.487464
v -0.704406 0.433884 -0.561745
v -0.762229 0.222521 -0.607858
v -0.781831 -0.000000 -0.623490
v -0.762229 -0.222521 -0.607858
v -0.704406 -0.433884 -0.561745
v -0.611260 -0.623490 -0.487464
v -0.487464 -0.781832 -0.388740
v -0.339224 -0.900969 -0.270522
v -0.173974 -0.974928 -0.138740
v -0.096548 0.974928 -0.200484
v -0.188255 0.900969 -0.390916
v -0.270522 0.781832 -0.561745
v -0.339224 0.623490 -0.704406
v -0.390916 0.433884 -0.811745
v -0.423005 0.222521 -0.878380
v -0.433883 -0.000000 -0.900969
v -0.423005 -0.222521 -0.878380
v -0.390916 -0.433884 -0.811745
v -0.339224 -0.623490 -0.704406
v -0.270522 -0.781832 -0.561745
v -0.188255 -0.900969 -0.390916
v -0.096548 -0.974928 -0.200484
v 0.000000 0.781832 -0.623490
v 0.000000 -1.000000 0.000000
vt 0.714286 0.928572
vt 0.678571 1.000000
vt 0.642857 0.928572
vt 0.714286 0.357143
vt 0.714286 0.428571
vt 0.642857 0.428571
vt 0.642857 0.357143
vt 0.714286 0.857143
vt 0.642857 0.857143
vt 0.714286 0.285714
vt 0.642857 0.285714
vt 0.714286 0.785714
vt 0.642857 0.785714
vt 0.714286 0.214286
vt 0.642857 0.214286
vt 0.714286 0.714286
vt 0.642857 0.714286
vt 0.714286 0.142857
vt 0.642857 0.142857
vt 0.714286 0.642857
vt 0.642857 0.642857
vt 0.714286 0.071429
vt 0.642857 0.071429
vt 0.714286 0.571429
vt 0.642857 0.571429
vt 0.678571 0.000000
vt 0.714286 0.500000
vt 0.642857 0.500000
vt 0.571429 0.428571
vt 0.571429 0.357143
vt 0.571429 0.928571
vt 0.571429 0.857143
vt 0.571429 0.285714
vt 0.571429 0.785714
vt 0.571429 0.214286
vt 0.571429 0.714286
vt 0.571429 0.142857
vt 0.571429 0.642857
vt 0.571429 0.071429
vt 0.571429 0.571429
vt 0.607143 0.000000
vt 0.571429 0.500000
vt 0.607143 1.000000
vt 0.500000 0.357143
vt 0.500000 0.285714
vt 0.500000 0.857143
vt 0.500000 0.785714
vt 0.500000 0.214286
vt 0.500000 0.714286
vt 0.500000 0.142857
vt 0.500000 0.642857
vt 0.500000 0.071429
vt 0.500000 0.571429
vt 0.535714 0.000000
vt 0.500000 0.500000
vt 0.500000 0.428571
vt 0.535714 1.000000
vt 0.500000 0.928571
vt 0.428571 0.857143
vt 0.428571 0.785714
vt 0.428571 0.285714
vt 0.428571 0.214286
vt 0.428571 0.714286
vt 0.428571 0.142857
vt 0.428571 0.642857
vt 0.428571 0.071429
vt 0.428571 0.571429
vt 0.464286 0.000000
vt 0.428571 0.500000
vt 0.428571 0.428571
vt 0.464286 1.000000
vt 0.428571 0.928571
vt 0.428571 0.357143
vt 0.357143 0.285714
vt 0.357143 0.214286
vt 0.357143 0.785714
vt 0.357143 0.714286
vt 0.357143 0.142857
vt 0.357143 0.642857
vt 0.357143 0.071429
vt 0.357143 0.571429
vt 0.392857 0.000000
vt 0.357143 0.500000
vt 0.357143 0.428571
vt 0.392857 1.000000
vt 0.357143 0.928571
vt 0.357143 0.357143
vt 0.357143 0.857143
vt 0.285714 0.785714
vt 0.285714 0.714286
vt 0.285714 0.214286
vt 0.285714 0.142857
vt 0.285714 0.642857
vt 0.285714 0.071429
vt 0.285714 0.571429
vt 0.321429 0.000000
vt 0.285714 0.500000
vt 0.285714 0.428571
vt 0.321428 1.000000
vt 0.285714 0.928571
vt 0.285714 0.357143
vt 0.285714 0.857143
vt 0.285714 0.285714
vt 0.214286 0.214286
vt 0.214286 0.142857
vt 0.214286 0.714286
vt 0.214286 0.642857
vt 0.214286 0.071429
vt 0.214286 0.571429
vt 0.250000 0.000000
vt 0.214286 0.500000
vt 0.214286 0.428571
vt 0.250000 1.000000
vt 0.214286 0.928571
vt 0.214286 0.357143
vt 0.214286 0.857143
vt 0.214286 0.285714
vt 0.214286 0.785714
vt 0.142857 0.142857
vt 0.142857 0.071429
vt 0.142857 0.642857
vt 0.142857 0.571429
vt 0.178571 0.000000
vt 0.142857 0.500000
vt 0.142857 0.428571
vt 0.178571 1.000000
vt 0.142857 0.928571
vt 0.142857 0.357143
vt 0.142857 0.857143
vt 0.142857 0.285714
vt 0.142857 0.785714
vt 0.142857 0.214286
vt 0.142857 0.714286
vt 0.071429 0.642857
vt 0.071429 0.571429
vt 0.107143 0.000000
vt 0.071429 0.071429
vt 0.071429 0.500000
vt 0.071429 0.428571
vt 0.107143 1.000000
vt 0.071429 0.928571
vt 0.071429 0.357143
vt 0.071429 0.857143
vt 0.071429 0.285714
vt 0.071429 0.785714
vt 0.071429 0.214286
vt 0.071429 0.714286
vt 0.071429 0.142857
vt 0.035714 0.000000
vt 0.000000 0.071429
vt 0.000000 0.571429
vt 0.000000 0.500000
vt 0.000000 0.428571
vt 0.035714 1.000000
vt 0.000000 0.928571
vt 0.000000 0.357143
vt 0.000000 0.857143
vt 0.000000 0.285714
vt 0.000000 0.785714
vt 0.000000 0.214286
vt 0.000000 0.714286
vt 0.000000 0.142857
vt 0.000000 0.642857
vt 1.000000 0.500000
vt 1.000000 0.571429
vt 0.928571 0.571429
vt 0.928571 0.500000
vt 1.000000 0.428571
vt 0.928571 0.428571
vt 1.000000 0.928571
vt 0.964286 1.000000
vt 0.928571 0.928571
vt 1.000000 0.357143
vt 0.928571 0.357143
vt 1.000000 0.857143
vt 0.928571 0.857143
vt 1.000000 0.285714
vt 0.928571 0.285714
vt 1.000000 0.785714
vt 0.928571 0.785714
vt 1.000000 0.214286
vt 0.928571 0.214286
vt 1.000000 0.714286
vt 0.928571 0.714286
vt 1.000000 0.142857
vt 0.928571 0.142857
vt 1.000000 0.642857
vt 0.928571 0.642857
vt 1.000000 0.071429
vt 0.928571 0.071429
vt 0.964286 0.000000
vt 0.857143 0.500000
vt 0.857143 0.428571
vt 0.892857 1.000000
vt 0.857143 0.928571
vt 0.857143 0.357143
vt 0.857143 0.857143
vt 0.857143 0.285714
vt 0.857143 0.785714
vt 0.857143 0.214286
vt 0.857143 0.714286
vt 0.857143 0.142857
vt 0.857143 0.642857
vt 0.857143 0.071429
vt 0.857143 0.571429
vt 0.892857 0.000000
vt 0.821429 1.000000
vt 0.785714 0.928572
vt 0.785714 0.428571
vt 0.785714 0.357143
vt 0.785714 0.857143
vt 0.785714 0.285714
vt 0.785714 0.785714
vt 0.785714 0.214286
vt 0.785714 0.714286
vt 0.785714 0.142857
vt 0.785714 0.642857
vt 0.785714 0.071429
vt 0.785714 0.571429
vt 0.821429 0.000000
vt 0.785714 0.500000
vt 0.750000 0.000000
vt 0.750000 1.000000
vn 0.0255 0.9934 -0.1119
vn 0.2106 -0.3229 -0.9227
vn 0.0752 0.9412 -0.3293
vn 0.1897 -0.5224 -0.8313
vn 0.1205 0.8405 -0.5282
vn 0.1593 -0.6981 -0.6981
vn 0.1593 0.6981 -0.6981
vn 0.1205 -0.8405 -0.5282
vn 0.1897 0.5224 -0.8313
vn 0.0752 -0.9412 -0.3293
vn 0.2106 0.3229 -0.9227
vn 0.0255 -0.9934 -0.1119
vn 0.2212 0.1092 -0.9691
vn 0.2212 -0.1092 -0.9691
vn 0.5901 -0.3229 -0.7400
vn 0.2106 0.9412 -0.2641
vn 0.5317 -0.5224 -0.6667
vn 0.3378 0.8405 -0.4235
vn 0.4464 -0.6981 -0.5598
vn 0.4464 0.6981 -0.5598
vn 0.3378 -0.8405 -0.4235
vn 0.5317 0.5224 -0.6667
vn 0.2106 -0.9412 -0.2641
vn 0.5901 0.3229 -0.7400
vn 0.0716 -0.9934 -0.0898
vn 0.6198 0.1092 -0.7772
vn 0.6198 -0.1092 -0.7772
vn 0.0716 0.9934 -0.0898
vn 0.7683 -0.5224 -0.3700
vn 0.4881 0.8405 -0.2350
vn 0.6451 -0.6981 -0.3107
vn 0.6451 0.6981 -0.3107
vn 0.4881 -0.8405 -0.2350
vn 0.7683 0.5224 -0.3700
vn 0.3044 -0.9412 -0.1466
vn 0.8527 0.3229 -0.4106
vn 0.1034 -0.9934 -0.0498
vn 0.8956 0.1092 -0.4313
vn 0.8956 -0.1092 -0.4313
vn 0.1034 0.9934 -0.0498
vn 0.8527 -0.3229 -0.4106
vn 0.3044 0.9412 -0.1466
vn 0.5417 0.8405 0.0000
vn 0.7160 -0.6981 0.0000
vn 0.7160 0.6981 0.0000
vn 0.5417 -0.8405 0.0000
vn 0.8527 0.5224 0.0000
vn 0.3378 -0.9412 0.0000
vn 0.9464 0.3229 0.0000
vn 0.1148 -0.9934 0.0000
vn 0.9940 0.1092 0.0000
vn 0.9940 -0.1092 0.0000
vn 0.1148 0.9934 0.0000
vn 0.9464 -0.3229 0.0000
vn 0.3378 0.9412 0.0000
vn 0.8527 -0.5224 0.0000
vn 0.6451 -0.6981 0.3107
vn 0.6451 0.6981 0.3107
vn 0.4881 -0.8405 0.2350
vn 0.7683 0.5224 0.3700
vn 0.3044 -0.9412 0.1466
vn 0.8527 0.3229 0.4106
vn 0.1034 -0.9934 0.0498
vn 0.8956 0.1092 0.4313
vn 0.8956 -0.1092 0.4313
vn 0.1034 0.9934 0.0498
vn 0.8527 -0.3229 0.4106
vn 0.3044 0.9412 0.1466
vn 0.7683 -0.5224 0.3700
vn 0.4881 0.8405 0.2350
vn 0.4464 0.6981 0.5598
vn 0.3378 -0.8405 0.4235
vn 0.5317 0.5224 0.6667
vn 0.2106 -0.9412 0.2641
vn 0.5901 0.3229 0.7400
vn 0.0716 -0.9934 0.0898
vn 0.6198 0.1092 0.7772
vn 0.6198 -0.1092 0.7772
vn 0.0716 0.9934 0.0898
vn 0.5901 -0.3229 0.7400
vn 0.2106 0.9412 0.2641
vn 0.5317 -0.5224 0.6667
vn 0.3378 0.8405 0.4235
vn 0.4464 -0.6981 0.5598
vn 0.1205 -0.8405 0.5282
vn 0.1897 0.5224 0.8313
vn 0.0752 -0.9412 0.3293
vn 0.2106 0.3229 0.9227
vn 0.0255 -0.9934 0.1119
vn 0.2212 0.1092 0.9691
vn 0.2212 -0.1092 0.9691
vn 0.0255 0.9934 0.1119
vn 0.2106 -0.3229 0.9227
vn 0.0752 0.9412 0.3293
vn 0.1897 -0.5224 0.8313
vn 0.1205 0.8405 0.5282
vn 0.1593 -0.6981 0.6981
vn 0.1593 0.6981 0.6981
vn -0.0752 -0.9412 0.3293
vn -0.2106 0.3229 0.9227
vn -0.0255 -0.9934 0.1119
vn -0.2212 0.1092 0.9691
vn -0.2212 -0.1092 0.9691
vn -0.0255 0.9934 0.1119
vn -0.2106 -0.3229 0.9227
vn -0.0752 0.9412 0.3293
vn -0.1897 -0.5224 0.8313
vn -0.1205 0.8405 0.5282
vn -0.1593 -0.6981 0.6981
vn -0.1593 0.6981 0.6981
vn -0.1205 -0.8405 0.5282
vn -0.1897 0.5224 0.8313
vn -0.5901 0.3229 0.7400
vn -0.0716 -0.9934 0.0898
vn -0.6198 0.1092 0.7772
vn -0.6198 -0.1092 0.7772
vn -0.0716 0.9934 0.0898
vn -0.5901 -0.3229 0.7400
vn -0.2106 0.9412 0.2641
vn -0.5317 -0.5224 0.6667
vn -0.3378 0.8405 0.4235
vn -0.4464 -0.6981 0.5598
vn -0.4464 0.6981 0.5598
vn -0.3378 -0.8405 0.4235
vn -0.5317 0.5224 0.6667
vn -0.2106 -0.9412 0.2641
vn -0.1034 -0.9934 0.0498
vn -0.8956 0.1092 0.4313
vn -0.8956 -0.1092 0.4313
vn -0.1034 0.9934 0.0498
vn -0.8527 -0.3229 0.4106
vn -0.3044 0.9412 0.1466
vn -0.7683 -0.5224 0.3700
vn -0.4881 0.8405 0.2350
vn -0.6451 -0.6981 0.3107
vn -0.6451 0.6981 0.3107
vn -0.4881 -0.8405 0.2350
vn -0.7683 0.5224 0.3700
vn -0.3044 -0.9412 0.1466
vn -0.8527 0.3229 0.4106
vn -0.9940 0.1092 -0.0000
vn -0.9940 -0.1092 -0.0000
vn -0.1148 0.9934 0.0000
vn -0.9464 -0.3229 -0.0000
vn -0.3378 0.9412 0.0000
vn -0.8527 -0.5224 -0.0000
vn -0.5417 0.8405 -0.0000
vn -0.7160 -0.6981 -0.0000
vn -0.7160 0.6981 -0.0000
vn -0.5417 -0.8405 -0.0000
vn -0.8527 0.5224 -0.0000
vn -0.3378 -0.9412 0.0000
vn -0.9464 0.3229 -0.0000
vn -0.1148 -0.9934 -0.0000
vn -0.8956 -0.1092 -0.4313
vn -0.1034 0.9934 -0.0498
vn -0.8527 -0.3229 -0.4106
vn -0.3044 0.9412 -0.1466
vn -0.7683 -0.5224 -0.3700
vn -0.4881 0.8405 -0.2351
vn -0.6451 -0.6981 -0.3107
vn -0.6451 0.6981 -0.3107
vn -0.4881 -0.8405 -0.2351
vn -0.7683 0.5224 -0.3700
vn -0.3044 -0.9412 -0.1466
vn -0.8527 0.3229 -0.4106
vn -0.1034 -0.9934 -0.0498
vn -0.8956 0.1092 -0.4313
vn -0.0716 0.9934 -0.0898
vn -0.5901 -0.3229 -0.7400
vn -0.2106 0.9412 -0.2641
vn -0.5317 -0.5224 -0.6667
vn -0.3378 0.8405 -0.4235
vn -0.4464 -0.6981 -0.5598
vn -0.4464 0.6981 -0.5598
vn -0.3378 -0.8405 -0.4235
vn -0.5317 0.5224 -0.6667
vn -0.2106 -0.9412 -0.2641
vn -0.5901 0.3229 -0.7400
vn -0.0716 -0.9934 -0.0898
vn -0.6198 0.1092 -0.7772
vn -0.6198 -0.1092 -0.7772
vn -0.2106 -0.3229 -0.9227
vn -0.0752 0.9412 -0.3293
vn -0.1897 -0.5224 -0.8313
vn -0.1205 0.8405 -0.5282
vn -0.1593 -0.6981 -0.6981
vn -0.1593 0.6981 -0.6981
vn -0.1205 -0.8405 -0.5282
vn -0.1897 0.5224 -0.8313
vn -0.0752 -0.9412 -0.3293
vn -0.2106 0.3229 -0.9227
vn -0.0255 -0.9934 -0.1119
vn -0.2212 0.1092 -0.9691
vn -0.2212 -0.1092 -0.9691
vn -0.0255 0.9934 -0.1119
usemtl Material.001
s off
f 1/1/1 91/2/1 13/3/1
f 8/4/2 7/5/2 20/6/2 21/7/2
f 2/8/3 1/1/3 13/3/3 14/9/3
f 9/10/4 8/4/4 21/7/4 22/11/4
f 183/12/5 2/8/5 14/9/5 15/13/5
f 10/14/6 9/10/6 22/11/6 23/15/6
f 3/16/7 183/12/7 15/13/7 16/17/7
f 11/18/8 10/14/8 23/15/8 24/19/8
f 4/20/9 3/16/9 16/17/9 17/21/9
f 12/22/10 11/18/10 24/19/10 25/23/10
f 5/24/11 4/20/11 17/21/11 18/25/11
f 184/26/12 12/22/12 25/23/12
f 6/27/13 5/24/13 18/25/13 19/28/13
f 7/5/14 6/27/14 19/28/14 20/6/14
f 21/7/15 20/6/15 33/29/15 34/30/15
f 14/9/16 13/3/16 26/31/16 27/32/16
f 22/11/17 21/7/17 34/30/17 35/33/17
f 15/13/18 14/9/18 27/32/18 28/34/18
f 23/15/19 22/11/19 35/33/19 36/35/19
f 16/17/20 15/13/20 28/34/20 29/36/20
f 24/19/21 23/15/21 36/35/21 37/37/21
f 17/21/22 16/17/22 29/36/22 30/38/22
f 25/23/23 24/19/23 37/37/23 38/39/23
f 18/25/24 17/21/24 30/38/24 31/40/24
f 184/41/25 25/23/25 38/39/25
f 19/28/26 18/25/26 31/40/26 32/42/26
f 20/6/27 19/28/27 32/42/27 33/29/27
f 13/3/28 91/43/28 26/31/28
f 35/33/29 34/30/29 47/44/29 48/45/29
f 28/34/30 27/32/30 40/46/30 41/47/30
f 36/35/31 35/33/31 48/45/31 49/48/31
f 29/36/32 28/34/32 41/47/32 42/49/32
f 37/37/33 36/35/33 49/48/33 50/50/33
f 30/38/34 29/36/34 42/49/34 43/51/34
f 38/39/35 37/37/35 50/50/35 51/52/35
f 31/40/36 30/38/36 43/51/36 44/53/36
f 184/54/37 38/39/37 51/52/37
f 32/42/38 31/40/38 44/53/38 45/55/38
f 33/29/39 32/42/39 45/55/39 46/56/39
f 26/31/40 91/57/40 39/58/40
f 34/30/41 33/29/41 46/56/41 47/44/41
f 27/32/42 26/31/42 39/58/42 40/46/42
f 41/47/43 40/46/43 53/59/43 54/60/43
f 49/48/44 48/45/44 61/61/44 62/62/44
f 42/49/45 41/47/45 54/60/45 55/63/45
f 50/50/46 49/48/46 62/62/46 63/64/46
f 43/51/47 42/49/47 55/63/47 56/65/47
f 51/52/48 50/50/48 63/64/48 64/66/48
f 44/53/49 43/51/49 56/65/49 57/67/49
f 184/68/50 51/52/50 64/66/50
f 45/55/51 44/53/51 57/67/51 58/69/51
f 46/56/52 45/55/52 58/69/52 59/70/52
f 39/58/53 91/71/53 52/72/53
f 47/44/54 46/56/54 59/70/54 60/73/54
f 40/46/55 39/58/55 52/72/55 53/59/55
f 48/45/56 47/44/56 60/73/56 61/61/56
f 62/62/57 61/61/57 74/74/57 75/75/57
f 55/63/58 54/60/58 67/76/58 68/77/58
f 63/64/59 62/62/59 75/75/59 76/78/59
f 56/65/60 55/63/60 68/77/60 69/79/60
f 64/66/61 63/64/61 76/78/61 77/80/61
f 57/67/62 56/65/62 69/79/62 70/81/62
f 184/82/63 64/66/63 77/80/63
f 58/69/64 57/67/64 70/81/64 71/83/64
f 59/70/65 58/69/65 71/83/65 72/84/65
f 52/72/66 91/85/66 65/86/66
f 60/73/67 59/70/67 72/84/67 73/87/67
f 53/59/68 52/72/68 65/86/68 66/88/68
f 61/61/69 60/73/69 73/87/69 74/74/69
f 54/60/70 53/59/70 66/88/70 67/76/70
f 68/77/71 67/76/71 80/89/71 81/90/71
f 76/78/72 75/75/72 88/91/72 89/92/72
f 69/79/73 68/77/73 81/90/73 82/93/73
f 77/80/74 76/78/74 89/92/74 90/94/74
f 70/81/75 69/79/75 82/93/75 83/95/75
f 184/96/76 77/80/76 90/94/76
f 71/83/77 70/81/77 83/95/77 84/97/77
f 72/84/78 71/83/78 84/97/78 85/98/78
f 65/86/79 91/99/79 78/100/79
f 73/87/80 72/84/80 85/98/80 86/101/80
f 66/88/81 65/86/81 78/100/81 79/102/81
f 74/74/82 73/87/82 86/101/82 87/103/82
f 67/76/83 66/88/83 79/102/83 80/89/83
f 75/75/84 74/74/84 87/103/84 88/91/84
f 89/92/85 88/91/85 102/104/85 103/105/85
f 82/93/86 81/90/86 95/106/86 96/107/86
f 90/94/87 89/92/87 103/105/87 104/108/87
f 83/95/88 82/93/88 96/107/88 97/109/88
f 184/110/89 90/94/89 104/108/89
f 84/97/90 83/95/90 97/109/90 98/111/90
f 85/98/91 84/97/91 98/111/91 99/112/91
f 78/100/92 91/113/92 92/114/92
f 86/101/93 85/98/93 99/112/93 100/115/93
f 79/102/94 78/100/94 92/114/94 93/116/94
f 87/103/95 86/101/95 100/115/95 101/117/95
f 80/89/96 79/102/96 93/116/96 94/118/96
f 88/91/97 87/103/97 101/117/97 102/104/97
f 81/90/98 80/89/98 94/118/98 95/106/98
f 104/108/99 103/105/99 116/119/99 117/120/99
f 97/109/100 96/107/100 109/121/100 110/122/100
f 184/123/101 104/108/101 117/120/101
f 98/111/102 97/109/102 110/122/102 111/124/102
f 99/112/103 98/111/103 111/124/103 112/125/103
f 92/114/104 91/126/104 105/127/104
f 100/115/105 99/112/105 112/125/105 113/128/105
f 93/116/106 92/114/106 105/127/106 106/129/106
f 101/117/107 100/115/107 113/128/107 114/130/107
f 94/118/108 93/116/108 106/129/108 107/131/108
f 102/104/109 101/117/109 114/130/109 115/132/109
f 95/106/110 94/118/110 107/131/110 108/133/110
f 103/105/111 102/104/111 115/132/111 116/119/111
f 96/107/112 95/106/112 108/133/112 109/121/112
f 110/122/113 109/121/113 122/134/113 123/135/113
f 184/136/114 117/120/114 130/137/114
f 111/124/115 110/122/115 123/135/115 124/138/115
f 112/125/116 111/124/116 124/138/116 125/139/116
f 105/127/117 91/140/117 118/141/117
f 113/128/118 112/125/118 125/139/118 126/142/118
f 106/129/119 105/127/119 118/141/119 119/143/119
f 114/130/120 113/128/120 126/142/120 127/144/120
f 107/131/121 106/129/121 119/143/121 120/145/121
f 115/132/122 114/130/122 127/144/122 128/146/122
f 108/133/123 107/131/123 120/145/123 121/147/123
f 116/119/124 115/132/124 128/146/124 129/148/124
f 109/121/125 108/133/125 121/147/125 122/134/125
f 117/120/126 116/119/126 129/148/126 130/137/126
f 184/149/127 130/137/127 143/150/127
f 124/138/128 123/135/128 136/151/128 137/152/128
f 125/139/129 124/138/129 137/152/129 138/153/129
f 118/141/130 91/154/130 131/155/130
f 126/142/131 125/139/131 138/153/131 139/156/131
f 119/143/132 118/141/132 131/155/132 132/157/132
f 127/144/133 126/142/133 139/156/133 140/158/133
f 120/145/134 119/143/134 132/157/134 133/159/134
f 128/146/135 127/144/135 140/158/135 141/160/135
f 121/147/136 120/145/136 133/159/136 134/161/136
f 129/148/137 128/146/137 141/160/137 142/162/137
f 122/134/138 121/147/138 134/161/138 135/163/138
f 130/137/139 129/148/139 142/162/139 143/150/139
f 123/135/140 122/134/140 135/163/140 136/151/140
f 137/164/141 136/165/141 149/166/141 150/167/141
f 138/168/142 137/164/142 150/167/142 151/169/142
f 131/170/143 91/171/143 144/172/143
f 139/173/144 138/168/144 151/169/144 152/174/144
f 132/175/145 131/170/145 144/172/145 145/176/145
f 140/177/146 139/173/146 152/174/146 153/178/146
f 133/179/147 132/175/147 145/176/147 146/180/147
f 141/181/148 140/177/148 153/178/148 154/182/148
f 134/183/149 133/179/149 146/180/149 147/184/149
f 142/185/150 141/181/150 154/182/150 155/186/150
f 135/187/151 134/183/151 147/184/151 148/188/151
f 143/189/152 142/185/152 155/186/152 156/190/152
f 136/165/153 135/187/153 148/188/153 149/166/153
f 184/191/154 143/189/154 156/190/154
f 151/169/155 150/167/155 163/192/155 164/193/155
f 144/172/156 91/194/156 157/195/156
f 152/174/157 151/169/157 164/193/157 165/196/157
f 145/176/158 144/172/158 157/195/158 158/197/158
f 153/178/159 152/174/159 165/196/159 166/198/159
f 146/180/160 145/176/160 158/197/160 159/199/160
f 154/182/161 153/178/161 166/198/161 167/200/161
f 147/184/162 146/180/162 159/199/162 160/201/162
f 155/186/163 154/182/163 167/200/163 168/202/163
f 148/188/164 147/184/164 160/201/164 161/203/164
f 156/190/165 155/186/165 168/202/165 169/204/165
f 149/166/166 148/188/166 161/203/166 162/205/166
f 184/206/167 156/190/167 169/204/167
f 150/167/168 149/166/168 162/205/168 163/192/168
f 157/195/169 91/207/169 170/208/169
f 165/196/170 164/193/170 177/209/170 178/210/170
f 158/197/171 157/195/171 170/208/171 171/211/171
f 166/198/172 165/196/172 178/210/172 179/212/172
f 159/199/173 158/197/173 171/211/173 172/213/173
f 167/200/174 166/198/174 179/212/174 180/214/174
f 160/201/175 159/199/175 172/213/175 173/215/175
f 168/202/176 167/200/176 180/214/176 181/216/176
f 161/203/177 160/201/177 173/215/177 174/217/177
f 169/204/178 168/202/178 181/216/178 182/218/178
f 162/205/179 161/203/179 174/217/179 175/219/179
f 184/220/180 169/204/180 182/218/180
f 163/192/181 162/205/181 175/219/181 176/221/181
f 164/193/182 163/192/182 176/221/182 177/209/182
f 178/210/183 177/209/183 7/5/183 8/4/183
f 171/211/184 170/208/184 1/1/184 2/8/184
f 179/212/185 178/210/185 8/4/185 9/10/185
f 172/213/186 171/211/186 2/8/186 183/12/186
f 180/214/187 179/212/187 9/10/187 10/14/187
f 173/215/188 172/213/188 183/12/188 3/16/188
f 181/216/189 180/214/189 10/14/189 11/18/189
f 174/217/190 173/215/190 3/16/190 4/20/190
f 182/218/191 181/216/191 11/18/191 12/22/191
f 175/219/192 174/217/192 4/20/192 5/24/192
f 184/222/193 182/218/193 12/22/193
f 176/221/194 175/219/194 5/24/194 6/27/194
f 177/209/195 176/221/195 6/27/195 7/5/195
f 170/208/196 91/223/196 1/1/196
